<svg xmlns="http://www.w3.org/2000/svg" xmlns:xlink="http://www.w3.org/1999/xlink" width="500" zoomAndPan="magnify" viewBox="0 0 375 374.999991" height="500" preserveAspectRatio="xMidYMid meet" version="1.0"><defs><clipPath id="88cb012a3f"><path d="M 0 0 L 375 0 L 375 362.105469 L 0 362.105469 Z M 0 0 " clip-rule="nonzero"/></clipPath><clipPath id="b1831374f4"><path d="M 0 22.355469 L 0 326.855469 C 0 346.324219 15.78125 362.105469 35.25 362.105469 L 339.75 362.105469 C 359.21875 362.105469 375 346.324219 375 326.855469 L 375 22.355469 C 375 2.886719 359.21875 -12.894531 339.75 -12.894531 L 35.25 -12.894531 C 15.78125 -12.894531 0 2.886719 0 22.355469 Z M 0 22.355469 " clip-rule="nonzero"/></clipPath></defs><g clip-path="url(#88cb012a3f)"><g clip-path="url(#b1831374f4)"><path fill="#002d72" d="M -227.046875 586.347656 L -227.046875 1240.230469 L 614.683594 1240.230469 L 614.683594 -67.535156 L -227.046875 -67.535156 Z M -226.421875 586.347656 L -226.421875 1239.605469 L 614.058594 1239.605469 L 614.058594 -66.914062 L -226.421875 -66.914062 Z M -190.910156 586.035156 L -190.910156 1205.339844 L 577.300781 1205.339844 L 577.300781 -33.269531 L -190.910156 -33.269531 Z M -190.132812 585.878906 L -189.976562 1204.402344 L -153.421875 1204.566406 L -116.871094 1204.726562 L -115.925781 1201.761719 C -113.546875 1194.316406 -106.109375 1167.078125 -105.316406 1162.921875 C -104.832031 1160.378906 -104.246094 1153.953125 -104.015625 1148.640625 C -103.472656 1136.148438 -102.800781 1130.46875 -100.523438 1119.046875 C -97.175781 1102.253906 -91.882812 1083.792969 -86.230469 1069.203125 C -84.289062 1064.195312 -83.734375 1061.8125 -83.40625 1057.054688 C -83.132812 1053.066406 -82.414062 1049.40625 -81.207031 1045.839844 C -78.882812 1038.96875 -77.765625 1033.890625 -76.890625 1026.214844 C -76 1018.359375 -74.535156 1009.425781 -73.675781 1006.589844 C -73.3125 1005.386719 -69.261719 996.769531 -64.675781 987.433594 C -60.085938 978.097656 -56.332031 970.308594 -56.332031 970.117188 C -56.332031 969.699219 -49.335938 957.386719 -44.488281 949.269531 C -42.542969 946.011719 -40.28125 942.085938 -39.460938 940.546875 C -38.640625 939.003906 -36.824219 936.199219 -35.429688 934.316406 C -31.382812 928.847656 -30.191406 926.570312 -29.769531 923.492188 C -29.339844 920.367188 -28.640625 919.769531 -28.074219 922.035156 C -27.144531 925.742188 -17.066406 934.898438 -2.128906 945.609375 C 9.375 953.859375 13.882812 956.171875 31.660156 962.933594 C 39.632812 965.964844 49.242188 969.761719 53.011719 971.371094 C 62.632812 975.476562 66.757812 976.914062 76.375 979.511719 C 81 980.761719 87.273438 982.640625 90.316406 983.683594 C 95.582031 985.492188 95.925781 985.535156 97.5625 984.566406 C 99.242188 983.574219 106.808594 983.546875 126.839844 984.460938 C 129.070312 984.5625 135.238281 984.828125 140.546875 985.050781 C 163.046875 985.992188 168.699219 986.523438 173.75 988.175781 C 181.257812 990.636719 182.503906 990.445312 189.636719 985.742188 C 194.109375 982.792969 196.121094 981.039062 197.167969 979.179688 C 198.371094 977.035156 199.554688 976.160156 204.804688 973.523438 C 214.058594 968.878906 236.554688 956.773438 238.523438 955.378906 C 239.46875 954.710938 242.691406 952.890625 245.6875 951.335938 C 255.539062 946.226562 262.058594 942.324219 261.703125 941.75 C 261.511719 941.4375 261.835938 941.367188 262.421875 941.59375 C 263.203125 941.894531 263.355469 941.78125 262.980469 941.179688 C 262.636719 940.617188 262.710938 940.5 263.21875 940.816406 C 264.027344 941.316406 265.941406 940.066406 265.488281 939.332031 C 265.335938 939.085938 265.554688 938.882812 265.976562 938.882812 C 267.027344 938.882812 272.011719 935.527344 272.011719 934.816406 C 272.011719 934.5 272.21875 934.371094 272.476562 934.53125 C 272.734375 934.6875 272.984375 934.136719 273.035156 933.304688 C 273.085938 932.457031 273.90625 931.183594 274.902344 930.40625 C 277.789062 928.152344 283.277344 922.300781 284.238281 920.453125 C 285.054688 918.875 284.929688 918.46875 283.691406 918.664062 C 283.433594 918.707031 283.222656 918.457031 283.222656 918.117188 C 283.222656 917.773438 282.59375 917.488281 281.824219 917.480469 C 280.082031 917.460938 275.875 915.554688 274.125 913.992188 C 272.484375 912.523438 270.597656 908.921875 271.066406 908.160156 C 271.261719 907.84375 270.851562 907.28125 270.15625 906.910156 C 269.414062 906.511719 268.894531 905.605469 268.894531 904.699219 C 268.894531 903.855469 268.613281 903.164062 268.273438 903.164062 C 267.929688 903.164062 267.648438 901.882812 267.648438 900.316406 C 267.648438 897.753906 267.773438 897.511719 268.894531 897.867188 C 269.597656 898.089844 270.140625 897.980469 270.140625 897.609375 C 270.140625 896.859375 273.984375 894.816406 276.550781 894.199219 C 277.507812 893.96875 278.148438 893.546875 277.972656 893.265625 C 277.796875 892.980469 279.535156 892.238281 281.839844 891.613281 C 284.144531 890.988281 286.398438 890.109375 286.851562 889.65625 C 287.304688 889.203125 288.003906 888.828125 288.410156 888.824219 C 288.878906 888.816406 288.832031 888.617188 288.28125 888.265625 C 287.589844 887.828125 287.671875 887.585938 288.707031 887.03125 C 289.414062 886.652344 290.316406 886.339844 290.703125 886.339844 C 291.09375 886.339844 291.800781 885.953125 292.273438 885.480469 C 292.746094 885.007812 294.410156 884.429688 295.976562 884.195312 C 299.003906 883.742188 301.914062 881.617188 301.914062 879.863281 C 301.914062 878.21875 304.921875 872.722656 306.628906 871.234375 C 307.484375 870.492188 308.046875 869.539062 307.882812 869.109375 C 307.6875 868.597656 307.945312 868.472656 308.644531 868.730469 C 309.5625 869.074219 309.589844 868.988281 308.867188 868.101562 C 308.164062 867.234375 308.1875 866.757812 309.023438 865.085938 C 309.570312 863.992188 310.015625 862.019531 310.015625 860.699219 C 310.015625 859.382812 310.285156 858.304688 310.617188 858.304688 C 310.953125 858.304688 311.054688 857.871094 310.851562 857.339844 C 310.640625 856.789062 310.957031 856.027344 311.589844 855.566406 C 312.199219 855.121094 312.519531 854.464844 312.296875 854.109375 C 312.078125 853.75 312.433594 853.320312 313.089844 853.148438 C 314.089844 852.886719 314.351562 852.023438 314.722656 847.742188 C 314.976562 844.824219 315.53125 842.285156 316.019531 841.796875 C 316.484375 841.332031 316.867188 840.382812 316.867188 839.691406 C 316.867188 839.003906 317.4375 838.039062 318.128906 837.554688 C 318.875 837.03125 319.238281 836.28125 319.019531 835.714844 C 318.816406 835.1875 318.957031 834.566406 319.328125 834.335938 C 319.699219 834.105469 319.863281 833.691406 319.6875 833.410156 C 319.515625 833.128906 319.792969 832.554688 320.300781 832.128906 C 321.085938 831.480469 321.230469 831.621094 321.230469 833.03125 C 321.230469 835.539062 322.191406 834.445312 322.375 831.730469 C 322.539062 829.273438 323.929688 827.152344 325.375 827.152344 C 325.835938 827.152344 326.214844 826.621094 326.214844 825.972656 C 326.214844 825.324219 326.589844 824.648438 327.050781 824.472656 C 327.582031 824.269531 327.785156 823.480469 327.613281 822.300781 C 327.464844 821.28125 327.648438 820.257812 328.023438 820.023438 C 328.460938 819.753906 328.707031 820.285156 328.707031 821.507812 C 328.707031 822.554688 329 823.414062 329.355469 823.414062 C 329.714844 823.414062 329.960938 823.0625 329.90625 822.632812 C 329.675781 820.851562 330.003906 818.785156 330.429688 819.363281 C 330.679688 819.707031 331.308594 819.988281 331.820312 819.988281 C 332.335938 819.988281 332.757812 820.40625 332.757812 820.921875 C 332.757812 821.433594 333.175781 821.855469 333.691406 821.855469 C 334.203125 821.855469 334.625 821.496094 334.625 821.054688 C 334.625 819.882812 336.308594 819.003906 337.175781 819.722656 C 337.671875 820.136719 338.007812 819.976562 338.246094 819.222656 C 338.4375 818.613281 339.042969 816.996094 339.597656 815.625 L 340.597656 813.132812 L 340.34375 819.050781 C 340.203125 822.308594 340.214844 824.296875 340.371094 823.46875 C 340.566406 822.445312 340.8125 822.214844 341.140625 822.746094 C 341.457031 823.257812 342.402344 822.125 343.925781 819.40625 C 345.300781 816.941406 346.5 815.457031 346.910156 815.707031 C 347.320312 815.964844 347.414062 815.839844 347.140625 815.398438 C 346.886719 814.988281 349.28125 809.832031 352.636719 803.585938 C 355.90625 797.488281 359.453125 790.554688 360.519531 788.175781 C 361.585938 785.796875 363.273438 782.097656 364.273438 779.953125 C 365.273438 777.8125 366.089844 775.925781 366.089844 775.765625 C 366.089844 775.601562 366.894531 773.710938 367.875 771.5625 L 371.085938 764.535156 C 371.867188 762.824219 374.261719 757.496094 376.402344 752.699219 C 382.929688 738.066406 386.347656 730.546875 389.367188 724.15625 C 390.957031 720.792969 392.257812 717.917969 392.257812 717.761719 C 392.257812 717.609375 395.792969 710.125 400.113281 701.132812 C 404.433594 692.144531 408.917969 681.949219 410.082031 678.476562 C 412.035156 672.648438 412.195312 671.578125 412.195312 664.382812 C 412.195312 656.96875 412.09375 656.34375 410.082031 651.375 C 408.917969 648.507812 406.523438 643.132812 404.765625 639.4375 C 400.816406 631.15625 395.628906 617.976562 392.582031 608.464844 C 391.316406 604.523438 388.601562 596.113281 386.546875 589.773438 C 385.21875 585.671875 383.890625 581.570312 382.570312 577.46875 C 382.09375 575.9375 384.128906 576.730469 386.957031 579.179688 C 389.972656 581.785156 390.128906 581.847656 396.617188 582.964844 C 402.265625 583.9375 429.113281 583.125 432.113281 581.890625 C 433.300781 581.398438 437.507812 580.179688 441.457031 579.179688 C 448.492188 577.398438 460.320312 573.558594 462.914062 572.214844 C 463.632812 571.839844 464.03125 571.738281 463.800781 571.984375 C 463.570312 572.234375 463.800781 573.839844 464.3125 575.558594 C 464.820312 577.277344 465.09375 578.824219 464.921875 579 C 464.746094 579.171875 465.15625 580.722656 465.832031 582.441406 C 466.511719 584.160156 467.152344 586.335938 467.265625 587.277344 C 467.375 588.21875 467.90625 590.359375 468.441406 592.03125 C 469.378906 594.929688 473.589844 611.425781 474.230469 614.695312 C 474.398438 615.550781 474.6875 616.671875 474.878906 617.1875 C 475.066406 617.699219 475.503906 619.664062 475.847656 621.546875 C 476.195312 623.433594 476.746094 626.375 477.074219 628.089844 C 477.398438 629.804688 477.777344 631.90625 477.914062 632.761719 L 479.101562 640.238281 C 479.621094 643.496094 480.210938 648.261719 480.414062 650.832031 C 480.886719 656.730469 483.050781 664.84375 484.878906 667.542969 C 485.652344 668.683594 486.453125 670.160156 486.664062 670.824219 C 486.875 671.488281 487.269531 671.894531 487.539062 671.730469 C 488.261719 671.28125 490.296875 676.144531 489.863281 677.277344 C 489.65625 677.808594 489.761719 678.246094 490.09375 678.246094 C 491.042969 678.246094 490.800781 685.949219 489.777344 688.398438 C 489.269531 689.613281 487.09375 693.453125 484.945312 696.929688 C 479.757812 705.332031 480.546875 703.839844 471.742188 721.859375 C 467.472656 730.597656 462.011719 741.390625 459.609375 745.84375 C 457.207031 750.300781 452.035156 760.265625 448.121094 767.992188 C 440.386719 783.253906 433.003906 797.171875 430.289062 801.605469 C 429.347656 803.148438 426.101562 808.617188 423.078125 813.757812 C 415.121094 827.292969 412.105469 832.003906 392.382812 861.730469 L 368.828125 897.242188 C 365.644531 902.042969 360.199219 910.171875 356.726562 915.3125 C 349.8125 925.542969 344.664062 934.152344 342.5625 938.988281 C 339.398438 946.277344 334.925781 958.304688 335.15625 958.902344 C 335.292969 959.257812 337.261719 960.238281 339.535156 961.082031 C 344.304688 962.859375 344.378906 963.074219 342.347656 969.257812 C 340.5625 974.707031 339.996094 975.691406 335.289062 981.570312 C 332.28125 985.324219 331.125 987.300781 330.933594 989.003906 C 330.789062 990.277344 330.351562 992.585938 329.953125 994.128906 C 329.558594 995.667969 328.988281 1000.296875 328.6875 1004.40625 C 328.386719 1008.519531 327.824219 1015.667969 327.4375 1020.292969 C 326.597656 1030.371094 326.585938 1027.851562 327.519531 1040.230469 C 328.269531 1050.199219 328.246094 1050.832031 326.683594 1061.027344 C 325.246094 1070.414062 325.164062 1071.835938 325.910156 1074.316406 C 326.617188 1076.664062 326.609375 1077.546875 325.871094 1080.003906 C 325.085938 1082.597656 325.121094 1083.683594 326.195312 1090.074219 C 326.855469 1094.015625 327.832031 1098.46875 328.363281 1099.96875 C 329.5625 1103.351562 329.597656 1106.445312 328.460938 1108.640625 C 327.980469 1109.566406 325.585938 1112.175781 323.132812 1114.441406 L 318.679688 1118.554688 L 319.097656 1124.40625 C 319.328125 1127.628906 320.066406 1131.804688 320.746094 1133.6875 C 323.570312 1141.554688 324.417969 1144.828125 325.644531 1152.605469 C 327.402344 1163.75 327.382812 1173.3125 325.597656 1178.074219 C 324.285156 1181.585938 320.28125 1187.5 317.394531 1190.191406 C 316.011719 1191.476562 315.945312 1191.90625 316.128906 1198.132812 L 316.328125 1204.71875 L 446.347656 1204.5625 L 576.367188 1204.402344 L 576.523438 585.878906 L 576.683594 -32.644531 L -190.289062 -32.644531 Z M 167.960938 10.757812 C 167.960938 11.421875 163.023438 12.835938 160.722656 12.835938 C 159.46875 12.835938 157.542969 14.6875 158.726562 14.75 C 160.941406 14.867188 156.632812 15.867188 153.75 15.90625 C 151.714844 15.933594 150.589844 16.191406 150.828125 16.574219 C 151.039062 16.917969 150.765625 17.199219 150.21875 17.199219 C 149.199219 17.199219 146.5 18.734375 145.003906 20.167969 C 144.539062 20.609375 143.226562 21.363281 142.082031 21.839844 C 139.21875 23.035156 133.386719 27.316406 129.644531 30.972656 C 127.929688 32.644531 124.988281 35.320312 123.101562 36.917969 C 119.523438 39.953125 117.984375 42.019531 118.582031 42.984375 C 118.773438 43.300781 118.65625 43.386719 118.3125 43.175781 C 117.675781 42.78125 114.59375 46.421875 114.855469 47.257812 C 114.9375 47.515625 114.605469 47.726562 114.121094 47.726562 C 112.847656 47.726562 108.796875 52.625 106.367188 57.105469 C 105.21875 59.230469 104.582031 60.777344 104.960938 60.546875 C 105.386719 60.28125 105.503906 60.480469 105.273438 61.085938 C 105.070312 61.617188 104.652344 61.894531 104.347656 61.703125 C 103.753906 61.339844 103.511719 62.664062 103.722656 65.074219 C 103.800781 65.949219 103.59375 66.371094 103.207031 66.128906 C 102.816406 65.890625 102.703125 66.117188 102.925781 66.695312 C 103.148438 67.269531 102.550781 68.511719 101.445312 69.769531 C 99.636719 71.828125 98.367188 75.796875 99.121094 77.019531 C 99.332031 77.355469 99.273438 77.632812 98.996094 77.632812 C 98.71875 77.632812 98.449219 78.351562 98.398438 79.234375 C 98.339844 80.273438 98.578125 80.730469 99.078125 80.535156 C 100.125 80.132812 98.839844 85.160156 97.65625 86.082031 C 96.714844 86.816406 97.21875 87.839844 101.246094 93.386719 C 103.078125 95.914062 103.679688 96.324219 105.539062 96.324219 L 107.699219 96.324219 L 107.363281 100.21875 L 107.023438 104.113281 L 108.488281 99.816406 C 109.292969 97.453125 110.253906 95.214844 110.625 94.84375 C 111.058594 94.410156 115.886719 94.144531 124.210938 94.097656 C 137.726562 94.023438 141.277344 93.480469 146.910156 90.636719 C 149.75 89.203125 153.632812 89.0625 153.632812 90.390625 C 153.632812 91.457031 158.21875 93.996094 158.949219 93.335938 C 159.21875 93.09375 159.238281 93.246094 158.992188 93.675781 C 158.710938 94.164062 158.921875 94.453125 159.550781 94.453125 C 160.105469 94.453125 160.402344 94.707031 160.210938 95.019531 C 160.019531 95.328125 161.261719 96.84375 162.976562 98.386719 C 164.691406 99.925781 166.09375 101.542969 166.09375 101.976562 C 166.09375 102.410156 166.558594 103.28125 167.125 103.90625 C 167.796875 104.648438 167.890625 105.046875 167.398438 105.046875 C 166.980469 105.046875 166.789062 105.289062 166.972656 105.582031 C 167.15625 105.878906 165.003906 106.054688 162.191406 105.972656 C 157.550781 105.84375 156.882812 105.976562 154.996094 107.414062 C 153.5625 108.507812 153.015625 109.363281 153.226562 110.175781 C 153.476562 111.125 153.367188 111.210938 152.65625 110.621094 C 151.96875 110.046875 151.695312 110.109375 151.390625 110.894531 C 151.179688 111.449219 150.617188 111.898438 150.136719 111.898438 C 149.566406 111.898438 149.269531 112.621094 149.269531 114.015625 C 149.269531 115.316406 148.914062 116.265625 148.335938 116.488281 C 147.820312 116.683594 147.402344 117.273438 147.402344 117.800781 C 147.402344 118.324219 147.113281 118.753906 146.765625 118.753906 C 146.414062 118.753906 145.804688 119.46875 145.40625 120.339844 C 145.007812 121.214844 142.640625 124.035156 140.148438 126.609375 C 137.503906 129.34375 134.902344 132.765625 133.898438 134.835938 C 132.957031 136.785156 131.796875 138.675781 131.320312 139.039062 C 130.226562 139.871094 128.710938 145.207031 127.96875 150.839844 C 127.652344 153.238281 127.070312 156.042969 126.679688 157.070312 C 125.144531 161.09375 126.402344 167.105469 129.371094 169.925781 C 129.863281 170.394531 131.5 170.804688 133.011719 170.839844 C 136.441406 170.914062 137.335938 172 136.855469 175.507812 C 136.492188 178.175781 136.152344 178.519531 132.585938 179.84375 C 129.957031 180.816406 130.515625 181.351562 133.941406 181.140625 C 136.921875 180.957031 139.007812 182.339844 138.402344 184.097656 C 138.210938 184.652344 138.636719 184.335938 139.351562 183.394531 C 140.066406 182.453125 141.207031 181.679688 141.890625 181.679688 C 143.410156 181.679688 144.910156 183.09375 144.910156 184.523438 C 144.910156 185.339844 145.210938 185.203125 146.199219 183.945312 C 148.523438 180.992188 150.621094 182.355469 150.75 186.90625 C 150.824219 189.464844 150.925781 189.621094 152.386719 189.359375 C 153.242188 189.207031 154.210938 188.820312 154.535156 188.496094 C 154.859375 188.175781 155.289062 187.910156 155.488281 187.910156 C 156.011719 187.910156 155.804688 190.929688 155.242188 191.488281 C 154.628906 192.101562 150.515625 192.105469 150.515625 191.492188 C 150.515625 191.234375 150.109375 191.027344 149.609375 191.027344 C 147.738281 191.027344 145.488281 189.511719 145.109375 187.996094 L 144.714844 186.425781 L 144.183594 187.855469 C 143.757812 189.007812 143.34375 189.210938 142.082031 188.894531 C 141.214844 188.679688 138.113281 188.359375 135.1875 188.191406 C 132.261719 188.019531 129.675781 187.855469 129.445312 187.824219 C 128.089844 187.632812 123.601562 188.105469 124.503906 188.339844 C 125.105469 188.496094 125.59375 188.992188 125.59375 189.4375 C 125.59375 190.035156 127.550781 190.382812 132.914062 190.738281 C 137.746094 191.058594 139.707031 191.378906 138.679688 191.6875 C 137.820312 191.941406 137.402344 192.179688 137.742188 192.21875 C 138.085938 192.257812 137.945312 192.5625 137.433594 192.894531 C 136.65625 193.398438 136.707031 193.507812 137.742188 193.550781 L 138.988281 193.605469 L 137.742188 194.140625 C 137.058594 194.4375 136.867188 194.695312 137.320312 194.71875 C 137.863281 194.75 138 195.203125 137.726562 196.066406 C 136.898438 198.675781 137.34375 203.546875 138.613281 205.695312 C 139.300781 206.859375 140.046875 208.792969 140.269531 209.992188 C 140.617188 211.835938 140.378906 212.554688 138.746094 214.617188 C 137.679688 215.960938 136.808594 217.410156 136.808594 217.839844 C 136.808594 218.265625 136.402344 218.925781 135.902344 219.304688 C 134.992188 220 133.246094 226.878906 132.640625 232.164062 C 132.285156 235.242188 132.011719 234.953125 137.640625 237.433594 C 138.953125 238.011719 141.378906 239.792969 143.03125 241.390625 C 146.453125 244.703125 148.523438 246.476562 148.964844 246.476562 C 149.132812 246.476562 149.761719 246.894531 150.359375 247.40625 C 158.386719 254.238281 159.597656 255.90625 158.964844 259.277344 C 158.683594 260.761719 158.929688 261.914062 159.839844 263.40625 C 160.535156 264.546875 161.105469 266.554688 161.105469 267.871094 C 161.109375 269.941406 161.351562 270.351562 162.941406 270.953125 C 164.003906 271.351562 164.925781 272.246094 165.132812 273.078125 C 165.332031 273.867188 165.769531 274.515625 166.105469 274.515625 C 166.441406 274.515625 166.714844 274.910156 166.714844 275.398438 C 166.714844 275.882812 166.925781 276.371094 167.183594 276.488281 C 168.359375 277.007812 171.019531 283.296875 171.535156 286.785156 C 172.019531 290.03125 171.929688 291.039062 170.964844 293.140625 C 170.335938 294.515625 169.472656 295.863281 169.046875 296.136719 C 167.65625 297.027344 167.972656 298.8125 169.523438 298.8125 C 170.304688 298.8125 171.109375 299.25 171.316406 299.78125 C 171.628906 300.59375 172.058594 300.472656 173.960938 299.019531 C 175.839844 297.589844 177.007812 297.242188 180.664062 297.03125 C 184.359375 296.824219 184.835938 296.679688 183.539062 296.167969 L 181.980469 295.554688 L 183.847656 294.921875 C 186.933594 293.878906 187.898438 292.648438 187.898438 289.777344 C 187.898438 287.957031 188.277344 286.824219 189.144531 286.039062 C 189.832031 285.421875 190.390625 284.578125 190.390625 284.167969 C 190.390625 283.761719 190.953125 282.78125 191.636719 281.988281 C 192.324219 281.199219 192.882812 280.246094 192.882812 279.871094 C 192.882812 279.496094 194.25 278.007812 195.921875 276.570312 C 199.234375 273.71875 204.917969 271.371094 207.378906 271.839844 C 208.234375 272.003906 209.136719 271.8125 209.382812 271.417969 C 209.699219 270.902344 210.199219 271.019531 211.121094 271.824219 C 211.832031 272.445312 212.21875 272.625 211.984375 272.21875 C 211.746094 271.816406 211.816406 271.324219 212.132812 271.125 C 213.160156 270.492188 212.445312 272.792969 211.371094 273.578125 C 210.796875 273.996094 210.328125 274.675781 210.328125 275.085938 C 210.328125 275.496094 210.046875 275.660156 209.699219 275.445312 C 209.355469 275.234375 208.898438 275.566406 208.679688 276.1875 C 208.464844 276.808594 206.714844 279 204.792969 281.054688 C 202.875 283.113281 204.160156 282.011719 207.652344 278.605469 C 211.144531 275.203125 213.855469 272.183594 213.675781 271.894531 C 213.496094 271.605469 213.597656 271.445312 213.902344 271.539062 C 214.515625 271.730469 226.636719 260.625 235.898438 251.390625 C 242.898438 244.40625 254.679688 231.429688 254.332031 231.085938 C 254.203125 230.953125 251.65625 231.148438 248.671875 231.519531 C 245 231.976562 242.511719 232.65625 240.964844 233.625 C 239.707031 234.410156 238.019531 235.222656 237.210938 235.425781 L 235.75 235.800781 L 236.050781 230.703125 C 236.21875 227.898438 236.960938 223.503906 237.703125 220.933594 C 238.441406 218.363281 239.320312 214.996094 239.65625 213.457031 C 240.585938 209.160156 240.585938 209.160156 241.046875 208.695312 C 241.285156 208.457031 241.480469 207.75 241.480469 207.121094 C 241.480469 206.492188 241.738281 205.980469 242.054688 205.980469 C 242.371094 205.980469 242.824219 205.066406 243.066406 203.953125 C 243.308594 202.839844 244.433594 200.203125 245.566406 198.097656 C 246.699219 195.988281 247.460938 194.097656 247.253906 193.890625 C 247.046875 193.6875 247.785156 193.519531 248.890625 193.519531 C 254.058594 193.519531 256.152344 192.375 262.425781 186.128906 C 265.738281 182.824219 268.15625 180.683594 267.792969 181.367188 C 266.402344 184.003906 256.597656 192.894531 254.652344 193.28125 C 252.128906 193.789062 251.753906 194.316406 250.527344 199.125 C 249.957031 201.351562 248.25 206.621094 246.734375 210.832031 C 245.214844 215.042969 243.972656 219.058594 243.972656 219.757812 C 243.972656 221.023438 243.980469 221.023438 245.6875 219.703125 C 246.628906 218.972656 249.320312 217.015625 251.671875 215.347656 C 257.050781 211.535156 258.417969 209.59375 261.144531 201.894531 C 262.351562 198.488281 263.847656 194.578125 264.46875 193.207031 C 265.667969 190.5625 268.390625 182.023438 268.550781 180.40625 C 268.601562 179.875 269.648438 177.632812 270.878906 175.421875 C 275.953125 166.28125 275.695312 157.347656 269.925781 142.734375 C 267.90625 137.609375 267.84375 137.277344 269.207031 138.84375 C 270.027344 139.785156 271.75 143.710938 273.03125 147.566406 C 275.074219 153.714844 275.359375 155.308594 275.351562 160.496094 L 275.339844 166.414062 L 276.164062 163.300781 C 277.347656 158.820312 278.753906 146.796875 278.136719 146.414062 C 277.851562 146.238281 277.617188 145.8125 277.617188 145.46875 C 277.617188 145.128906 277.929688 145.042969 278.3125 145.277344 C 278.796875 145.574219 278.9375 144.933594 278.769531 143.1875 C 278.636719 141.800781 278.714844 140.777344 278.941406 140.917969 C 279.441406 141.230469 280.042969 137.878906 280.457031 132.460938 C 280.625 130.234375 280.988281 127.289062 281.265625 125.917969 C 281.539062 124.546875 281.675781 120.902344 281.566406 117.820312 C 281.460938 114.734375 281.417969 111.230469 281.476562 110.03125 C 281.535156 108.832031 281.601562 105.84375 281.625 103.390625 C 281.648438 100.941406 281.90625 99.082031 282.199219 99.265625 C 282.496094 99.445312 282.519531 98.929688 282.257812 98.113281 C 281.996094 97.300781 281.855469 95.09375 281.949219 93.207031 C 282.039062 91.324219 282.113281 89.152344 282.113281 88.382812 C 282.113281 87.570312 282.382812 87.152344 282.761719 87.390625 C 283.433594 87.804688 283.035156 83.851562 282.183594 81.632812 C 281.941406 80.996094 282.015625 80.699219 282.367188 80.914062 C 282.695312 81.117188 283.011719 80.675781 283.066406 79.933594 C 283.152344 78.828125 283.050781 78.75 282.519531 79.507812 C 282.007812 80.242188 281.933594 80.140625 282.175781 79.035156 C 282.347656 78.261719 282.257812 77.632812 281.976562 77.632812 C 281.699219 77.632812 281.792969 76.953125 282.183594 76.128906 C 282.574219 75.300781 283.136719 74.773438 283.433594 74.957031 C 283.730469 75.140625 283.699219 74.765625 283.371094 74.125 C 283.039062 73.484375 282.886719 72.632812 283.03125 72.234375 C 283.175781 71.835938 282.085938 70.675781 280.609375 69.65625 C 279.136719 68.636719 276.949219 66.6875 275.746094 65.320312 C 274.546875 63.953125 272.445312 62.222656 271.074219 61.476562 C 269.703125 60.726562 269.089844 60.265625 269.707031 60.453125 C 270.398438 60.664062 270.671875 60.542969 270.421875 60.136719 C 270.199219 59.773438 269.605469 59.636719 269.109375 59.828125 C 268.609375 60.019531 267.195312 59.753906 265.960938 59.238281 C 263.839844 58.351562 261.566406 57.785156 258.492188 57.371094 C 256.28125 57.078125 255.777344 56.488281 256.207031 54.699219 C 256.429688 53.777344 256.394531 53.21875 256.136719 53.460938 C 255.484375 54.058594 254.363281 52.800781 253.359375 50.34375 C 252.894531 49.210938 252.1875 48.410156 251.78125 48.566406 C 251.011719 48.863281 250.972656 47.5 251.703125 45.796875 C 251.9375 45.25 252 44.085938 251.84375 43.203125 C 251.1875 39.589844 248.765625 36.511719 242.507812 31.339844 C 237.34375 27.074219 232.738281 24.6875 229.644531 24.679688 C 227.21875 24.671875 220.117188 21.554688 217.988281 19.5625 C 217.234375 18.855469 215.910156 18.199219 215.050781 18.105469 C 213.027344 17.882812 207.117188 15.957031 206.171875 15.210938 C 204.515625 13.902344 199.261719 12.390625 198.277344 12.941406 C 197.597656 13.324219 196.332031 13.074219 194.351562 12.171875 C 190.953125 10.625 187.5625 10.242188 176.21875 10.121094 C 170.292969 10.058594 167.964844 10.238281 167.960938 10.757812 M 162.976562 46.921875 C 162.976562 47.28125 163.46875 47.957031 164.066406 48.429688 C 165.078125 49.21875 165.089844 49.191406 164.242188 48.039062 C 163.742188 47.351562 163.25 46.675781 163.152344 46.53125 C 163.054688 46.390625 162.976562 46.566406 162.976562 46.921875 M 248.800781 48.761719 C 249.230469 48.933594 249.582031 49.472656 249.582031 49.957031 C 249.582031 50.445312 249.699219 50.839844 249.839844 50.839844 C 249.984375 50.839844 250.613281 51.027344 251.242188 51.253906 C 252.160156 51.585938 252.089844 51.339844 250.875 50.007812 C 250.042969 49.09375 249.0625 48.371094 248.691406 48.398438 C 248.324219 48.425781 248.375 48.589844 248.800781 48.761719 M 277.136719 64.90625 C 277.726562 65.527344 278.382812 65.859375 278.589844 65.652344 C 278.800781 65.441406 278.316406 64.9375 277.515625 64.527344 C 276.125 63.8125 276.105469 63.828125 277.136719 64.90625 M 270.6875 66.339844 C 271.328125 66.980469 271.992188 67.894531 272.15625 68.363281 C 272.324219 68.835938 272.644531 69.054688 272.867188 68.847656 C 273.355469 68.402344 270.917969 65.171875 270.09375 65.171875 C 269.777344 65.171875 270.042969 65.699219 270.6875 66.339844 M 281.722656 73.582031 C 282.082031 74.605469 282.011719 74.691406 281.324219 74.050781 C 280.015625 72.835938 279.367188 73.132812 280.148438 74.589844 C 280.796875 75.800781 280.933594 75.828125 281.855469 74.90625 C 282.664062 74.097656 282.707031 73.75 282.070312 73.121094 C 281.433594 72.488281 281.367188 72.578125 281.722656 73.582031 M 155.152344 90.992188 C 155.816406 91.527344 156.636719 91.960938 156.96875 91.960938 C 157.761719 91.960938 157.40625 91.675781 155.5 90.765625 C 154.03125 90.066406 154.011719 90.078125 155.152344 90.992188 M 135.230469 98.164062 C 133.542969 98.847656 132.261719 100.453125 132.617188 101.441406 C 132.773438 101.882812 132.613281 102.804688 132.261719 103.488281 C 131.6875 104.609375 131.726562 104.648438 132.671875 103.867188 C 133.601562 103.101562 133.675781 103.136719 133.304688 104.179688 C 133.046875 104.914062 133.863281 104.429688 135.472656 102.894531 C 138.027344 100.460938 139.074219 98.992188 136.964844 100.804688 C 135.277344 102.257812 133.835938 102.578125 133.457031 101.585938 C 133.269531 101.097656 133.316406 100.730469 133.5625 100.765625 C 135.042969 100.988281 135.960938 100.492188 136.59375 99.121094 C 137.363281 97.464844 137.214844 97.359375 135.230469 98.164062 M 134.628906 99.4375 C 134.417969 99.78125 134.542969 100.0625 134.902344 100.0625 C 135.265625 100.0625 135.5625 99.78125 135.5625 99.4375 C 135.5625 99.097656 135.441406 98.816406 135.289062 98.816406 C 135.136719 98.816406 134.839844 99.097656 134.628906 99.4375 M 156.667969 107.382812 C 155.894531 108.371094 155.914062 108.394531 156.902344 107.617188 C 157.941406 106.804688 158.269531 106.292969 157.757812 106.292969 C 157.628906 106.292969 157.136719 106.785156 156.667969 107.382812 M 153.941406 109.40625 C 153.730469 109.75 154.152344 110.03125 154.878906 110.03125 C 155.605469 110.03125 156.023438 109.75 155.8125 109.40625 C 155.601562 109.066406 155.179688 108.785156 154.878906 108.785156 C 154.574219 108.785156 154.15625 109.066406 153.941406 109.40625 M 104.722656 111.804688 C 103.398438 113.5625 101.296875 117.878906 101.296875 118.847656 C 101.296875 119.816406 103.410156 119.148438 104.503906 117.828125 C 105.066406 117.148438 105.441406 116.128906 105.332031 115.5625 C 105.191406 114.832031 105.464844 114.621094 106.285156 114.835938 C 107.132812 115.058594 107.386719 114.835938 107.25 113.984375 C 107.148438 113.339844 106.601562 112.875 106.011719 112.925781 C 105.425781 112.980469 105.132812 112.839844 105.355469 112.617188 C 105.578125 112.394531 106.410156 112.199219 107.207031 112.183594 C 108.308594 112.160156 108.597656 112.441406 108.417969 113.363281 C 108.074219 115.15625 108.675781 115.707031 110.046875 114.851562 C 111.410156 114 111.683594 112.535156 110.484375 112.496094 C 110.058594 112.484375 110.476562 112.054688 111.421875 111.542969 C 112.363281 111.03125 113.132812 110.472656 113.132812 110.300781 C 113.132812 110.128906 112.59375 110.277344 111.933594 110.628906 C 110.625 111.332031 107.582031 111.316406 106.59375 110.601562 C 106.25 110.355469 105.410156 110.894531 104.722656 111.804688 M 114.136719 111.007812 C 113.957031 111.480469 114.238281 112.292969 114.761719 112.816406 C 115.285156 113.339844 115.449219 113.769531 115.125 113.769531 C 114.800781 113.769531 114.183594 113.347656 113.757812 112.835938 C 113.332031 112.320312 112.699219 111.898438 112.359375 111.898438 C 111.976562 111.898438 112.003906 112.222656 112.425781 112.734375 C 112.960938 113.375 112.765625 113.753906 111.570312 114.394531 C 110.714844 114.851562 110.019531 115.398438 110.019531 115.609375 C 110.019531 115.816406 111.308594 116.371094 112.882812 116.835938 C 115.363281 117.566406 116.015625 117.550781 117.742188 116.730469 C 119.316406 115.980469 119.730469 115.402344 119.707031 113.996094 C 119.691406 113.015625 119.496094 112.351562 119.273438 112.523438 C 119.054688 112.695312 118.269531 112.289062 117.53125 111.621094 C 115.871094 110.117188 114.570312 109.882812 114.136719 111.007812 M 120.074219 111.503906 C 120.515625 112.484375 120.988281 112.949219 121.125 112.53125 C 121.265625 112.117188 120.90625 111.3125 120.328125 110.75 C 119.34375 109.785156 119.328125 109.832031 120.074219 111.503906 M 102.949219 115.929688 C 102.484375 117.132812 103.695312 117.847656 104.621094 116.917969 C 105.175781 116.359375 105.085938 116.285156 104.25 116.605469 C 103.414062 116.921875 103.242188 116.78125 103.535156 116.019531 C 103.75 115.464844 103.78125 115.015625 103.609375 115.015625 C 103.4375 115.015625 103.140625 115.425781 102.949219 115.929688 M 164.855469 115.785156 C 164.851562 116.394531 163.964844 117.269531 162.820312 117.792969 C 161.707031 118.300781 160.097656 119.207031 159.238281 119.804688 L 157.679688 120.890625 L 158.867188 119.511719 C 160.128906 118.042969 159.554688 117.660156 157.992188 118.929688 C 157.148438 119.613281 156.503906 121.867188 157.148438 121.867188 C 157.636719 121.867188 160.789062 119.726562 161.230469 119.097656 C 161.46875 118.757812 161.832031 118.648438 162.039062 118.851562 C 162.246094 119.058594 161.25 120.222656 159.828125 121.441406 C 158.40625 122.65625 157.429688 123.953125 157.65625 124.320312 C 157.882812 124.6875 157.164062 126.246094 156.058594 127.789062 C 153.8125 130.910156 153.886719 132.023438 156.183594 129.761719 C 158.820312 127.171875 161.265625 125.9375 164.5 125.566406 C 167.441406 125.230469 167.546875 125.160156 166.09375 124.511719 C 164.910156 123.984375 164.804688 123.808594 165.664062 123.777344 C 166.28125 123.753906 166.617188 123.457031 166.402344 123.113281 C 166.191406 122.773438 166.316406 122.492188 166.679688 122.492188 C 167.042969 122.492188 167.339844 122.25 167.339844 121.953125 C 167.339844 121.054688 162.996094 121.835938 160.265625 123.226562 C 158.34375 124.207031 157.898438 124.289062 158.511719 123.550781 C 159.433594 122.445312 163.785156 120.921875 167.804688 120.300781 C 169.28125 120.070312 170.453125 119.546875 170.453125 119.113281 C 170.453125 118.6875 171.132812 117.976562 171.960938 117.535156 C 174.121094 116.378906 172.804688 115.261719 169.082031 115.089844 C 166.980469 114.992188 166.089844 115.195312 166.082031 115.761719 C 166.078125 116.34375 165.902344 116.308594 165.46875 115.636719 C 164.953125 114.839844 164.863281 114.859375 164.855469 115.785156 M 111.589844 123.164062 C 108.011719 123.777344 104.390625 127.921875 104.519531 131.257812 C 104.570312 132.570312 104.265625 134.0625 103.84375 134.574219 C 102.570312 136.109375 107.46875 137.125 111.859375 136.238281 C 113.757812 135.851562 117.65625 135.429688 120.523438 135.300781 C 123.386719 135.171875 126.035156 134.757812 126.410156 134.386719 C 126.902344 133.894531 126.753906 133.6875 125.875 133.632812 C 124.160156 133.527344 124.335938 133.515625 121.078125 133.980469 C 118.261719 134.386719 118.117188 134.335938 118.117188 132.929688 C 118.117188 132.117188 118.496094 130.933594 118.960938 130.300781 C 119.765625 129.199219 119.976562 129.238281 123.949219 131.171875 C 126.558594 132.441406 127.945312 133.457031 127.6875 133.914062 C 127.382812 134.457031 127.476562 134.460938 128.046875 133.933594 C 129.742188 132.371094 125.691406 127.582031 120.371094 124.855469 C 116.957031 123.109375 114.582031 122.648438 111.589844 123.164062 M 108.460938 125.242188 C 106.136719 127.109375 106.5625 127.640625 109.6875 126.777344 C 111.011719 126.414062 112.957031 126.277344 114.015625 126.472656 C 115.851562 126.816406 115.882812 126.789062 114.691406 125.867188 C 113.964844 125.304688 112.613281 124.996094 111.453125 125.125 C 109.875 125.300781 109.597656 125.179688 110.125 124.542969 C 111.136719 123.324219 110.539062 123.574219 108.460938 125.242188 M 105.96875 128.722656 C 105.757812 129.066406 105.863281 129.34375 106.207031 129.34375 C 106.550781 129.34375 107.003906 129.066406 107.214844 128.722656 C 107.425781 128.378906 107.320312 128.097656 106.976562 128.097656 C 106.632812 128.097656 106.179688 128.378906 105.96875 128.722656 M 124.972656 128.957031 C 124.972656 129.085938 125.460938 129.578125 126.0625 130.046875 C 127.050781 130.820312 127.070312 130.800781 126.296875 129.8125 C 125.484375 128.773438 124.972656 128.445312 124.972656 128.957031 M 160.441406 129.46875 C 159.347656 130.375 157.371094 133.394531 157.371094 134.15625 C 157.371094 134.425781 158.488281 134.996094 159.851562 135.425781 C 163.246094 136.484375 163.945312 136.429688 162.917969 135.195312 C 162.460938 134.640625 161.933594 132.945312 161.75 131.425781 C 161.460938 129 161.300781 128.757812 160.441406 129.46875 M 112.316406 129.746094 C 112.082031 129.980469 111.886719 130.828125 111.886719 131.628906 C 111.886719 133.3125 113.421875 133.605469 114.023438 132.039062 C 114.453125 130.921875 113.039062 129.023438 112.316406 129.746094 M 163.335938 130.382812 C 162.867188 131.605469 163.820312 132.785156 164.792969 132.183594 C 165.773438 131.574219 165.625 129.34375 164.601562 129.34375 C 164.125 129.34375 163.554688 129.8125 163.335938 130.382812 M 171.402344 131.203125 C 171.132812 132.398438 170.496094 134.011719 169.988281 134.789062 C 169.105469 136.136719 169.140625 136.199219 170.769531 136.199219 C 172.085938 136.199219 172.324219 136.015625 171.8125 135.398438 C 171.105469 134.546875 171.539062 133.433594 172.734375 133.019531 C 173.277344 132.832031 173.265625 132.304688 172.675781 130.902344 L 171.890625 129.035156 Z M 110.039062 131.527344 C 110.039062 131.867188 110.308594 132.570312 110.640625 133.082031 C 110.972656 133.597656 111.246094 133.738281 111.246094 133.394531 C 111.246094 133.050781 110.972656 132.351562 110.640625 131.835938 C 110.308594 131.324219 110.039062 131.183594 110.039062 131.527344 M 108.5625 133.199219 C 108.148438 134.773438 108.519531 135.574219 109.65625 135.574219 C 110.1875 135.574219 110.363281 135.035156 110.167969 134.007812 C 109.769531 131.921875 108.996094 131.53125 108.5625 133.199219 M 278.863281 133.082031 C 278.863281 133.425781 279.160156 133.707031 279.523438 133.707031 C 279.886719 133.707031 280.007812 133.425781 279.796875 133.082031 C 279.585938 132.742188 279.289062 132.460938 279.136719 132.460938 C 278.988281 132.460938 278.863281 132.742188 278.863281 133.082031 M 172.011719 134.328125 C 171.800781 134.671875 171.921875 134.953125 172.285156 134.953125 C 172.648438 134.953125 172.945312 134.671875 172.945312 134.328125 C 172.945312 133.988281 172.824219 133.707031 172.671875 133.707031 C 172.519531 133.707031 172.222656 133.988281 172.011719 134.328125 M 155.359375 137.179688 C 155.679688 138.871094 159.757812 142.804688 162.117188 143.703125 C 164.53125 144.621094 166.289062 144.460938 165.867188 143.363281 C 165.394531 142.132812 166.058594 140.464844 166.828125 140.941406 C 167.183594 141.160156 167.347656 140.574219 167.230469 139.535156 C 167.03125 137.804688 166.882812 137.734375 161.816406 137.015625 C 158.953125 136.609375 156.261719 136.144531 155.839844 135.984375 C 155.320312 135.785156 155.164062 136.171875 155.359375 137.179688 M 159.394531 146.578125 C 158.96875 146.753906 158.617188 147.5625 158.617188 148.378906 C 158.617188 149.199219 158.027344 150.910156 157.3125 152.1875 C 156.109375 154.328125 156.082031 154.660156 156.9375 156.460938 C 159.148438 161.09375 162.609375 165.613281 166.773438 169.304688 C 172.644531 174.511719 174.269531 177.132812 174.664062 182.035156 C 174.929688 185.328125 174.722656 186.429688 173.269531 189.550781 C 172.332031 191.5625 171.152344 194.160156 170.648438 195.328125 L 169.734375 197.449219 L 171.652344 195.53125 C 176.441406 190.742188 177.550781 183.34375 174.445312 176.886719 C 172.28125 172.386719 172.429688 170.472656 175.28125 166.15625 C 177.195312 163.261719 177.574219 162.070312 177.964844 157.746094 C 178.429688 152.539062 178.050781 151.160156 176.140625 151.140625 C 175.257812 151.132812 175.25 151.054688 176.0625 150.527344 C 176.757812 150.078125 176.410156 149.921875 174.691406 149.914062 C 171.273438 149.902344 166.136719 148.667969 163.960938 147.339844 C 162.050781 146.175781 160.878906 145.980469 159.394531 146.578125 M 138.5625 161.546875 C 139.011719 161.726562 139.550781 161.703125 139.757812 161.496094 C 139.964844 161.289062 139.59375 161.140625 138.9375 161.167969 C 138.210938 161.199219 138.066406 161.347656 138.5625 161.546875 M 116.871094 163.226562 C 116.871094 163.355469 117.363281 163.84375 117.960938 164.316406 C 118.949219 165.089844 118.972656 165.066406 118.199219 164.078125 C 117.382812 163.042969 116.871094 162.710938 116.871094 163.226562 M 110.382812 170.933594 C 110.125 171.191406 109.613281 171.398438 109.242188 171.398438 C 107.140625 171.398438 105.519531 179.601562 106.679688 184.34375 C 107.109375 186.09375 107.21875 185.789062 107.539062 181.992188 C 107.769531 179.25 108.515625 176.300781 109.550781 174.046875 C 111.171875 170.523438 111.308594 170.007812 110.382812 170.933594 M 170.886719 179.8125 C 170.0625 181.929688 169.273438 185.644531 169.554688 186.097656 C 169.71875 186.363281 168.875 188.359375 167.679688 190.535156 C 165.59375 194.332031 165.554688 194.515625 166.699219 195.230469 C 167.703125 195.859375 167.949219 195.78125 168.28125 194.738281 C 168.511719 194.019531 168.980469 193.675781 169.410156 193.921875 C 169.8125 194.152344 169.949219 194.128906 169.71875 193.867188 C 169.484375 193.609375 169.898438 192.230469 170.640625 190.808594 C 171.457031 189.246094 172.015625 186.988281 172.050781 185.105469 C 172.121094 181.4375 171.445312 178.371094 170.886719 179.8125 M 119.261719 181.632812 C 119.144531 181.949219 118.640625 182.300781 118.140625 182.414062 C 117.636719 182.523438 116.753906 183.171875 116.175781 183.855469 C 115.59375 184.539062 114.609375 185.101562 113.988281 185.101562 C 112.386719 185.109375 111.375 188.191406 112.425781 189.875 C 112.867188 190.578125 112.925781 190.96875 112.558594 190.742188 C 112.191406 190.515625 111.886719 190.625 111.886719 190.988281 C 111.886719 191.351562 112.464844 191.648438 113.171875 191.648438 C 113.875 191.648438 114.320312 191.863281 114.15625 192.128906 C 113.996094 192.390625 114.960938 192.503906 116.300781 192.375 C 117.644531 192.246094 118.742188 191.890625 118.742188 191.582031 C 118.742188 191.277344 118.460938 191.027344 118.117188 191.027344 C 117.777344 191.027344 117.496094 190.347656 117.496094 189.519531 C 117.496094 188.691406 117.175781 187.90625 116.785156 187.777344 C 115.871094 187.472656 117.003906 185.171875 119.246094 182.769531 C 120.125 181.828125 120.535156 181.058594 120.15625 181.058594 C 119.777344 181.058594 119.375 181.316406 119.261719 181.632812 M 161.730469 269.53125 C 161.730469 269.871094 162.027344 270.152344 162.390625 270.152344 C 162.753906 270.152344 162.878906 269.871094 162.664062 269.53125 C 162.453125 269.1875 162.15625 268.90625 162.007812 268.90625 C 161.855469 268.90625 161.730469 269.1875 161.730469 269.53125 M 138.730469 277.121094 C 138.703125 278.039062 139.078125 280.703125 139.5625 283.039062 C 140.410156 287.113281 140.425781 291.410156 139.664062 307.523438 C 139.449219 312.058594 139.527344 312.601562 140.203125 311.339844 C 140.941406 309.957031 141.074219 310.175781 142.285156 314.773438 C 143 317.476562 143.773438 322.128906 144.007812 325.117188 C 144.257812 328.324219 144.796875 331 145.328125 331.65625 C 146.152344 332.675781 146.171875 332.65625 145.566406 331.402344 C 144.882812 329.992188 145.433594 329.101562 146.527344 329.851562 C 147.175781 330.289062 149.269531 334.457031 149.269531 335.304688 C 149.269531 335.570312 149.667969 336.226562 150.15625 336.769531 C 150.644531 337.308594 151.132812 338.171875 151.246094 338.6875 C 151.359375 339.199219 151.730469 339.828125 152.074219 340.078125 C 152.453125 340.359375 152.378906 340.539062 151.882812 340.546875 C 151.433594 340.550781 151.242188 340.839844 151.457031 341.1875 C 151.671875 341.539062 152.152344 341.632812 152.523438 341.40625 C 152.929688 341.15625 153.023438 341.277344 152.757812 341.707031 C 151.875 343.132812 153.074219 343.773438 154.664062 342.730469 L 156.207031 341.71875 L 155.140625 343.347656 C 154.3125 344.609375 154.269531 344.9375 154.941406 344.792969 C 155.941406 344.578125 158.894531 339.808594 162.121094 333.199219 C 164.179688 328.988281 164.269531 328.558594 163.351562 327.539062 C 162.804688 326.933594 162.359375 326.179688 162.363281 325.867188 C 162.371094 325.550781 162.644531 325.710938 162.976562 326.226562 C 163.308594 326.738281 163.582031 326.878906 163.582031 326.539062 C 163.582031 325.320312 162.535156 324.183594 162.082031 324.914062 C 161.605469 325.6875 160.445312 325.855469 160.558594 325.136719 C 160.761719 323.859375 160.394531 323.109375 159.574219 323.109375 C 159.070312 323.109375 158.328125 322.480469 157.921875 321.710938 C 157.515625 320.9375 156.996094 320.167969 156.761719 319.996094 C 156.53125 319.824219 155.539062 317.160156 154.5625 314.078125 C 152.449219 307.417969 150.308594 302.574219 147.910156 299.011719 C 144.769531 294.351562 141.238281 285.851562 139.664062 279.1875 C 139.148438 276.992188 138.761719 276.140625 138.730469 277.121094 M 198.246094 288.125 L 197.066406 289.777344 L 198.523438 288.394531 C 199.324219 287.632812 199.855469 286.886719 199.703125 286.742188 C 199.550781 286.59375 198.894531 287.21875 198.246094 288.125 M 194.707031 291.804688 L 193.195312 293.515625 L 194.910156 292.007812 C 196.507812 290.59375 196.90625 290.089844 196.417969 290.089844 C 196.308594 290.089844 195.535156 290.859375 194.707031 291.804688 M 192.261719 294.328125 C 192.261719 294.714844 191.488281 295.453125 190.546875 295.964844 C 189.605469 296.476562 189.152344 296.90625 189.542969 296.917969 C 190.628906 296.957031 193.257812 294.621094 192.726562 294.089844 C 192.46875 293.832031 192.261719 293.9375 192.261719 294.328125 M 185.691406 296.363281 C 185.054688 297.394531 185.628906 297.539062 186.523438 296.570312 C 186.964844 296.089844 187.050781 295.695312 186.714844 295.695312 C 186.378906 295.695312 185.917969 295.996094 185.691406 296.363281 M 149.667969 338.375 C 149.867188 338.890625 150.3125 339.308594 150.660156 339.308594 C 151.023438 339.308594 150.964844 338.914062 150.515625 338.375 C 150.089844 337.863281 149.644531 337.441406 149.523438 337.441406 C 149.40625 337.441406 149.472656 337.863281 149.667969 338.375 M 196.699219 429.515625 C 196.265625 431.816406 195.84375 434.1875 195.757812 434.777344 C 195.675781 435.371094 195.371094 436.070312 195.082031 436.335938 C 194.789062 436.601562 194.726562 436.511719 194.9375 436.140625 C 195.148438 435.769531 194.925781 435.464844 194.441406 435.464844 C 193.957031 435.464844 193.671875 435.644531 193.808594 435.863281 C 193.941406 436.082031 193.800781 437.382812 193.492188 438.757812 C 192.917969 441.316406 193.503906 445.082031 194.417969 444.707031 C 194.695312 444.589844 195.183594 444.871094 195.503906 445.328125 C 195.890625 445.886719 196.007812 445.40625 195.859375 443.867188 C 195.734375 442.609375 195.8125 441.6875 196.03125 441.820312 C 196.457031 442.082031 198.144531 425.984375 197.734375 425.574219 C 197.601562 425.4375 197.136719 427.210938 196.699219 429.515625 M 198.457031 435.101562 C 198.4375 435.359375 198.074219 437.882812 197.648438 440.710938 C 197.222656 443.539062 197.078125 445.851562 197.328125 445.851562 C 197.574219 445.851562 197.949219 444.238281 198.160156 442.269531 C 198.371094 440.296875 198.683594 437.773438 198.855469 436.660156 C 199.027344 435.546875 199.015625 434.636719 198.832031 434.636719 C 198.644531 434.636719 198.476562 434.84375 198.457031 435.101562 M 194.335938 437.917969 C 194.335938 438.351562 194.160156 439.542969 193.949219 440.566406 L 193.558594 442.421875 L 194.4375 440.554688 C 195.449219 438.410156 195.605469 437.128906 194.855469 437.128906 C 194.570312 437.128906 194.335938 437.484375 194.335938 437.917969 M 191.324219 445.851562 C 190.839844 446.640625 191.664062 446.640625 192.882812 445.851562 C 193.6875 445.328125 193.671875 445.246094 192.765625 445.238281 C 192.183594 445.230469 191.539062 445.507812 191.324219 445.851562 M 348.101562 446.785156 C 348.074219 447.128906 348.328125 448.527344 348.667969 449.898438 C 349.003906 451.269531 349.5625 453.773438 349.902344 455.460938 C 350.648438 459.15625 353.554688 464.425781 354.234375 463.320312 C 354.574219 462.773438 354.808594 462.847656 355.09375 463.585938 C 355.351562 464.265625 355.242188 464.457031 354.761719 464.160156 C 354.273438 463.859375 354.171875 464.0625 354.449219 464.785156 C 354.675781 465.375 354.023438 469.621094 353 474.226562 C 350.992188 483.242188 350.789062 484.734375 351.757812 483.234375 C 352.25 482.472656 352.363281 482.554688 352.371094 483.671875 C 352.386719 485.835938 353.722656 488.21875 354.921875 488.21875 C 355.523438 488.21875 356.132812 488.566406 356.277344 488.996094 C 356.421875 489.425781 356.574219 487.671875 356.621094 485.101562 C 356.664062 482.53125 356.851562 478.132812 357.03125 475.324219 C 357.214844 472.480469 357.078125 469.476562 356.726562 468.550781 C 356.339844 467.53125 356.316406 466.609375 356.664062 466.179688 C 357.449219 465.214844 356.542969 460.453125 355.613281 460.648438 C 355.207031 460.734375 354.90625 460.59375 354.949219 460.335938 C 355.207031 458.699219 354.644531 457.363281 353.003906 455.722656 C 351.976562 454.695312 351.117188 453.246094 351.09375 452.5 C 351.050781 451.183594 351.03125 451.179688 350.460938 452.390625 C 349.9375 453.5 349.898438 453.464844 350.113281 452.082031 C 350.246094 451.222656 350.539062 449.960938 350.761719 449.277344 C 351.03125 448.464844 350.90625 448.542969 350.40625 449.5 C 349.648438 450.949219 349.632812 450.9375 348.894531 448.5625 C 348.488281 447.242188 348.128906 446.441406 348.101562 446.785156 M 189.496094 448.160156 C 189.160156 449.046875 189.230469 449.121094 189.84375 448.507812 C 190.273438 448.085938 190.464844 447.582031 190.269531 447.390625 C 190.078125 447.199219 189.730469 447.546875 189.496094 448.160156 M 315.25 473.117188 C 313.253906 474.457031 313.921875 480.179688 316.269531 481.824219 C 317.003906 482.339844 317.425781 483.132812 317.230469 483.640625 C 317.039062 484.136719 317.148438 484.378906 317.472656 484.179688 C 317.796875 483.980469 318.476562 484.617188 318.980469 485.59375 C 320.015625 487.59375 321.851562 489.351562 321.851562 488.34375 C 321.851562 487.988281 321.632812 487.605469 321.363281 487.488281 C 320.460938 487.109375 315 478.40625 315 477.355469 C 315 476.785156 315.429688 475.488281 315.949219 474.480469 C 316.878906 472.683594 316.628906 472.195312 315.25 473.117188 M 351.136719 500.195312 C 351.136719 501.332031 352.242188 502.273438 352.855469 501.660156 C 353.066406 501.445312 352.769531 500.796875 352.1875 500.21875 C 351.21875 499.246094 351.136719 499.246094 351.136719 500.195312 M 53.90625 592.539062 C 47.835938 593.773438 43.378906 595.023438 41.980469 595.886719 C 40.753906 596.648438 38.667969 597.664062 37.34375 598.148438 C 35.542969 598.8125 35.296875 599.042969 36.363281 599.074219 C 37.144531 599.097656 38.769531 598.707031 39.96875 598.207031 C 41.171875 597.703125 41.988281 597.5625 41.78125 597.894531 C 41.199219 598.835938 42.230469 598.605469 44.820312 597.21875 C 46.132812 596.515625 47.023438 596.230469 46.804688 596.585938 C 46.585938 596.941406 47.671875 596.691406 49.214844 596.027344 C 50.761719 595.363281 53.089844 594.609375 54.386719 594.351562 C 55.332031 594.164062 56.273438 593.972656 57.214844 593.773438 C 57.472656 593.714844 58.261719 593.632812 58.964844 593.589844 C 59.683594 593.546875 60.070312 593.226562 59.847656 592.863281 C 59.589844 592.441406 60.066406 592.351562 61.214844 592.601562 C 62.566406 592.898438 62.761719 592.832031 62.042969 592.324219 C 61.269531 591.773438 61.351562 591.660156 62.511719 591.652344 C 63.28125 591.644531 63.914062 591.363281 63.914062 591.019531 C 63.914062 590.675781 63.84375 590.433594 63.757812 590.480469 C 63.671875 590.527344 59.238281 591.453125 53.90625 592.539062 M 393.503906 720.574219 C 393.503906 720.898438 393.78125 721.332031 394.121094 721.542969 C 394.472656 721.761719 394.578125 721.511719 394.363281 720.957031 C 393.949219 719.875 393.503906 719.679688 393.503906 720.574219 M 383.261719 742.859375 C 382.925781 743.746094 382.996094 743.816406 383.613281 743.207031 C 384.039062 742.785156 384.230469 742.28125 384.035156 742.089844 C 383.84375 741.898438 383.496094 742.246094 383.261719 742.859375 M 383.328125 757.164062 C 382.539062 757.949219 382.914062 758.617188 384.136719 758.617188 C 384.972656 758.617188 385.25 758.316406 385.007812 757.683594 C 384.621094 756.683594 384 756.492188 383.328125 757.164062 M 377.925781 765.46875 C 377.925781 765.8125 378.347656 766.09375 378.863281 766.09375 C 379.375 766.09375 379.796875 765.8125 379.796875 765.46875 C 379.796875 765.128906 379.375 764.847656 378.863281 764.847656 C 378.347656 764.847656 377.925781 765.128906 377.925781 765.46875 M 374.917969 776.390625 C 373.988281 778.433594 374 778.554688 375.125 778.554688 C 377.0625 778.554688 375.953125 779.585938 373.410156 780.148438 C 371.078125 780.664062 370.78125 780.921875 370.9375 782.292969 C 371.035156 783.148438 370.796875 784.445312 370.40625 785.175781 C 369.894531 786.132812 369.886719 786.84375 370.375 787.761719 C 370.972656 788.875 370.894531 788.984375 369.722656 788.675781 C 368.84375 788.445312 368.101562 788.730469 367.527344 789.511719 C 366.835938 790.460938 366.558594 790.53125 366.144531 789.855469 C 365.808594 789.3125 365.480469 789.242188 365.222656 789.660156 C 365.003906 790.015625 365.109375 790.480469 365.457031 790.699219 C 366.582031 791.394531 366.128906 792.738281 364.636719 793.113281 C 363.839844 793.3125 362.863281 794.183594 362.472656 795.050781 C 362.078125 795.914062 361.511719 796.621094 361.214844 796.621094 C 360.914062 796.621094 360.648438 797.460938 360.617188 798.484375 C 360.550781 800.824219 359.972656 801.785156 358.882812 801.367188 C 358.414062 801.183594 357.863281 801.308594 357.660156 801.632812 C 357.457031 801.960938 357.871094 802.230469 358.574219 802.230469 C 359.859375 802.230469 360.363281 803.1875 359.285156 803.582031 C 358.972656 803.695312 358.453125 805.246094 358.132812 807.027344 C 357.675781 809.558594 357.730469 810.335938 358.375 810.582031 C 358.828125 810.757812 359.558594 810.40625 359.996094 809.796875 C 360.433594 809.191406 361.710938 808.023438 362.835938 807.203125 C 364.054688 806.308594 364.742188 805.355469 364.539062 804.828125 C 364.351562 804.34375 364.886719 803.351562 365.722656 802.621094 C 366.558594 801.894531 367.714844 800.105469 368.292969 798.648438 C 368.867188 797.191406 369.710938 796 370.160156 796 C 371.300781 796 373.035156 794.160156 372.582031 793.429688 C 372.378906 793.101562 372.492188 792.492188 372.835938 792.078125 C 373.179688 791.664062 373.476562 791.113281 373.5 790.855469 C 373.625 789.472656 374.457031 786.777344 375.1875 785.40625 C 376.785156 782.40625 377.226562 779.382812 376.414062 777.019531 L 375.648438 774.789062 Z M 367.734375 786.34375 C 367.535156 786.855469 367.644531 787.277344 367.976562 787.277344 C 368.308594 787.277344 368.582031 786.855469 368.582031 786.34375 C 368.582031 785.828125 368.472656 785.40625 368.335938 785.40625 C 368.203125 785.40625 367.929688 785.828125 367.734375 786.34375 M 33.484375 791.015625 C 33.484375 791.871094 33.625 792.222656 33.796875 791.792969 C 33.96875 791.367188 33.96875 790.664062 33.796875 790.238281 C 33.625 789.808594 33.484375 790.160156 33.484375 791.015625 M 359.324219 796.089844 C 358.886719 796.792969 358.664062 797.503906 358.832031 797.671875 C 358.996094 797.839844 359.460938 797.367188 359.859375 796.621094 C 360.800781 794.863281 360.363281 794.425781 359.324219 796.089844 M 28.03125 798.648438 L 26.84375 800.050781 L 28.246094 798.863281 C 29.5625 797.746094 29.929688 797.246094 29.429688 797.246094 C 29.3125 797.246094 28.683594 797.875 28.03125 798.648438 M 25.039062 801.511719 L 23.859375 803.164062 L 25.316406 801.78125 C 26.117188 801.019531 26.648438 800.273438 26.496094 800.128906 C 26.34375 799.980469 25.6875 800.601562 25.039062 801.511719 M 354.730469 803.113281 C 354.964844 803.484375 355.097656 804.347656 355.023438 805.035156 L 354.894531 806.28125 L 355.464844 805.035156 C 356.015625 803.824219 356.035156 803.828125 356.078125 805.136719 C 356.101562 805.878906 355.769531 806.617188 355.339844 806.773438 C 354.71875 807 354.71875 807.222656 355.339844 807.882812 C 355.769531 808.339844 356.125 809.285156 356.128906 809.988281 C 356.136719 811.039062 356.246094 811.101562 356.742188 810.328125 C 357.726562 808.8125 357.507812 804.113281 356.4375 803.703125 C 355.921875 803.507812 355.628906 803.140625 355.785156 802.890625 C 355.9375 802.640625 355.671875 802.4375 355.1875 802.4375 C 354.703125 802.4375 354.496094 802.742188 354.730469 803.113281 M 353.726562 807.214844 C 353.726562 808.070312 353.867188 808.421875 354.039062 807.992188 C 354.214844 807.566406 354.214844 806.863281 354.039062 806.4375 C 353.867188 806.007812 353.726562 806.359375 353.726562 807.214844 M 355.507812 812.25 C 355.511719 812.734375 355.792969 813.554688 356.132812 814.066406 C 356.621094 814.808594 356.707031 814.714844 356.554688 813.617188 C 356.332031 812.023438 355.492188 810.929688 355.507812 812.25 M 350.195312 813.453125 C 349.980469 813.804688 349.5625 813.9375 349.265625 813.757812 C 348.972656 813.574219 348.527344 813.753906 348.28125 814.152344 C 348.011719 814.589844 348.097656 814.71875 348.496094 814.472656 C 348.859375 814.246094 349.253906 814.300781 349.371094 814.597656 C 349.484375 814.890625 350.117188 814.613281 350.777344 813.976562 C 351.4375 813.34375 351.664062 812.820312 351.28125 812.820312 C 350.898438 812.820312 350.410156 813.105469 350.195312 813.453125 M 331.199219 816.558594 C 331.199219 816.902344 331.496094 817.183594 331.859375 817.183594 C 332.222656 817.183594 332.34375 816.902344 332.132812 816.558594 C 331.921875 816.21875 331.625 815.9375 331.472656 815.9375 C 331.320312 815.9375 331.199219 816.21875 331.199219 816.558594 M 338.773438 819.675781 C 338.773438 820.53125 338.914062 820.882812 339.085938 820.453125 C 339.261719 820.027344 339.261719 819.324219 339.085938 818.898438 C 338.914062 818.46875 338.773438 818.820312 338.773438 819.675781 M 344.632812 820.117188 C 344.296875 821.003906 344.367188 821.074219 344.984375 820.464844 C 345.410156 820.042969 345.601562 819.539062 345.410156 819.347656 C 345.214844 819.15625 344.867188 819.5 344.632812 820.117188 M 326.3125 822.167969 C 326.3125 823.023438 326.453125 823.375 326.625 822.945312 C 326.800781 822.519531 326.800781 821.816406 326.625 821.390625 C 326.453125 820.960938 326.3125 821.3125 326.3125 822.167969 M 336.855469 823.152344 C 336.886719 823.878906 337.03125 824.027344 337.230469 823.53125 C 337.410156 823.082031 337.390625 822.542969 337.183594 822.335938 C 336.976562 822.128906 336.828125 822.496094 336.855469 823.152344 M 332.445312 824.347656 C 332.445312 824.863281 332.726562 825.28125 333.066406 825.28125 C 333.410156 825.28125 333.691406 824.863281 333.691406 824.347656 C 333.691406 823.835938 333.410156 823.414062 333.066406 823.414062 C 332.726562 823.414062 332.445312 823.835938 332.445312 824.347656 M 317.492188 838.988281 C 317.492188 839.332031 317.773438 839.613281 318.113281 839.613281 C 318.457031 839.613281 318.738281 839.332031 318.738281 838.988281 C 318.738281 838.648438 318.457031 838.367188 318.113281 838.367188 C 317.773438 838.367188 317.492188 838.648438 317.492188 838.988281 M 8.640625 862.417969 C 8.257812 864.09375 8.039062 865.566406 8.160156 865.6875 C 8.507812 866.03125 9.808594 860.78125 9.558594 860.035156 C 9.4375 859.667969 9.023438 860.742188 8.640625 862.417969 M 5.550781 869.050781 C 1.585938 873.433594 -6.371094 880.652344 -6.804688 880.257812 C -7.085938 880.003906 -7.113281 880.148438 -6.867188 880.574219 C -6.617188 881.007812 -7.144531 882.378906 -8.066406 883.6875 L -9.714844 886.03125 L -7.945312 883.847656 C -6.972656 882.648438 -3.164062 878.636719 0.519531 874.929688 C 4.203125 871.222656 7.21875 868.066406 7.21875 867.917969 C 7.21875 867.386719 6.796875 867.671875 5.550781 869.050781 M 314.664062 875.167969 C 314.4375 875.53125 314.386719 875.964844 314.546875 876.128906 C 314.710938 876.292969 315.011719 875.992188 315.214844 875.464844 C 315.636719 874.367188 315.277344 874.171875 314.664062 875.167969 M 309.390625 881.59375 C 309.390625 881.722656 309.882812 882.210938 310.484375 882.683594 C 311.472656 883.457031 311.492188 883.433594 310.71875 882.445312 C 309.902344 881.410156 309.390625 881.078125 309.390625 881.59375 M -11.886719 888.988281 C -14.148438 892.191406 -14.746094 893.195312 -14.398438 893.195312 C -14.171875 893.195312 -11.660156 889.699219 -10.042969 887.132812 C -8.84375 885.230469 -10.1875 886.582031 -11.886719 888.988281 M 303.613281 892.117188 C 303.113281 893.425781 304.359375 894.273438 305.089844 893.117188 C 305.390625 892.644531 305.632812 891.980469 305.632812 891.636719 C 305.632812 891.292969 305.394531 891.394531 305.097656 891.863281 C 304.660156 892.554688 304.507812 892.558594 304.285156 891.894531 C 304.089844 891.300781 303.902344 891.363281 303.613281 892.117188 M 306.277344 892.570312 C 306.277344 892.914062 306.574219 893.195312 306.9375 893.195312 C 307.300781 893.195312 307.421875 892.914062 307.210938 892.570312 C 307 892.230469 306.703125 891.949219 306.550781 891.949219 C 306.402344 891.949219 306.277344 892.230469 306.277344 892.570312 M -17.164062 896.929688 C -18.070312 898.636719 -18.582031 899.894531 -18.304688 899.722656 C -17.566406 899.265625 -14.605469 893.816406 -15.101562 893.824219 C -15.332031 893.824219 -16.261719 895.222656 -17.164062 896.929688 M 305.652344 894.789062 C 305.652344 895.324219 305.933594 895.585938 306.277344 895.375 C 306.621094 895.164062 306.898438 894.726562 306.898438 894.402344 C 306.898438 894.082031 306.621094 893.816406 306.277344 893.816406 C 305.933594 893.816406 305.652344 894.253906 305.652344 894.789062 M 300.542969 896.9375 C 299.960938 897.960938 299.6875 898.800781 299.941406 898.800781 C 300.195312 898.800781 300.898438 897.960938 301.503906 896.933594 C 302.113281 895.90625 302.382812 895.066406 302.105469 895.066406 C 301.832031 895.070312 301.125 895.910156 300.542969 896.9375 M 305.082031 897.296875 C 305.109375 898.023438 305.257812 898.167969 305.457031 897.671875 C 305.636719 897.222656 305.613281 896.683594 305.40625 896.476562 C 305.199219 896.273438 305.054688 896.640625 305.082031 897.296875 M 297.867188 901.292969 C 297.335938 902.320312 297.039062 903.164062 297.210938 903.164062 C 297.382812 903.164062 297.957031 902.320312 298.488281 901.292969 C 299.019531 900.265625 299.316406 899.425781 299.144531 899.425781 C 298.972656 899.425781 298.398438 900.265625 297.867188 901.292969 M -20.277344 901.761719 C -21.050781 902.75 -21.027344 902.769531 -20.042969 901.996094 C -19.003906 901.183594 -18.671875 900.671875 -19.1875 900.671875 C -19.316406 900.671875 -19.804688 901.160156 -20.277344 901.761719 M 295.234375 904.988281 C 294.648438 905.925781 294.648438 906.246094 295.242188 906.445312 C 295.804688 906.632812 295.769531 907 295.09375 907.890625 C 294.328125 908.898438 294.324219 908.957031 295.082031 908.28125 C 295.574219 907.84375 296.019531 906.652344 296.070312 905.632812 C 296.179688 903.445312 296.191406 903.457031 295.234375 904.988281 M 289.976562 912.976562 C 285.402344 919.867188 284.746094 921.253906 285.761719 921.882812 C 286.277344 922.199219 286.285156 922.4375 285.785156 922.746094 C 285.402344 922.980469 285.09375 922.875 285.09375 922.515625 C 285.09375 922.152344 284.8125 921.855469 284.46875 921.855469 C 284.128906 921.855469 283.847656 922.171875 283.847656 922.558594 C 283.847656 922.949219 283.25 923.785156 282.519531 924.417969 C 281.792969 925.046875 281.089844 926.460938 280.964844 927.550781 C 280.835938 928.644531 280.550781 929.703125 280.328125 929.902344 C 280.105469 930.101562 280.082031 929.632812 280.269531 928.863281 C 280.460938 928.089844 280.363281 927.617188 280.050781 927.808594 C 279.742188 928 279.484375 928.71875 279.484375 929.40625 C 279.484375 930.089844 279.257812 930.507812 278.980469 930.335938 C 278.703125 930.164062 277.769531 931.550781 276.90625 933.414062 C 275.628906 936.183594 275.550781 936.617188 276.480469 935.773438 C 277.542969 934.8125 277.617188 934.824219 277.636719 935.933594 C 277.65625 937.078125 277.6875 937.078125 278.589844 935.882812 C 279.65625 934.476562 279.484375 932.671875 278.3125 932.929688 C 277.878906 933.023438 277.714844 932.792969 277.945312 932.417969 C 278.175781 932.042969 278.742188 931.882812 279.199219 932.058594 C 279.65625 932.230469 280.1875 932.042969 280.382812 931.632812 C 280.578125 931.222656 280.59375 931.660156 280.414062 932.601562 C 280.230469 933.5625 280.363281 934.316406 280.71875 934.316406 C 281.070312 934.316406 281.324219 934.105469 281.28125 933.847656 C 281.078125 932.546875 281.453125 931.824219 282.335938 931.824219 C 282.875 931.824219 283.664062 931.472656 284.089844 931.042969 C 285.09375 930.042969 285.773438 927.460938 285.035156 927.460938 C 284.726562 927.460938 284.46875 927.152344 284.46875 926.773438 C 284.46875 926.394531 284.917969 926.253906 285.460938 926.460938 C 286.066406 926.695312 286.902344 926.296875 287.621094 925.4375 L 288.789062 924.035156 L 288.8125 926.058594 C 288.839844 928.667969 289.625 928.648438 290.574219 926.015625 C 291.527344 923.386719 291.515625 923.101562 290.457031 923.101562 C 289.09375 923.101562 288.710938 920.242188 289.769531 917.976562 C 290.292969 916.855469 290.558594 916.488281 290.367188 917.164062 C 290.171875 917.839844 290.234375 918.167969 290.503906 917.898438 C 290.773438 917.628906 291.035156 916.574219 291.085938 915.558594 L 291.179688 913.707031 L 289.695312 915.722656 C 288.878906 916.828125 288.207031 917.445312 288.207031 917.09375 C 288.207031 916.738281 289.289062 914.933594 290.609375 913.078125 C 293.066406 909.625 294.667969 906.902344 294.246094 906.902344 C 294.113281 906.902344 292.191406 909.636719 289.976562 912.976562 M 277.980469 933.609375 C 277.710938 934.042969 277.660156 934.566406 277.867188 934.773438 C 278.425781 935.328125 279.03125 934.507812 278.730469 933.605469 C 278.519531 932.972656 278.371094 932.972656 277.980469 933.609375 M 279.535156 936.546875 C 279.566406 937.273438 279.714844 937.421875 279.910156 936.925781 C 280.09375 936.476562 280.070312 935.9375 279.863281 935.730469 C 279.65625 935.523438 279.507812 935.890625 279.535156 936.546875 M 272.871094 938.273438 C 272.492188 938.710938 271.855469 939.671875 271.460938 940.40625 C 270.839844 941.566406 270.957031 941.890625 272.328125 942.789062 C 273.203125 943.363281 273.769531 943.976562 273.589844 944.15625 C 273.410156 944.335938 272.703125 943.976562 272.011719 943.351562 C 271.328125 942.730469 270.765625 942.53125 270.765625 942.90625 C 270.765625 943.28125 271.378906 944.019531 272.128906 944.546875 C 272.878906 945.070312 273.308594 945.683594 273.085938 945.910156 C 272.351562 946.640625 273.925781 948.761719 274.917969 948.378906 C 275.527344 948.148438 275.980469 948.464844 276.191406 949.265625 C 276.371094 949.953125 276.875 950.515625 277.308594 950.515625 C 277.746094 950.515625 278.0625 951.003906 278.015625 951.605469 C 277.960938 952.289062 278.335938 952.664062 279.019531 952.609375 C 279.617188 952.5625 280.128906 952.699219 280.15625 952.917969 C 280.179688 953.140625 280.324219 953.988281 280.476562 954.804688 C 280.707031 956.066406 280.609375 956.171875 279.8125 955.511719 C 279.296875 955.085938 279.015625 954.511719 279.183594 954.238281 C 279.351562 953.96875 278.882812 953.902344 278.144531 954.097656 C 277.265625 954.328125 276.945312 954.214844 277.21875 953.769531 C 277.449219 953.398438 277.347656 952.914062 276.992188 952.695312 C 276.640625 952.476562 276.539062 951.992188 276.769531 951.621094 C 277.023438 951.207031 276.894531 951.125 276.4375 951.40625 C 275.890625 951.746094 275.871094 952.09375 276.371094 952.695312 C 276.867188 953.292969 276.863281 953.636719 276.359375 953.949219 C 275.976562 954.183594 275.8125 954.769531 275.996094 955.25 C 276.46875 956.476562 275.777344 957.992188 274.746094 957.992188 C 273.832031 957.992188 273.59375 958.746094 274.289062 959.441406 C 274.515625 959.667969 275.097656 959.289062 275.578125 958.597656 C 276.0625 957.910156 276.75 957.527344 277.105469 957.75 C 277.464844 957.96875 277.96875 957.804688 278.230469 957.382812 C 278.601562 956.785156 279.011719 956.78125 280.082031 957.355469 C 280.84375 957.757812 281.625 957.929688 281.824219 957.730469 C 282.023438 957.53125 281.859375 957.367188 281.460938 957.367188 C 281.058594 957.367188 280.730469 957.070312 280.730469 956.707031 C 280.730469 956.34375 280.992188 956.210938 281.3125 956.40625 C 281.632812 956.601562 282.09375 956.4375 282.34375 956.035156 C 282.609375 955.605469 282.523438 955.472656 282.140625 955.710938 C 281.78125 955.933594 281.335938 955.71875 281.148438 955.234375 C 280.960938 954.75 281.277344 954.175781 281.84375 953.960938 C 282.410156 953.742188 282.664062 953.773438 282.40625 954.03125 C 281.867188 954.570312 288.160156 958.71875 288.859375 958.285156 C 289.117188 958.128906 289.496094 958.441406 289.703125 958.980469 C 289.910156 959.519531 290.402344 959.855469 290.800781 959.722656 C 291.199219 959.589844 292.25 960.15625 293.136719 960.980469 C 294.027344 961.804688 295.558594 962.894531 296.546875 963.40625 C 298.039062 964.179688 298.433594 964.195312 298.875 963.5 C 299.726562 962.15625 299.464844 961.3125 298.5625 962.496094 C 298.113281 963.09375 297.570312 963.40625 297.359375 963.195312 C 297.144531 962.980469 297.53125 962.097656 298.214844 961.226562 C 299.554688 959.523438 299.042969 958.640625 296.710938 958.621094 C 296.074219 958.617188 294.984375 957.890625 294.285156 957.003906 C 293.390625 955.867188 292.882812 955.617188 292.550781 956.152344 C 292.253906 956.632812 291.929688 956.207031 291.660156 954.984375 C 291.34375 953.554688 290.433594 952.566406 288.101562 951.132812 C 285.246094 949.371094 280.417969 945.3125 282.601562 946.503906 C 283.398438 946.941406 283.414062 946.863281 282.703125 945.988281 C 282.246094 945.421875 282.050781 944.671875 282.269531 944.316406 C 282.507812 943.933594 282.273438 943.824219 281.683594 944.050781 C 280.96875 944.324219 280.878906 944.644531 281.355469 945.21875 C 281.828125 945.789062 281.75 946.105469 281.066406 946.367188 C 280.515625 946.582031 280.1875 946.417969 280.273438 945.972656 C 280.355469 945.558594 279.929688 945.257812 279.332031 945.304688 C 278.351562 945.382812 277.859375 944.0625 278.179688 942.210938 C 278.230469 941.929688 277.992188 941.871094 277.65625 942.078125 C 277.316406 942.289062 276.292969 941.328125 275.378906 939.945312 C 274.460938 938.5625 273.679688 937.441406 273.640625 937.453125 C 273.601562 937.46875 273.253906 937.835938 272.871094 938.273438 M 279.175781 938.675781 C 279.386719 939.019531 279.246094 939.300781 278.863281 939.300781 C 278.480469 939.300781 278.339844 939.578125 278.546875 939.917969 C 278.789062 940.304688 279.238281 940.246094 279.765625 939.761719 C 280.648438 938.945312 280.460938 938.054688 279.414062 938.054688 C 279.070312 938.054688 278.960938 938.332031 279.175781 938.675781 M 274.5 941.792969 C 274.5 942.132812 274.800781 942.414062 275.160156 942.414062 C 275.523438 942.414062 275.648438 942.132812 275.4375 941.792969 C 275.222656 941.449219 274.929688 941.167969 274.777344 941.167969 C 274.625 941.167969 274.5 941.449219 274.5 941.792969 M 284.054688 946.4375 C 284.054688 946.9375 284.292969 947.195312 284.585938 947.015625 C 284.875 946.835938 284.953125 946.429688 284.753906 946.109375 C 284.25 945.292969 284.054688 945.386719 284.054688 946.4375 M 284.886719 950.929688 C 284.65625 951.15625 284.46875 951.632812 284.46875 951.988281 C 284.46875 952.378906 284.761719 952.34375 285.207031 951.894531 C 285.613281 951.488281 285.800781 951.011719 285.625 950.835938 C 285.445312 950.660156 285.113281 950.699219 284.886719 950.929688 M 286.6875 953.265625 C 287.351562 953.753906 288.027344 954.019531 288.1875 953.855469 C 288.53125 953.511719 286.925781 952.40625 286.066406 952.394531 C 285.742188 952.386719 286.023438 952.78125 286.6875 953.265625 M 283.222656 953.628906 C 283.222656 953.972656 283.503906 954.253906 283.847656 954.253906 C 284.191406 954.253906 284.46875 953.972656 284.46875 953.628906 C 284.46875 953.285156 284.191406 953.007812 283.847656 953.007812 C 283.503906 953.007812 283.222656 953.285156 283.222656 953.628906 M 285.09375 954.265625 C 285.09375 954.625 285.527344 955.082031 286.054688 955.285156 C 287.515625 955.84375 287.6875 955.238281 286.3125 954.378906 C 285.539062 953.898438 285.09375 953.855469 285.09375 954.265625 M 291.945312 954.253906 C 291.945312 954.59375 292.246094 954.875 292.605469 954.875 C 292.96875 954.875 293.09375 954.59375 292.882812 954.253906 C 292.667969 953.910156 292.375 953.628906 292.222656 953.628906 C 292.070312 953.628906 291.945312 953.910156 291.945312 954.253906 M 276.855469 955.886719 C 277.011719 956.691406 277.390625 957.195312 277.699219 957.003906 C 278.007812 956.8125 278.082031 956.371094 277.863281 956.015625 C 277.644531 955.664062 278.132812 955.726562 278.945312 956.160156 C 280.253906 956.859375 280.332031 956.839844 279.621094 955.980469 C 279.183594 955.445312 278.316406 954.878906 277.699219 954.714844 C 276.804688 954.480469 276.632812 954.71875 276.855469 955.886719 M 294.128906 955.5 C 294.621094 956.296875 300.113281 959.378906 300.445312 959.046875 C 300.609375 958.882812 299.183594 957.902344 297.28125 956.871094 C 295.375 955.839844 293.957031 955.222656 294.128906 955.5 M 291.480469 957.390625 C 290.710938 957.699219 290.078125 958.296875 290.078125 958.71875 C 290.078125 959.285156 290.261719 959.304688 290.777344 958.785156 C 291.542969 958.019531 293.378906 958.429688 292.871094 959.253906 C 292.574219 959.734375 295.71875 962.351562 296.589844 962.351562 C 296.808594 962.351562 296.484375 961.679688 295.871094 960.859375 C 295.253906 960.039062 294.589844 959.460938 294.394531 959.582031 C 294.195312 959.699219 294.054688 959.210938 294.082031 958.488281 C 294.136719 956.941406 293.390625 956.625 291.480469 957.390625 M 301.292969 959.523438 C 301.292969 959.660156 303.238281 960.824219 305.617188 962.109375 C 309.507812 964.210938 309.878906 964.570312 309.320312 965.734375 C 308.722656 966.976562 308.738281 966.980469 309.644531 965.847656 C 310.519531 964.761719 310.707031 964.746094 312.078125 965.644531 C 313.746094 966.738281 318.113281 968.644531 318.113281 968.28125 C 318.113281 968.152344 316.222656 967.078125 313.910156 965.898438 C 311.597656 964.71875 308.300781 962.929688 306.589844 961.925781 C 303.367188 960.03125 301.292969 959.09375 301.292969 959.523438 M 296.621094 960.484375 C 296.832031 960.824219 297.128906 961.105469 297.28125 961.105469 C 297.429688 961.105469 297.554688 960.824219 297.554688 960.484375 C 297.554688 960.140625 297.257812 959.859375 296.894531 959.859375 C 296.53125 959.859375 296.40625 960.140625 296.621094 960.484375 M 299.421875 960.484375 C 299.421875 960.824219 299.703125 961.105469 300.046875 961.105469 C 300.390625 961.105469 300.667969 960.824219 300.667969 960.484375 C 300.667969 960.140625 300.390625 959.859375 300.046875 959.859375 C 299.703125 959.859375 299.421875 960.140625 299.421875 960.484375 M 272.90625 963.285156 C 273.023438 964.3125 273.144531 965.367188 273.183594 965.621094 C 273.222656 965.878906 273.535156 966.089844 273.878906 966.089844 C 274.800781 966.089844 274.632812 964.015625 273.601562 962.625 C 272.757812 961.488281 272.714844 961.527344 272.90625 963.285156 M 275.847656 964.222656 C 275.847656 965.078125 275.988281 965.429688 276.160156 965 C 276.332031 964.570312 276.332031 963.871094 276.160156 963.441406 C 275.988281 963.015625 275.847656 963.363281 275.847656 964.222656 M 271.4375 965.207031 C 271.464844 965.933594 271.613281 966.082031 271.8125 965.585938 C 271.992188 965.132812 271.96875 964.597656 271.761719 964.390625 C 271.554688 964.183594 271.410156 964.550781 271.4375 965.207031 M 305.539062 964.644531 C 305.988281 964.828125 306.523438 964.804688 306.730469 964.597656 C 306.9375 964.390625 306.570312 964.242188 305.914062 964.269531 C 305.1875 964.300781 305.039062 964.449219 305.539062 964.644531 M 302.539062 965.699219 C 302.539062 965.867188 303.78125 966.839844 305.296875 967.863281 C 307.542969 969.378906 308.121094 969.550781 308.410156 968.789062 C 308.945312 967.402344 308.828125 966.902344 308.199219 967.890625 C 307.746094 968.609375 307.347656 968.546875 305.875 967.527344 C 303.417969 965.824219 302.539062 965.34375 302.539062 965.699219 M 307.210938 966.089844 C 307 966.433594 307.125 966.714844 307.488281 966.714844 C 307.847656 966.714844 308.144531 966.433594 308.144531 966.089844 C 308.144531 965.746094 308.023438 965.46875 307.871094 965.46875 C 307.71875 965.46875 307.421875 965.746094 307.210938 966.089844 M 331.871094 967.078125 C 331.902344 967.800781 332.046875 967.949219 332.246094 967.453125 C 332.425781 967.003906 332.40625 966.464844 332.199219 966.257812 C 331.992188 966.050781 331.84375 966.417969 331.871094 967.078125 M 351.050781 967.464844 C 351.5 968.050781 351.679688 968.828125 351.457031 969.195312 C 351.230469 969.558594 351.414062 969.78125 351.867188 969.6875 C 353.957031 969.253906 351.425781 981.542969 349.070312 983.28125 C 348.320312 983.835938 348.128906 984.167969 348.644531 984.019531 C 349.15625 983.871094 350.242188 982.792969 351.050781 981.617188 C 352.304688 979.800781 352.460938 979.714844 352.109375 981.042969 C 351.710938 982.539062 351.730469 982.554688 352.660156 981.390625 C 353.542969 980.289062 353.628906 980.277344 353.628906 981.28125 C 353.628906 982.257812 353.730469 982.273438 354.5625 981.445312 C 356.699219 979.308594 355 970.640625 351.902344 967.882812 C 350.988281 967.066406 350.605469 966.878906 351.050781 967.464844 M 265.894531 970.5 C 264.90625 972.082031 265.429688 972.945312 267.375 972.945312 C 269.167969 972.945312 269.359375 971.6875 267.78125 970.261719 C 266.753906 969.332031 266.613281 969.347656 265.894531 970.5 M 328.394531 971.324219 C 329.421875 971.808594 330.382812 972.089844 330.523438 971.953125 C 330.960938 971.523438 330.34375 971.191406 328.394531 970.808594 L 326.527344 970.445312 Z M 331.199219 972.453125 C 331.199219 974.855469 329.933594 976.65625 328.195312 976.722656 C 327.488281 976.746094 327.632812 976.953125 328.640625 977.359375 C 329.460938 977.6875 330.199219 977.878906 330.277344 977.785156 C 330.359375 977.691406 331.042969 976.390625 331.796875 974.886719 C 333.054688 972.398438 333.089844 972.074219 332.1875 971.171875 C 331.285156 970.269531 331.199219 970.382812 331.199219 972.453125 M 314.882812 972.121094 C 315.332031 972.304688 315.871094 972.28125 316.078125 972.074219 C 316.285156 971.867188 315.917969 971.71875 315.257812 971.746094 C 314.535156 971.777344 314.386719 971.925781 314.882812 972.121094 M 264.128906 973.867188 C 264.351562 974.441406 264.535156 975.03125 264.535156 975.175781 C 264.535156 975.320312 264.972656 975.4375 265.511719 975.4375 C 266.898438 975.4375 266.359375 973.324219 264.902344 973.042969 C 264.019531 972.875 263.828125 973.078125 264.128906 973.867188 M 262.4375 976.992188 C 262.636719 977.507812 262.90625 977.929688 263.042969 977.929688 C 263.175781 977.929688 263.289062 977.507812 263.289062 976.992188 C 263.289062 976.480469 263.015625 976.058594 262.683594 976.058594 C 262.351562 976.058594 262.242188 976.480469 262.4375 976.992188 M 327.472656 986.496094 C 326.253906 996.207031 323.953125 1006.269531 319.53125 1021.230469 C 316.78125 1030.535156 315.628906 1035.195312 315.6875 1036.804688 C 315.738281 1038.289062 316.460938 1036.117188 317.761719 1030.574219 C 318.242188 1028.519531 319.226562 1024.875 319.949219 1022.476562 C 324.011719 1008.964844 327.640625 992.859375 328.433594 984.839844 C 329.082031 978.242188 328.351562 979.503906 327.472656 986.496094 M 354.921875 983.484375 C 354.898438 983.972656 354.394531 984.953125 353.808594 985.667969 C 352.800781 986.886719 352.824219 986.886719 354.191406 985.625 C 354.992188 984.890625 355.492188 983.910156 355.308594 983.445312 C 355.035156 982.761719 354.964844 982.769531 354.921875 983.484375 M 352.925781 984.625 C 352.152344 985.613281 352.171875 985.636719 353.160156 984.859375 C 353.761719 984.390625 354.25 983.898438 354.25 983.769531 C 354.25 983.257812 353.738281 983.585938 352.925781 984.625 M 345.84375 984.773438 C 345.625 985.128906 345.875 985.230469 346.429688 985.019531 C 347.511719 984.605469 347.707031 984.160156 346.8125 984.160156 C 346.488281 984.160156 346.054688 984.433594 345.84375 984.773438 M 239.886719 992.824219 C 240.078125 993.132812 239.984375 994.046875 239.675781 994.847656 C 239.109375 996.3125 238.933594 996.148438 238.214844 993.53125 C 238.078125 993.03125 237.597656 994.363281 237.148438 996.488281 C 236.613281 999.011719 236.019531 1000.355469 235.449219 1000.355469 C 234.96875 1000.355469 234.648438 1000.707031 234.742188 1001.136719 C 234.835938 1001.5625 234.238281 1002.6875 233.410156 1003.632812 C 232.304688 1004.890625 231.769531 1005.140625 231.40625 1004.566406 C 231.070312 1004.042969 230.90625 1004.246094 230.898438 1005.1875 C 230.894531 1005.957031 230.609375 1006.585938 230.265625 1006.585938 C 229.921875 1006.585938 229.601562 1007.777344 229.550781 1009.234375 C 229.484375 1011.113281 229.378906 1011.382812 229.195312 1010.160156 C 229.050781 1009.210938 228.675781 1008.597656 228.355469 1008.792969 C 228.035156 1008.992188 227.773438 1008.808594 227.773438 1008.390625 C 227.773438 1005.882812 226.335938 1011.523438 225.621094 1016.851562 C 225.527344 1017.546875 225.101562 1018.957031 224.675781 1019.984375 C 223.644531 1022.472656 222.820312 1025.277344 223.117188 1025.277344 C 223.382812 1025.277344 225.023438 1021.75 225.433594 1020.292969 C 225.589844 1019.742188 225.832031 1020.050781 226.019531 1021.042969 C 226.21875 1022.082031 226.082031 1022.675781 225.65625 1022.601562 C 224.878906 1022.460938 225.019531 1024.160156 225.992188 1026.640625 C 226.824219 1028.769531 228.183594 1028.304688 228.75 1025.695312 C 228.984375 1024.609375 229.5625 1023.167969 230.035156 1022.492188 C 230.503906 1021.816406 230.890625 1020.765625 230.890625 1020.15625 C 230.890625 1019.546875 231.183594 1019.046875 231.542969 1019.046875 C 231.90625 1019.046875 232.492188 1018.207031 232.851562 1017.179688 C 233.210938 1016.152344 233.902344 1015.308594 234.390625 1015.308594 C 234.882812 1015.308594 235.550781 1014.601562 235.878906 1013.738281 C 236.273438 1012.703125 237.113281 1012.039062 238.355469 1011.792969 C 239.820312 1011.5 240.234375 1011.085938 240.234375 1009.921875 C 240.234375 1008.898438 240.726562 1008.238281 241.792969 1007.832031 C 242.78125 1007.457031 243.351562 1006.757812 243.351562 1005.914062 C 243.351562 1004.804688 243.609375 1004.648438 244.90625 1004.976562 C 246.40625 1005.351562 246.464844 1005.253906 246.464844 1002.375 C 246.464844 1000.101562 246.167969 999.171875 245.21875 998.488281 C 244.363281 997.871094 243.972656 996.875 243.972656 995.300781 C 243.972656 992.949219 243.246094 992.257812 240.769531 992.257812 C 240.09375 992.257812 239.695312 992.511719 239.886719 992.824219 M 240.90625 993.867188 C 240.9375 994.59375 241.085938 994.742188 241.285156 994.246094 C 241.464844 993.792969 241.441406 993.257812 241.234375 993.050781 C 241.027344 992.84375 240.878906 993.210938 240.90625 993.867188 M 227.871094 1001.605469 C 227.871094 1002.460938 228.015625 1002.8125 228.1875 1002.382812 C 228.359375 1001.953125 228.359375 1001.253906 228.1875 1000.824219 C 228.015625 1000.398438 227.871094 1000.746094 227.871094 1001.605469 M 228.445312 1006.949219 C 228.476562 1007.675781 228.625 1007.824219 228.824219 1007.328125 C 229.003906 1006.878906 228.980469 1006.339844 228.773438 1006.132812 C 228.566406 1005.925781 228.417969 1006.292969 228.445312 1006.949219 M 221.894531 1027.589844 C 221.558594 1028.476562 221.628906 1028.546875 222.242188 1027.9375 C 222.667969 1027.515625 222.859375 1027.011719 222.667969 1026.820312 C 222.476562 1026.628906 222.128906 1026.972656 221.894531 1027.589844 M 219.449219 1032.527344 C 218.859375 1033.765625 218.492188 1034.894531 218.632812 1035.035156 C 218.773438 1035.175781 219.371094 1034.277344 219.957031 1033.039062 C 220.546875 1031.800781 220.914062 1030.671875 220.773438 1030.53125 C 220.632812 1030.394531 220.039062 1031.292969 219.449219 1032.527344 M 216.011719 1040 C 214.976562 1042.277344 215.425781 1042.402344 216.699219 1040.191406 C 217.273438 1039.1875 217.523438 1038.363281 217.253906 1038.363281 C 216.980469 1038.363281 216.421875 1039.101562 216.011719 1040 M 314.734375 1039.738281 C 313.863281 1042.65625 313.5625 1054.332031 314.320312 1055.558594 C 314.933594 1056.546875 315.007812 1056.28125 314.773438 1053.9375 C 314.617188 1052.398438 314.710938 1048.332031 314.976562 1044.90625 C 315.488281 1038.390625 315.441406 1037.363281 314.734375 1039.738281 M 212.058594 1048.175781 C 210.785156 1050.660156 209.859375 1052.691406 210.003906 1052.691406 C 210.476562 1052.691406 214.800781 1044.609375 214.585938 1044.128906 C 214.472656 1043.871094 213.335938 1045.691406 212.058594 1048.175781 M 243.152344 1052.539062 C 243.003906 1052.792969 243.109375 1053.566406 243.386719 1054.25 C 243.8125 1055.304688 243.875 1055.230469 243.796875 1053.785156 C 243.695312 1051.976562 243.59375 1051.777344 243.152344 1052.539062 M 208.589844 1054.582031 C 207.476562 1056.371094 207.675781 1056.941406 208.835938 1055.285156 C 209.382812 1054.5 209.722656 1053.75 209.589844 1053.617188 C 209.457031 1053.480469 209.007812 1053.917969 208.589844 1054.582031 M 242.105469 1055.148438 C 242.105469 1055.472656 242.382812 1055.90625 242.71875 1056.117188 C 243.074219 1056.332031 243.175781 1056.082031 242.964844 1055.527344 C 242.550781 1054.449219 242.105469 1054.253906 242.105469 1055.148438 M 242.167969 1057.492188 C 242.621094 1058.25 243.125 1058.734375 243.289062 1058.570312 C 243.453125 1058.40625 243.082031 1057.789062 242.464844 1057.195312 C 241.390625 1056.167969 241.378906 1056.179688 242.167969 1057.492188 M 206.5625 1058.355469 C 206.179688 1059.070312 205.984375 1059.769531 206.128906 1059.914062 C 206.269531 1060.058594 206.707031 1059.472656 207.097656 1058.613281 C 207.957031 1056.730469 207.539062 1056.527344 206.5625 1058.355469 M 314.515625 1069.894531 C 314.378906 1080.921875 314.339844 1081.234375 312.746094 1083.601562 L 311.117188 1086.027344 L 312.738281 1084.523438 C 314.882812 1082.535156 315.089844 1081 314.855469 1068.890625 L 314.65625 1058.613281 Z M 270.0625 1062.816406 C 270.015625 1062.902344 269.914062 1063.667969 269.828125 1064.519531 C 269.652344 1066.265625 270.414062 1067.003906 274.703125 1069.253906 C 277.476562 1070.707031 277.96875 1070.777344 281.007812 1070.144531 C 282.824219 1069.769531 284.734375 1069.121094 285.261719 1068.710938 C 286.402344 1067.808594 287.464844 1064.773438 286.40625 1065.425781 C 286.027344 1065.660156 285.710938 1065.484375 285.707031 1065.035156 C 285.699219 1064.441406 285.53125 1064.476562 285.09375 1065.152344 C 284.761719 1065.667969 284.488281 1066.367188 284.488281 1066.710938 C 284.488281 1067.054688 284.761719 1066.914062 285.09375 1066.398438 C 285.425781 1065.886719 285.703125 1065.761719 285.707031 1066.125 C 285.710938 1066.488281 285.292969 1067.328125 284.773438 1067.996094 C 283.890625 1069.125 283.839844 1069.042969 283.996094 1066.710938 C 284.136719 1064.574219 284.359375 1064.226562 285.5625 1064.269531 C 286.332031 1064.296875 286.960938 1064.085938 286.960938 1063.800781 C 286.960938 1063.515625 286.121094 1063.285156 285.09375 1063.285156 C 283.296875 1063.285156 283.222656 1063.394531 283.222656 1066.050781 C 283.222656 1067.574219 282.945312 1068.992188 282.601562 1069.203125 C 281.984375 1069.585938 281.746094 1068.828125 281.917969 1067.023438 C 281.988281 1066.320312 281.84375 1066.363281 281.335938 1067.183594 C 280.96875 1067.785156 280.835938 1068.558594 281.046875 1068.898438 C 281.257812 1069.238281 281.148438 1069.515625 280.808594 1069.515625 C 280.46875 1069.515625 280.074219 1068.746094 279.933594 1067.800781 L 279.671875 1066.089844 L 279.578125 1067.800781 C 279.488281 1069.5 278.09375 1070.167969 277.304688 1068.890625 C 277.09375 1068.550781 277.375 1068.269531 277.933594 1068.269531 C 278.632812 1068.269531 278.835938 1067.914062 278.585938 1067.132812 C 278.242188 1066.046875 279.003906 1065.398438 281.976562 1064.265625 C 282.492188 1064.070312 281.648438 1064.054688 280.105469 1064.234375 C 278.441406 1064.429688 276.027344 1064.179688 274.183594 1063.617188 C 271.113281 1062.6875 270.214844 1062.511719 270.0625 1062.816406 M 202.515625 1068.3125 C 202.289062 1068.675781 202.238281 1069.109375 202.402344 1069.273438 C 202.5625 1069.4375 202.863281 1069.136719 203.066406 1068.609375 C 203.488281 1067.511719 203.128906 1067.316406 202.515625 1068.3125 M 198.21875 1079.300781 C 197.882812 1080.191406 197.953125 1080.261719 198.566406 1079.652344 C 198.992188 1079.226562 199.183594 1078.726562 198.992188 1078.535156 C 198.800781 1078.339844 198.453125 1078.6875 198.21875 1079.300781 M 147.347656 1088.675781 C 141.691406 1094.453125 132.285156 1104.703125 128.351562 1109.375 C 126.304688 1111.808594 105.441406 1133.203125 94.363281 1144.234375 C 79.414062 1159.113281 63.957031 1173.402344 57.960938 1177.882812 C 47.390625 1185.785156 45.902344 1187.195312 43.839844 1191.25 C 42.320312 1194.242188 41.84375 1196.09375 41.613281 1199.886719 L 41.324219 1204.714844 L 195.375 1204.714844 L 195.375 1203.292969 C 195.375 1201.171875 191.152344 1182.34375 190.050781 1179.566406 C 188.378906 1175.339844 187.257812 1169.707031 186.683594 1162.660156 C 185.957031 1153.730469 183.027344 1142.070312 179.425781 1133.777344 C 177.84375 1130.128906 175.34375 1123.921875 173.871094 1119.980469 C 169.875 1109.292969 163.527344 1096.460938 158.601562 1089.121094 C 156.195312 1085.535156 154.015625 1082.597656 153.761719 1082.597656 C 153.507812 1082.597656 150.621094 1085.332031 147.347656 1088.675781 M 197.019531 1083.976562 C 196.808594 1084.761719 196.664062 1086.105469 196.699219 1086.960938 C 196.734375 1087.878906 196.980469 1087.382812 197.300781 1085.753906 C 197.871094 1082.835938 197.671875 1081.550781 197.019531 1083.976562 M 196.621094 1090.972656 C 196.621094 1091.808594 196.851562 1092.636719 197.132812 1092.808594 C 197.414062 1092.984375 197.519531 1092.300781 197.375 1091.289062 C 197.046875 1089.0625 196.621094 1088.882812 196.621094 1090.972656 M 198.207031 1093.769531 C 198.007812 1094.089844 198.085938 1094.5 198.375 1094.679688 C 198.667969 1094.859375 198.90625 1094.597656 198.90625 1094.097656 C 198.90625 1093.046875 198.710938 1092.957031 198.207031 1093.769531 M 227.199219 1108.507812 C 227.230469 1109.234375 227.378906 1109.382812 227.578125 1108.882812 C 227.757812 1108.433594 227.734375 1107.898438 227.527344 1107.691406 C 227.320312 1107.484375 227.171875 1107.851562 227.199219 1108.507812 M 226.683594 1113.441406 C 226.691406 1114.8125 226.820312 1115.296875 226.96875 1114.523438 C 227.117188 1113.746094 227.113281 1112.625 226.957031 1112.03125 C 226.800781 1111.433594 226.679688 1112.070312 226.683594 1113.441406 M 225.90625 1118.644531 C 225.90625 1120.457031 227.21875 1123.9375 228.289062 1124.964844 C 229.15625 1125.796875 229.1875 1125.796875 228.589844 1124.964844 C 228.214844 1124.453125 227.714844 1122.558594 227.472656 1120.761719 C 227.058594 1117.683594 225.90625 1116.125 225.90625 1118.644531 M 228.734375 1123.054688 C 228.539062 1123.375 228.613281 1123.78125 228.90625 1123.960938 C 229.195312 1124.140625 229.433594 1123.878906 229.433594 1123.382812 C 229.433594 1122.332031 229.238281 1122.238281 228.734375 1123.054688 " fill-opacity="1" fill-rule="evenodd"/></g></g></svg>