<svg width="1441" height="900" viewBox="0 0 1441 900" fill="none" xmlns="http://www.w3.org/2000/svg">
<path d="M1 899.983H1441V6.10352e-05H1V899.983Z" fill="#0E1630"/>
<g style="mix-blend-mode:soft-light">
<path d="M2.27324 770.546C2.97643 770.546 3.54648 769.973 3.54648 769.266C3.54648 768.559 2.97643 767.986 2.27324 767.986C1.57005 767.986 1 768.559 1 769.266C1 769.973 1.57005 770.546 2.27324 770.546Z" fill="white"/>
<path d="M16.8943 770.546C17.5975 770.546 18.1676 769.973 18.1676 769.266C18.1676 768.559 17.5975 767.986 16.8943 767.986C16.1911 767.986 15.6211 768.559 15.6211 769.266C15.6211 769.973 16.1911 770.546 16.8943 770.546Z" fill="white"/>
<path d="M31.526 770.546C32.2292 770.546 32.7993 769.973 32.7993 769.266C32.7993 768.559 32.2292 767.986 31.526 767.986C30.8228 767.986 30.2528 768.559 30.2528 769.266C30.2528 769.973 30.8228 770.546 31.526 770.546Z" fill="white"/>
<path d="M46.1471 770.546C46.8503 770.546 47.4204 769.973 47.4204 769.266C47.4204 768.559 46.8503 767.986 46.1471 767.986C45.4439 767.986 44.8739 768.559 44.8739 769.266C44.8739 769.973 45.4439 770.546 46.1471 770.546Z" fill="white"/>
<path d="M60.7682 770.546C61.4714 770.546 62.0414 769.973 62.0414 769.266C62.0414 768.559 61.4714 767.986 60.7682 767.986C60.065 767.986 59.4949 768.559 59.4949 769.266C59.4949 769.973 60.065 770.546 60.7682 770.546Z" fill="white"/>
<path d="M75.3893 770.546C76.0924 770.546 76.6625 769.973 76.6625 769.266C76.6625 768.559 76.0924 767.986 75.3893 767.986C74.6861 767.986 74.116 768.559 74.116 769.266C74.116 769.973 74.6861 770.546 75.3893 770.546Z" fill="white"/>
<path d="M90.0103 770.546C90.7135 770.546 91.2836 769.973 91.2836 769.266C91.2836 768.559 90.7135 767.986 90.0103 767.986C89.3072 767.986 88.7371 768.559 88.7371 769.266C88.7371 769.973 89.3072 770.546 90.0103 770.546Z" fill="white"/>
<path d="M104.631 770.546C105.335 770.546 105.905 769.973 105.905 769.266C105.905 768.559 105.335 767.986 104.631 767.986C103.928 767.986 103.358 768.559 103.358 769.266C103.358 769.973 103.928 770.546 104.631 770.546Z" fill="white"/>
<path d="M120.526 769.266C120.526 769.97 119.953 770.546 119.253 770.546C118.552 770.546 117.979 769.97 117.979 769.266C117.979 768.562 118.552 767.986 119.253 767.986C119.963 767.986 120.526 768.562 120.526 769.266Z" fill="white"/>
<path d="M133.884 770.546C134.587 770.546 135.157 769.973 135.157 769.266C135.157 768.559 134.587 767.986 133.884 767.986C133.181 767.986 132.611 768.559 132.611 769.266C132.611 769.973 133.181 770.546 133.884 770.546Z" fill="white"/>
<path d="M148.505 770.546C149.208 770.546 149.779 769.973 149.779 769.266C149.779 768.559 149.208 767.986 148.505 767.986C147.802 767.986 147.232 768.559 147.232 769.266C147.232 769.973 147.802 770.546 148.505 770.546Z" fill="white"/>
<path d="M2.27324 784.928C2.97643 784.928 3.54648 784.355 3.54648 783.647C3.54648 782.94 2.97643 782.367 2.27324 782.367C1.57005 782.367 1 782.94 1 783.647C1 784.355 1.57005 784.928 2.27324 784.928Z" fill="white"/>
<path d="M16.8943 784.928C17.5975 784.928 18.1676 784.355 18.1676 783.647C18.1676 782.94 17.5975 782.367 16.8943 782.367C16.1911 782.367 15.6211 782.94 15.6211 783.647C15.6211 784.355 16.1911 784.928 16.8943 784.928Z" fill="white"/>
<path d="M31.526 784.928C32.2292 784.928 32.7993 784.355 32.7993 783.647C32.7993 782.94 32.2292 782.367 31.526 782.367C30.8228 782.367 30.2528 782.94 30.2528 783.647C30.2528 784.355 30.8228 784.928 31.526 784.928Z" fill="white"/>
<path d="M46.1471 784.928C46.8503 784.928 47.4204 784.355 47.4204 783.647C47.4204 782.94 46.8503 782.367 46.1471 782.367C45.4439 782.367 44.8739 782.94 44.8739 783.647C44.8739 784.355 45.4439 784.928 46.1471 784.928Z" fill="white"/>
<path d="M60.7682 784.928C61.4714 784.928 62.0414 784.355 62.0414 783.647C62.0414 782.94 61.4714 782.367 60.7682 782.367C60.065 782.367 59.4949 782.94 59.4949 783.647C59.4949 784.355 60.065 784.928 60.7682 784.928Z" fill="white"/>
<path d="M75.3893 784.928C76.0924 784.928 76.6625 784.355 76.6625 783.647C76.6625 782.94 76.0924 782.367 75.3893 782.367C74.6861 782.367 74.116 782.94 74.116 783.647C74.116 784.355 74.6861 784.928 75.3893 784.928Z" fill="white"/>
<path d="M90.0103 784.928C90.7135 784.928 91.2836 784.355 91.2836 783.647C91.2836 782.94 90.7135 782.367 90.0103 782.367C89.3072 782.367 88.7371 782.94 88.7371 783.647C88.7371 784.355 89.3072 784.928 90.0103 784.928Z" fill="white"/>
<path d="M104.631 784.928C105.335 784.928 105.905 784.355 105.905 783.647C105.905 782.94 105.335 782.367 104.631 782.367C103.928 782.367 103.358 782.94 103.358 783.647C103.358 784.355 103.928 784.928 104.631 784.928Z" fill="white"/>
<path d="M120.526 783.647C120.526 784.352 119.953 784.928 119.253 784.928C118.552 784.928 117.979 784.352 117.979 783.647C117.979 782.943 118.552 782.367 119.253 782.367C119.963 782.378 120.526 782.943 120.526 783.647Z" fill="white"/>
<path d="M133.884 784.928C134.587 784.928 135.157 784.355 135.157 783.647C135.157 782.94 134.587 782.367 133.884 782.367C133.181 782.367 132.611 782.94 132.611 783.647C132.611 784.355 133.181 784.928 133.884 784.928Z" fill="white"/>
<path d="M148.505 784.928C149.208 784.928 149.779 784.355 149.779 783.647C149.779 782.94 149.208 782.367 148.505 782.367C147.802 782.367 147.232 782.94 147.232 783.647C147.232 784.355 147.802 784.928 148.505 784.928Z" fill="white"/>
<path d="M2.27324 799.32C2.97643 799.32 3.54648 798.747 3.54648 798.04C3.54648 797.332 2.97643 796.759 2.27324 796.759C1.57005 796.759 1 797.332 1 798.04C1 798.747 1.57005 799.32 2.27324 799.32Z" fill="white"/>
<path d="M16.8943 799.32C17.5975 799.32 18.1676 798.747 18.1676 798.04C18.1676 797.332 17.5975 796.759 16.8943 796.759C16.1911 796.759 15.6211 797.332 15.6211 798.04C15.6211 798.747 16.1911 799.32 16.8943 799.32Z" fill="white"/>
<path d="M31.526 799.32C32.2292 799.32 32.7993 798.747 32.7993 798.04C32.7993 797.332 32.2292 796.759 31.526 796.759C30.8228 796.759 30.2528 797.332 30.2528 798.04C30.2528 798.747 30.8228 799.32 31.526 799.32Z" fill="white"/>
<path d="M46.1471 799.32C46.8503 799.32 47.4204 798.747 47.4204 798.04C47.4204 797.332 46.8503 796.759 46.1471 796.759C45.4439 796.759 44.8739 797.332 44.8739 798.04C44.8739 798.747 45.4439 799.32 46.1471 799.32Z" fill="white"/>
<path d="M60.7682 799.32C61.4714 799.32 62.0414 798.747 62.0414 798.04C62.0414 797.332 61.4714 796.759 60.7682 796.759C60.065 796.759 59.4949 797.332 59.4949 798.04C59.4949 798.747 60.065 799.32 60.7682 799.32Z" fill="white"/>
<path d="M75.3893 799.32C76.0924 799.32 76.6625 798.747 76.6625 798.04C76.6625 797.332 76.0924 796.759 75.3893 796.759C74.6861 796.759 74.116 797.332 74.116 798.04C74.116 798.747 74.6861 799.32 75.3893 799.32Z" fill="white"/>
<path d="M90.0103 799.32C90.7135 799.32 91.2836 798.747 91.2836 798.04C91.2836 797.332 90.7135 796.759 90.0103 796.759C89.3072 796.759 88.7371 797.332 88.7371 798.04C88.7371 798.747 89.3072 799.32 90.0103 799.32Z" fill="white"/>
<path d="M104.631 799.32C105.335 799.32 105.905 798.747 105.905 798.04C105.905 797.332 105.335 796.759 104.631 796.759C103.928 796.759 103.358 797.332 103.358 798.04C103.358 798.747 103.928 799.32 104.631 799.32Z" fill="white"/>
<path d="M120.526 798.04C120.526 798.744 119.953 799.32 119.253 799.32C118.552 799.32 117.979 798.744 117.979 798.04C117.979 797.335 118.552 796.759 119.253 796.759C119.963 796.759 120.526 797.325 120.526 798.04Z" fill="white"/>
<path d="M133.884 799.32C134.587 799.32 135.157 798.747 135.157 798.04C135.157 797.332 134.587 796.759 133.884 796.759C133.181 796.759 132.611 797.332 132.611 798.04C132.611 798.747 133.181 799.32 133.884 799.32Z" fill="white"/>
<path d="M148.505 799.32C149.208 799.32 149.779 798.747 149.779 798.04C149.779 797.332 149.208 796.759 148.505 796.759C147.802 796.759 147.232 797.332 147.232 798.04C147.232 798.747 147.802 799.32 148.505 799.32Z" fill="white"/>
<path d="M2.27324 813.701C2.97643 813.701 3.54648 813.128 3.54648 812.421C3.54648 811.714 2.97643 811.141 2.27324 811.141C1.57005 811.141 1 811.714 1 812.421C1 813.128 1.57005 813.701 2.27324 813.701Z" fill="white"/>
<path d="M16.8943 813.701C17.5975 813.701 18.1676 813.128 18.1676 812.421C18.1676 811.714 17.5975 811.141 16.8943 811.141C16.1911 811.141 15.6211 811.714 15.6211 812.421C15.6211 813.128 16.1911 813.701 16.8943 813.701Z" fill="white"/>
<path d="M31.526 813.701C32.2292 813.701 32.7993 813.128 32.7993 812.421C32.7993 811.714 32.2292 811.141 31.526 811.141C30.8228 811.141 30.2528 811.714 30.2528 812.421C30.2528 813.128 30.8228 813.701 31.526 813.701Z" fill="white"/>
<path d="M46.1471 813.701C46.8503 813.701 47.4204 813.128 47.4204 812.421C47.4204 811.714 46.8503 811.141 46.1471 811.141C45.4439 811.141 44.8739 811.714 44.8739 812.421C44.8739 813.128 45.4439 813.701 46.1471 813.701Z" fill="white"/>
<path d="M60.7682 813.701C61.4714 813.701 62.0414 813.128 62.0414 812.421C62.0414 811.714 61.4714 811.141 60.7682 811.141C60.065 811.141 59.4949 811.714 59.4949 812.421C59.4949 813.128 60.065 813.701 60.7682 813.701Z" fill="white"/>
<path d="M75.3893 813.701C76.0924 813.701 76.6625 813.128 76.6625 812.421C76.6625 811.714 76.0924 811.141 75.3893 811.141C74.6861 811.141 74.116 811.714 74.116 812.421C74.116 813.128 74.6861 813.701 75.3893 813.701Z" fill="white"/>
<path d="M90.0103 813.701C90.7135 813.701 91.2836 813.128 91.2836 812.421C91.2836 811.714 90.7135 811.141 90.0103 811.141C89.3072 811.141 88.7371 811.714 88.7371 812.421C88.7371 813.128 89.3072 813.701 90.0103 813.701Z" fill="white"/>
<path d="M104.631 813.701C105.335 813.701 105.905 813.128 105.905 812.421C105.905 811.714 105.335 811.141 104.631 811.141C103.928 811.141 103.358 811.714 103.358 812.421C103.358 813.128 103.928 813.701 104.631 813.701Z" fill="white"/>
<path d="M120.526 812.421C120.526 813.125 119.953 813.701 119.253 813.701C118.552 813.701 117.979 813.125 117.979 812.421C117.979 811.717 118.552 811.141 119.253 811.141C119.963 811.141 120.526 811.717 120.526 812.421Z" fill="white"/>
<path d="M133.884 813.701C134.587 813.701 135.157 813.128 135.157 812.421C135.157 811.714 134.587 811.141 133.884 811.141C133.181 811.141 132.611 811.714 132.611 812.421C132.611 813.128 133.181 813.701 133.884 813.701Z" fill="white"/>
<path d="M148.505 813.701C149.208 813.701 149.779 813.128 149.779 812.421C149.779 811.714 149.208 811.141 148.505 811.141C147.802 811.141 147.232 811.714 147.232 812.421C147.232 813.128 147.802 813.701 148.505 813.701Z" fill="white"/>
<path d="M2.27324 828.082C2.97643 828.082 3.54648 827.509 3.54648 826.802C3.54648 826.095 2.97643 825.522 2.27324 825.522C1.57005 825.522 1 826.095 1 826.802C1 827.509 1.57005 828.082 2.27324 828.082Z" fill="white"/>
<path d="M16.8943 828.082C17.5975 828.082 18.1676 827.509 18.1676 826.802C18.1676 826.095 17.5975 825.522 16.8943 825.522C16.1911 825.522 15.6211 826.095 15.6211 826.802C15.6211 827.509 16.1911 828.082 16.8943 828.082Z" fill="white"/>
<path d="M31.526 828.082C32.2292 828.082 32.7993 827.509 32.7993 826.802C32.7993 826.095 32.2292 825.522 31.526 825.522C30.8228 825.522 30.2528 826.095 30.2528 826.802C30.2528 827.509 30.8228 828.082 31.526 828.082Z" fill="white"/>
<path d="M46.1471 828.082C46.8503 828.082 47.4204 827.509 47.4204 826.802C47.4204 826.095 46.8503 825.522 46.1471 825.522C45.4439 825.522 44.8739 826.095 44.8739 826.802C44.8739 827.509 45.4439 828.082 46.1471 828.082Z" fill="white"/>
<path d="M60.7682 828.082C61.4714 828.082 62.0414 827.509 62.0414 826.802C62.0414 826.095 61.4714 825.522 60.7682 825.522C60.065 825.522 59.4949 826.095 59.4949 826.802C59.4949 827.509 60.065 828.082 60.7682 828.082Z" fill="white"/>
<path d="M75.3893 828.082C76.0924 828.082 76.6625 827.509 76.6625 826.802C76.6625 826.095 76.0924 825.522 75.3893 825.522C74.6861 825.522 74.116 826.095 74.116 826.802C74.116 827.509 74.6861 828.082 75.3893 828.082Z" fill="white"/>
<path d="M90.0103 828.082C90.7135 828.082 91.2836 827.509 91.2836 826.802C91.2836 826.095 90.7135 825.522 90.0103 825.522C89.3072 825.522 88.7371 826.095 88.7371 826.802C88.7371 827.509 89.3072 828.082 90.0103 828.082Z" fill="white"/>
<path d="M104.631 828.082C105.335 828.082 105.905 827.509 105.905 826.802C105.905 826.095 105.335 825.522 104.631 825.522C103.928 825.522 103.358 826.095 103.358 826.802C103.358 827.509 103.928 828.082 104.631 828.082Z" fill="white"/>
<path d="M120.526 826.802C120.526 827.506 119.953 828.082 119.253 828.082C118.552 828.082 117.979 827.506 117.979 826.802C117.979 826.098 118.552 825.522 119.253 825.522C119.963 825.522 120.526 826.098 120.526 826.802Z" fill="white"/>
<path d="M133.884 828.082C134.587 828.082 135.157 827.509 135.157 826.802C135.157 826.095 134.587 825.522 133.884 825.522C133.181 825.522 132.611 826.095 132.611 826.802C132.611 827.509 133.181 828.082 133.884 828.082Z" fill="white"/>
<path d="M148.505 828.082C149.208 828.082 149.779 827.509 149.779 826.802C149.779 826.095 149.208 825.522 148.505 825.522C147.802 825.522 147.232 826.095 147.232 826.802C147.232 827.509 147.802 828.082 148.505 828.082Z" fill="white"/>
<path d="M2.27324 842.464C2.97643 842.464 3.54648 841.891 3.54648 841.184C3.54648 840.477 2.97643 839.903 2.27324 839.903C1.57005 839.903 1 840.477 1 841.184C1 841.891 1.57005 842.464 2.27324 842.464Z" fill="white"/>
<path d="M16.8943 842.464C17.5975 842.464 18.1676 841.891 18.1676 841.184C18.1676 840.477 17.5975 839.903 16.8943 839.903C16.1911 839.903 15.6211 840.477 15.6211 841.184C15.6211 841.891 16.1911 842.464 16.8943 842.464Z" fill="white"/>
<path d="M31.526 842.464C32.2292 842.464 32.7993 841.891 32.7993 841.184C32.7993 840.477 32.2292 839.903 31.526 839.903C30.8228 839.903 30.2528 840.477 30.2528 841.184C30.2528 841.891 30.8228 842.464 31.526 842.464Z" fill="white"/>
<path d="M46.1471 842.464C46.8503 842.464 47.4204 841.891 47.4204 841.184C47.4204 840.477 46.8503 839.903 46.1471 839.903C45.4439 839.903 44.8739 840.477 44.8739 841.184C44.8739 841.891 45.4439 842.464 46.1471 842.464Z" fill="white"/>
<path d="M60.7682 842.464C61.4714 842.464 62.0414 841.891 62.0414 841.184C62.0414 840.477 61.4714 839.903 60.7682 839.903C60.065 839.903 59.4949 840.477 59.4949 841.184C59.4949 841.891 60.065 842.464 60.7682 842.464Z" fill="white"/>
<path d="M75.3893 842.464C76.0924 842.464 76.6625 841.891 76.6625 841.184C76.6625 840.477 76.0924 839.903 75.3893 839.903C74.6861 839.903 74.116 840.477 74.116 841.184C74.116 841.891 74.6861 842.464 75.3893 842.464Z" fill="white"/>
<path d="M90.0103 842.464C90.7135 842.464 91.2836 841.891 91.2836 841.184C91.2836 840.477 90.7135 839.903 90.0103 839.903C89.3072 839.903 88.7371 840.477 88.7371 841.184C88.7371 841.891 89.3072 842.464 90.0103 842.464Z" fill="white"/>
<path d="M104.631 842.464C105.335 842.464 105.905 841.891 105.905 841.184C105.905 840.477 105.335 839.903 104.631 839.903C103.928 839.903 103.358 840.477 103.358 841.184C103.358 841.891 103.928 842.464 104.631 842.464Z" fill="white"/>
<path d="M120.526 841.184C120.526 841.888 119.953 842.464 119.253 842.464C118.552 842.464 117.979 841.888 117.979 841.184C117.979 840.48 118.552 839.903 119.253 839.903C119.963 839.903 120.526 840.48 120.526 841.184Z" fill="white"/>
<path d="M133.884 842.464C134.587 842.464 135.157 841.891 135.157 841.184C135.157 840.477 134.587 839.903 133.884 839.903C133.181 839.903 132.611 840.477 132.611 841.184C132.611 841.891 133.181 842.464 133.884 842.464Z" fill="white"/>
<path d="M148.505 842.464C149.208 842.464 149.779 841.891 149.779 841.184C149.779 840.477 149.208 839.903 148.505 839.903C147.802 839.903 147.232 840.477 147.232 841.184C147.232 841.891 147.802 842.464 148.505 842.464Z" fill="white"/>
<path d="M2.27324 856.845C2.97643 856.845 3.54648 856.272 3.54648 855.565C3.54648 854.858 2.97643 854.285 2.27324 854.285C1.57005 854.285 1 854.858 1 855.565C1 856.272 1.57005 856.845 2.27324 856.845Z" fill="white"/>
<path d="M16.8943 856.845C17.5975 856.845 18.1676 856.272 18.1676 855.565C18.1676 854.858 17.5975 854.285 16.8943 854.285C16.1911 854.285 15.6211 854.858 15.6211 855.565C15.6211 856.272 16.1911 856.845 16.8943 856.845Z" fill="white"/>
<path d="M31.526 856.845C32.2292 856.845 32.7993 856.272 32.7993 855.565C32.7993 854.858 32.2292 854.285 31.526 854.285C30.8228 854.285 30.2528 854.858 30.2528 855.565C30.2528 856.272 30.8228 856.845 31.526 856.845Z" fill="white"/>
<path d="M46.1471 856.845C46.8503 856.845 47.4204 856.272 47.4204 855.565C47.4204 854.858 46.8503 854.285 46.1471 854.285C45.4439 854.285 44.8739 854.858 44.8739 855.565C44.8739 856.272 45.4439 856.845 46.1471 856.845Z" fill="white"/>
<path d="M60.7682 856.845C61.4714 856.845 62.0414 856.272 62.0414 855.565C62.0414 854.858 61.4714 854.285 60.7682 854.285C60.065 854.285 59.4949 854.858 59.4949 855.565C59.4949 856.272 60.065 856.845 60.7682 856.845Z" fill="white"/>
<path d="M75.3893 856.845C76.0924 856.845 76.6625 856.272 76.6625 855.565C76.6625 854.858 76.0924 854.285 75.3893 854.285C74.6861 854.285 74.116 854.858 74.116 855.565C74.116 856.272 74.6861 856.845 75.3893 856.845Z" fill="white"/>
<path d="M90.0103 856.845C90.7135 856.845 91.2836 856.272 91.2836 855.565C91.2836 854.858 90.7135 854.285 90.0103 854.285C89.3072 854.285 88.7371 854.858 88.7371 855.565C88.7371 856.272 89.3072 856.845 90.0103 856.845Z" fill="white"/>
<path d="M104.631 856.845C105.335 856.845 105.905 856.272 105.905 855.565C105.905 854.858 105.335 854.285 104.631 854.285C103.928 854.285 103.358 854.858 103.358 855.565C103.358 856.272 103.928 856.845 104.631 856.845Z" fill="white"/>
<path d="M120.526 855.565C120.526 856.269 119.953 856.845 119.253 856.845C118.552 856.845 117.979 856.269 117.979 855.565C117.979 854.861 118.552 854.285 119.253 854.285C119.963 854.295 120.526 854.861 120.526 855.565Z" fill="white"/>
<path d="M133.884 856.845C134.587 856.845 135.157 856.272 135.157 855.565C135.157 854.858 134.587 854.285 133.884 854.285C133.181 854.285 132.611 854.858 132.611 855.565C132.611 856.272 133.181 856.845 133.884 856.845Z" fill="white"/>
<path d="M148.505 856.845C149.208 856.845 149.779 856.272 149.779 855.565C149.779 854.858 149.208 854.285 148.505 854.285C147.802 854.285 147.232 854.858 147.232 855.565C147.232 856.272 147.802 856.845 148.505 856.845Z" fill="white"/>
<path d="M3.54648 869.957C3.54648 870.661 2.97352 871.237 2.27324 871.237C1.57296 871.237 1 870.661 1 869.957C1 869.253 1.57296 868.677 2.27324 868.677C2.97352 868.677 3.54648 869.242 3.54648 869.957Z" fill="white"/>
<path d="M18.1676 869.957C18.1676 870.661 17.5946 871.237 16.8943 871.237C16.1941 871.237 15.6211 870.661 15.6211 869.957C15.6211 869.253 16.1941 868.677 16.8943 868.677C17.6052 868.677 18.1676 869.242 18.1676 869.957Z" fill="white"/>
<path d="M32.7886 869.957C32.7886 870.661 32.2157 871.237 31.5154 871.237C30.8151 871.237 30.2422 870.661 30.2422 869.957C30.2422 869.253 30.8151 868.677 31.5154 868.677C32.2263 868.677 32.7886 869.242 32.7886 869.957Z" fill="white"/>
<path d="M47.4204 869.957C47.4204 870.661 46.8474 871.237 46.1471 871.237C45.4468 871.237 44.8739 870.661 44.8739 869.957C44.8739 869.253 45.4468 868.677 46.1471 868.677C46.8474 868.677 47.4204 869.242 47.4204 869.957Z" fill="white"/>
<path d="M62.0414 869.957C62.0414 870.661 61.4684 871.237 60.7682 871.237C60.0679 871.237 59.4949 870.661 59.4949 869.957C59.4949 869.253 60.0679 868.677 60.7682 868.677C61.4684 868.677 62.0414 869.242 62.0414 869.957Z" fill="white"/>
<path d="M76.6625 869.957C76.6625 870.661 76.0895 871.237 75.3893 871.237C74.689 871.237 74.116 870.661 74.116 869.957C74.116 869.253 74.689 868.677 75.3893 868.677C76.0895 868.677 76.6625 869.242 76.6625 869.957Z" fill="white"/>
<path d="M91.2836 869.957C91.2836 870.661 90.7106 871.237 90.0103 871.237C89.3101 871.237 88.7371 870.661 88.7371 869.957C88.7371 869.253 89.3101 868.677 90.0103 868.677C90.7106 868.677 91.2836 869.242 91.2836 869.957Z" fill="white"/>
<path d="M105.905 869.957C105.905 870.661 105.332 871.237 104.631 871.237C103.931 871.237 103.358 870.661 103.358 869.957C103.358 869.253 103.931 868.677 104.631 868.677C105.342 868.677 105.905 869.242 105.905 869.957Z" fill="white"/>
<path d="M120.526 869.957C120.526 870.661 119.953 871.237 119.253 871.237C118.552 871.237 117.979 870.661 117.979 869.957C117.979 869.253 118.552 868.677 119.253 868.677C119.963 868.677 120.526 869.242 120.526 869.957Z" fill="white"/>
<path d="M135.157 869.957C135.157 870.661 134.585 871.237 133.884 871.237C133.184 871.237 132.611 870.661 132.611 869.957C132.611 869.253 133.184 868.677 133.884 868.677C134.585 868.677 135.157 869.242 135.157 869.957Z" fill="white"/>
<path d="M149.779 869.957C149.779 870.661 149.206 871.237 148.505 871.237C147.805 871.237 147.232 870.661 147.232 869.957C147.232 869.253 147.805 868.677 148.505 868.677C149.206 868.677 149.779 869.242 149.779 869.957Z" fill="white"/>
<path d="M2.27324 885.619C2.97643 885.619 3.54648 885.046 3.54648 884.339C3.54648 883.631 2.97643 883.058 2.27324 883.058C1.57005 883.058 1 883.631 1 884.339C1 885.046 1.57005 885.619 2.27324 885.619Z" fill="white"/>
<path d="M16.8943 885.619C17.5975 885.619 18.1676 885.046 18.1676 884.339C18.1676 883.631 17.5975 883.058 16.8943 883.058C16.1911 883.058 15.6211 883.631 15.6211 884.339C15.6211 885.046 16.1911 885.619 16.8943 885.619Z" fill="white"/>
<path d="M31.526 885.619C32.2292 885.619 32.7993 885.046 32.7993 884.339C32.7993 883.631 32.2292 883.058 31.526 883.058C30.8228 883.058 30.2528 883.631 30.2528 884.339C30.2528 885.046 30.8228 885.619 31.526 885.619Z" fill="white"/>
<path d="M46.1471 885.619C46.8503 885.619 47.4204 885.046 47.4204 884.339C47.4204 883.631 46.8503 883.058 46.1471 883.058C45.4439 883.058 44.8739 883.631 44.8739 884.339C44.8739 885.046 45.4439 885.619 46.1471 885.619Z" fill="white"/>
<path d="M60.7682 885.619C61.4714 885.619 62.0414 885.046 62.0414 884.339C62.0414 883.631 61.4714 883.058 60.7682 883.058C60.065 883.058 59.4949 883.631 59.4949 884.339C59.4949 885.046 60.065 885.619 60.7682 885.619Z" fill="white"/>
<path d="M75.3893 885.619C76.0924 885.619 76.6625 885.046 76.6625 884.339C76.6625 883.631 76.0924 883.058 75.3893 883.058C74.6861 883.058 74.116 883.631 74.116 884.339C74.116 885.046 74.6861 885.619 75.3893 885.619Z" fill="white"/>
<path d="M90.0103 885.619C90.7135 885.619 91.2836 885.046 91.2836 884.339C91.2836 883.631 90.7135 883.058 90.0103 883.058C89.3072 883.058 88.7371 883.631 88.7371 884.339C88.7371 885.046 89.3072 885.619 90.0103 885.619Z" fill="white"/>
<path d="M104.631 885.619C105.335 885.619 105.905 885.046 105.905 884.339C105.905 883.631 105.335 883.058 104.631 883.058C103.928 883.058 103.358 883.631 103.358 884.339C103.358 885.046 103.928 885.619 104.631 885.619Z" fill="white"/>
<path d="M120.526 884.339C120.526 885.043 119.953 885.619 119.253 885.619C118.552 885.619 117.979 885.043 117.979 884.339C117.979 883.634 118.552 883.058 119.253 883.058C119.963 883.058 120.526 883.634 120.526 884.339Z" fill="white"/>
<path d="M133.884 885.619C134.587 885.619 135.157 885.046 135.157 884.339C135.157 883.631 134.587 883.058 133.884 883.058C133.181 883.058 132.611 883.631 132.611 884.339C132.611 885.046 133.181 885.619 133.884 885.619Z" fill="white"/>
<path d="M148.505 885.619C149.208 885.619 149.779 885.046 149.779 884.339C149.779 883.631 149.208 883.058 148.505 883.058C147.802 883.058 147.232 883.631 147.232 884.339C147.232 885.046 147.802 885.619 148.505 885.619Z" fill="white"/>
<path d="M2.27324 900C2.97643 900 3.54648 899.427 3.54648 898.72C3.54648 898.013 2.97643 897.44 2.27324 897.44C1.57005 897.44 1 898.013 1 898.72C1 899.427 1.57005 900 2.27324 900Z" fill="white"/>
<path d="M16.8943 900C17.5975 900 18.1676 899.427 18.1676 898.72C18.1676 898.013 17.5975 897.44 16.8943 897.44C16.1911 897.44 15.6211 898.013 15.6211 898.72C15.6211 899.427 16.1911 900 16.8943 900Z" fill="white"/>
<path d="M31.526 900C32.2292 900 32.7993 899.427 32.7993 898.72C32.7993 898.013 32.2292 897.44 31.526 897.44C30.8228 897.44 30.2528 898.013 30.2528 898.72C30.2528 899.427 30.8228 900 31.526 900Z" fill="white"/>
<path d="M46.1471 900C46.8503 900 47.4204 899.427 47.4204 898.72C47.4204 898.013 46.8503 897.44 46.1471 897.44C45.4439 897.44 44.8739 898.013 44.8739 898.72C44.8739 899.427 45.4439 900 46.1471 900Z" fill="white"/>
<path d="M60.7682 900C61.4714 900 62.0414 899.427 62.0414 898.72C62.0414 898.013 61.4714 897.44 60.7682 897.44C60.065 897.44 59.4949 898.013 59.4949 898.72C59.4949 899.427 60.065 900 60.7682 900Z" fill="white"/>
<path d="M75.3893 900C76.0924 900 76.6625 899.427 76.6625 898.72C76.6625 898.013 76.0924 897.44 75.3893 897.44C74.6861 897.44 74.116 898.013 74.116 898.72C74.116 899.427 74.6861 900 75.3893 900Z" fill="white"/>
<path d="M90.0103 900C90.7135 900 91.2836 899.427 91.2836 898.72C91.2836 898.013 90.7135 897.44 90.0103 897.44C89.3072 897.44 88.7371 898.013 88.7371 898.72C88.7371 899.427 89.3072 900 90.0103 900Z" fill="white"/>
<path d="M104.631 900C105.335 900 105.905 899.427 105.905 898.72C105.905 898.013 105.335 897.44 104.631 897.44C103.928 897.44 103.358 898.013 103.358 898.72C103.358 899.427 103.928 900 104.631 900Z" fill="white"/>
<path d="M120.526 898.72C120.526 899.424 119.953 900 119.253 900C118.552 900 117.979 899.424 117.979 898.72C117.979 898.016 118.552 897.44 119.253 897.44C119.963 897.44 120.526 898.016 120.526 898.72Z" fill="white"/>
<path d="M133.884 900C134.587 900 135.157 899.427 135.157 898.72C135.157 898.013 134.587 897.44 133.884 897.44C133.181 897.44 132.611 898.013 132.611 898.72C132.611 899.427 133.181 900 133.884 900Z" fill="white"/>
<path d="M148.505 900C149.208 900 149.779 899.427 149.779 898.72C149.779 898.013 149.208 897.44 148.505 897.44C147.802 897.44 147.232 898.013 147.232 898.72C147.232 899.427 147.802 900 148.505 900Z" fill="white"/>
</g>
<g opacity="0.5">
<path opacity="0.5" d="M16.4202 3.70515C16.4202 5.74506 14.7164 7.41029 12.6291 7.41029C10.5418 7.41029 8.83792 5.74506 8.83792 3.70515C8.83792 1.66523 10.5418 0 12.6291 0C14.7164 0 16.4202 1.66523 16.4202 3.70515Z" fill="white"/>
<path opacity="0.5" d="M45.2373 7.41029C47.3311 7.41029 49.0285 5.75144 49.0285 3.70515C49.0285 1.65885 47.3311 0 45.2373 0C43.1435 0 41.4462 1.65885 41.4462 3.70515C41.4462 5.75144 43.1435 7.41029 45.2373 7.41029Z" fill="white"/>
<path opacity="0.5" d="M77.8243 7.41029C79.9181 7.41029 81.6155 5.75144 81.6155 3.70515C81.6155 1.65885 79.9181 0 77.8243 0C75.7305 0 74.0331 1.65885 74.0331 3.70515C74.0331 5.75144 75.7305 7.41029 77.8243 7.41029Z" fill="white"/>
<path opacity="0.5" d="M114.224 3.70515C114.224 5.74506 112.52 7.41029 110.433 7.41029C108.345 7.41029 106.641 5.74506 106.641 3.70515C106.641 1.66523 108.345 0 110.433 0C112.52 0 114.224 1.66523 114.224 3.70515Z" fill="white"/>
<path opacity="0.5" d="M143.019 7.41029C145.113 7.41029 146.811 5.75144 146.811 3.70515C146.811 1.65885 145.113 0 143.019 0C140.926 0 139.228 1.65885 139.228 3.70515C139.228 5.75144 140.926 7.41029 143.019 7.41029Z" fill="white"/>
<path opacity="0.5" d="M175.628 7.41029C177.722 7.41029 179.419 5.75144 179.419 3.70515C179.419 1.65885 177.722 0 175.628 0C173.534 0 171.837 1.65885 171.837 3.70515C171.837 5.75144 173.534 7.41029 175.628 7.41029Z" fill="white"/>
<path opacity="0.5" d="M208.215 7.41029C210.309 7.41029 212.006 5.75144 212.006 3.70515C212.006 1.65885 210.309 0 208.215 0C206.121 0 204.424 1.65885 204.424 3.70515C204.424 5.75144 206.121 7.41029 208.215 7.41029Z" fill="white"/>
<path opacity="0.5" d="M240.823 7.41029C242.917 7.41029 244.614 5.75144 244.614 3.70515C244.614 1.65885 242.917 0 240.823 0C238.729 0 237.032 1.65885 237.032 3.70515C237.032 5.75144 238.729 7.41029 240.823 7.41029Z" fill="white"/>
<path opacity="0.5" d="M16.4202 35.5528C16.4202 37.5927 14.7164 39.2579 12.6291 39.2579C10.5418 39.2579 8.83792 37.5927 8.83792 35.5528C8.83792 33.5129 10.5418 31.8476 12.6291 31.8476C14.7164 31.8684 16.4202 33.5129 16.4202 35.5528Z" fill="white"/>
<path opacity="0.5" d="M45.2373 39.2579C47.3311 39.2579 49.0285 37.5991 49.0285 35.5528C49.0285 33.5065 47.3311 31.8476 45.2373 31.8476C43.1435 31.8476 41.4462 33.5065 41.4462 35.5528C41.4462 37.5991 43.1435 39.2579 45.2373 39.2579Z" fill="white"/>
<path opacity="0.5" d="M77.8243 39.2579C79.9181 39.2579 81.6155 37.5991 81.6155 35.5528C81.6155 33.5065 79.9181 31.8476 77.8243 31.8476C75.7305 31.8476 74.0331 33.5065 74.0331 35.5528C74.0331 37.5991 75.7305 39.2579 77.8243 39.2579Z" fill="white"/>
<path opacity="0.5" d="M114.224 35.5528C114.224 37.5927 112.52 39.2579 110.433 39.2579C108.345 39.2579 106.641 37.5927 106.641 35.5528C106.641 33.5129 108.345 31.8476 110.433 31.8476C112.52 31.8684 114.224 33.5129 114.224 35.5528Z" fill="white"/>
<path opacity="0.5" d="M143.019 39.2579C145.113 39.2579 146.811 37.5991 146.811 35.5528C146.811 33.5065 145.113 31.8476 143.019 31.8476C140.926 31.8476 139.228 33.5065 139.228 35.5528C139.228 37.5991 140.926 39.2579 143.019 39.2579Z" fill="white"/>
<path opacity="0.5" d="M175.628 39.2579C177.722 39.2579 179.419 37.5991 179.419 35.5528C179.419 33.5065 177.722 31.8476 175.628 31.8476C173.534 31.8476 171.837 33.5065 171.837 35.5528C171.837 37.5991 173.534 39.2579 175.628 39.2579Z" fill="white"/>
<path opacity="0.5" d="M208.215 39.2579C210.309 39.2579 212.006 37.5991 212.006 35.5528C212.006 33.5065 210.309 31.8476 208.215 31.8476C206.121 31.8476 204.424 33.5065 204.424 35.5528C204.424 37.5991 206.121 39.2579 208.215 39.2579Z" fill="white"/>
<path opacity="0.5" d="M240.823 39.2579C242.917 39.2579 244.614 37.5991 244.614 35.5528C244.614 33.5065 242.917 31.8476 240.823 31.8476C238.729 31.8476 237.032 33.5065 237.032 35.5528C237.032 37.5991 238.729 39.2579 240.823 39.2579Z" fill="white"/>
<path opacity="0.5" d="M16.4202 67.4211C16.4202 69.4611 14.7164 71.1263 12.6291 71.1263C10.5418 71.1263 8.83792 69.4611 8.83792 67.4211C8.83792 65.3812 10.5418 63.716 12.6291 63.716C14.7164 63.716 16.4202 65.3812 16.4202 67.4211Z" fill="white"/>
<path opacity="0.5" d="M45.2373 71.1263C47.3311 71.1263 49.0285 69.4674 49.0285 67.4211C49.0285 65.3749 47.3311 63.716 45.2373 63.716C43.1435 63.716 41.4462 65.3749 41.4462 67.4211C41.4462 69.4674 43.1435 71.1263 45.2373 71.1263Z" fill="white"/>
<path opacity="0.5" d="M77.8243 71.1263C79.9181 71.1263 81.6155 69.4674 81.6155 67.4211C81.6155 65.3749 79.9181 63.716 77.8243 63.716C75.7305 63.716 74.0331 65.3749 74.0331 67.4211C74.0331 69.4674 75.7305 71.1263 77.8243 71.1263Z" fill="white"/>
<path opacity="0.5" d="M114.224 67.4211C114.224 69.4611 112.52 71.1263 110.433 71.1263C108.345 71.1263 106.641 69.4611 106.641 67.4211C106.641 65.3812 108.345 63.716 110.433 63.716C112.52 63.716 114.224 65.3812 114.224 67.4211Z" fill="white"/>
<path opacity="0.5" d="M143.019 71.1263C145.113 71.1263 146.811 69.4674 146.811 67.4211C146.811 65.3749 145.113 63.716 143.019 63.716C140.926 63.716 139.228 65.3749 139.228 67.4211C139.228 69.4674 140.926 71.1263 143.019 71.1263Z" fill="white"/>
<path opacity="0.5" d="M175.628 71.1263C177.722 71.1263 179.419 69.4674 179.419 67.4211C179.419 65.3749 177.722 63.716 175.628 63.716C173.534 63.716 171.837 65.3749 171.837 67.4211C171.837 69.4674 173.534 71.1263 175.628 71.1263Z" fill="white"/>
<path opacity="0.5" d="M208.215 71.1263C210.309 71.1263 212.006 69.4674 212.006 67.4211C212.006 65.3749 210.309 63.716 208.215 63.716C206.121 63.716 204.424 65.3749 204.424 67.4211C204.424 69.4674 206.121 71.1263 208.215 71.1263Z" fill="white"/>
<path opacity="0.5" d="M240.823 71.1263C242.917 71.1263 244.614 69.4674 244.614 67.4211C244.614 65.3749 242.917 63.716 240.823 63.716C238.729 63.716 237.032 65.3749 237.032 67.4211C237.032 69.4674 238.729 71.1263 240.823 71.1263Z" fill="white"/>
<path opacity="0.5" d="M16.4202 99.2689C16.4202 101.309 14.7164 102.974 12.6291 102.974C10.5418 102.974 8.83792 101.309 8.83792 99.2689C8.83792 97.229 10.5418 95.5637 12.6291 95.5637C14.7164 95.5845 16.4202 97.229 16.4202 99.2689Z" fill="white"/>
<path opacity="0.5" d="M45.2373 102.974C47.3311 102.974 49.0285 101.315 49.0285 99.2689C49.0285 97.2226 47.3311 95.5637 45.2373 95.5637C43.1435 95.5637 41.4462 97.2226 41.4462 99.2689C41.4462 101.315 43.1435 102.974 45.2373 102.974Z" fill="white"/>
<path opacity="0.5" d="M77.8243 102.974C79.9181 102.974 81.6155 101.315 81.6155 99.2689C81.6155 97.2226 79.9181 95.5637 77.8243 95.5637C75.7305 95.5637 74.0331 97.2226 74.0331 99.2689C74.0331 101.315 75.7305 102.974 77.8243 102.974Z" fill="white"/>
<path opacity="0.5" d="M114.224 99.2689C114.224 101.309 112.52 102.974 110.433 102.974C108.345 102.974 106.641 101.309 106.641 99.2689C106.641 97.229 108.345 95.5637 110.433 95.5637C112.52 95.5845 114.224 97.229 114.224 99.2689Z" fill="white"/>
<path opacity="0.5" d="M143.019 102.974C145.113 102.974 146.811 101.315 146.811 99.2689C146.811 97.2226 145.113 95.5637 143.019 95.5637C140.926 95.5637 139.228 97.2226 139.228 99.2689C139.228 101.315 140.926 102.974 143.019 102.974Z" fill="white"/>
<path opacity="0.5" d="M175.628 102.974C177.722 102.974 179.419 101.315 179.419 99.2689C179.419 97.2226 177.722 95.5637 175.628 95.5637C173.534 95.5637 171.837 97.2226 171.837 99.2689C171.837 101.315 173.534 102.974 175.628 102.974Z" fill="white"/>
<path opacity="0.5" d="M208.215 102.974C210.309 102.974 212.006 101.315 212.006 99.2689C212.006 97.2226 210.309 95.5637 208.215 95.5637C206.121 95.5637 204.424 97.2226 204.424 99.2689C204.424 101.315 206.121 102.974 208.215 102.974Z" fill="white"/>
<path opacity="0.5" d="M240.823 102.974C242.917 102.974 244.614 101.315 244.614 99.2689C244.614 97.2226 242.917 95.5637 240.823 95.5637C238.729 95.5637 237.032 97.2226 237.032 99.2689C237.032 101.315 238.729 102.974 240.823 102.974Z" fill="white"/>
<path opacity="0.5" d="M16.4202 131.137C16.4202 133.177 14.7164 134.842 12.6291 134.842C10.5418 134.842 8.83792 133.177 8.83792 131.137C8.83792 129.097 10.5418 127.432 12.6291 127.432C14.7164 127.432 16.4202 129.097 16.4202 131.137Z" fill="white"/>
<path opacity="0.5" d="M45.2373 134.842C47.3311 134.842 49.0285 133.184 49.0285 131.137C49.0285 129.091 47.3311 127.432 45.2373 127.432C43.1435 127.432 41.4462 129.091 41.4462 131.137C41.4462 133.184 43.1435 134.842 45.2373 134.842Z" fill="white"/>
<path opacity="0.5" d="M77.8243 134.842C79.9181 134.842 81.6155 133.184 81.6155 131.137C81.6155 129.091 79.9181 127.432 77.8243 127.432C75.7305 127.432 74.0331 129.091 74.0331 131.137C74.0331 133.184 75.7305 134.842 77.8243 134.842Z" fill="white"/>
<path opacity="0.5" d="M114.224 131.137C114.224 133.177 112.52 134.842 110.433 134.842C108.345 134.842 106.641 133.177 106.641 131.137C106.641 129.097 108.345 127.432 110.433 127.432C112.52 127.432 114.224 129.097 114.224 131.137Z" fill="white"/>
<path opacity="0.5" d="M143.019 134.842C145.113 134.842 146.811 133.184 146.811 131.137C146.811 129.091 145.113 127.432 143.019 127.432C140.926 127.432 139.228 129.091 139.228 131.137C139.228 133.184 140.926 134.842 143.019 134.842Z" fill="white"/>
<path opacity="0.5" d="M175.628 134.842C177.722 134.842 179.419 133.184 179.419 131.137C179.419 129.091 177.722 127.432 175.628 127.432C173.534 127.432 171.837 129.091 171.837 131.137C171.837 133.184 173.534 134.842 175.628 134.842Z" fill="white"/>
<path opacity="0.5" d="M208.215 134.842C210.309 134.842 212.006 133.184 212.006 131.137C212.006 129.091 210.309 127.432 208.215 127.432C206.121 127.432 204.424 129.091 204.424 131.137C204.424 133.184 206.121 134.842 208.215 134.842Z" fill="white"/>
<path opacity="0.5" d="M240.823 134.842C242.917 134.842 244.614 133.184 244.614 131.137C244.614 129.091 242.917 127.432 240.823 127.432C238.729 127.432 237.032 129.091 237.032 131.137C237.032 133.184 238.729 134.842 240.823 134.842Z" fill="white"/>
<path opacity="0.5" d="M16.4202 163.006C16.4202 165.046 14.7164 166.711 12.6291 166.711C10.5418 166.711 8.83792 165.046 8.83792 163.006C8.83792 160.966 10.5418 159.301 12.6291 159.301C14.7164 159.301 16.4202 160.945 16.4202 163.006Z" fill="white"/>
<path opacity="0.5" d="M45.2373 166.711C47.3311 166.711 49.0285 165.052 49.0285 163.006C49.0285 160.96 47.3311 159.301 45.2373 159.301C43.1435 159.301 41.4462 160.96 41.4462 163.006C41.4462 165.052 43.1435 166.711 45.2373 166.711Z" fill="white"/>
<path opacity="0.5" d="M77.8243 166.711C79.9181 166.711 81.6155 165.052 81.6155 163.006C81.6155 160.96 79.9181 159.301 77.8243 159.301C75.7305 159.301 74.0331 160.96 74.0331 163.006C74.0331 165.052 75.7305 166.711 77.8243 166.711Z" fill="white"/>
<path opacity="0.5" d="M114.224 163.006C114.224 165.046 112.52 166.711 110.433 166.711C108.345 166.711 106.641 165.046 106.641 163.006C106.641 160.966 108.345 159.301 110.433 159.301C112.52 159.301 114.224 160.945 114.224 163.006Z" fill="white"/>
<path opacity="0.5" d="M143.019 166.711C145.113 166.711 146.811 165.052 146.811 163.006C146.811 160.96 145.113 159.301 143.019 159.301C140.926 159.301 139.228 160.96 139.228 163.006C139.228 165.052 140.926 166.711 143.019 166.711Z" fill="white"/>
<path opacity="0.5" d="M175.628 166.711C177.722 166.711 179.419 165.052 179.419 163.006C179.419 160.96 177.722 159.301 175.628 159.301C173.534 159.301 171.837 160.96 171.837 163.006C171.837 165.052 173.534 166.711 175.628 166.711Z" fill="white"/>
<path opacity="0.5" d="M208.215 166.711C210.309 166.711 212.006 165.052 212.006 163.006C212.006 160.96 210.309 159.301 208.215 159.301C206.121 159.301 204.424 160.96 204.424 163.006C204.424 165.052 206.121 166.711 208.215 166.711Z" fill="white"/>
<path opacity="0.5" d="M240.823 166.711C242.917 166.711 244.614 165.052 244.614 163.006C244.614 160.96 242.917 159.301 240.823 159.301C238.729 159.301 237.032 160.96 237.032 163.006C237.032 165.052 238.729 166.711 240.823 166.711Z" fill="white"/>
</g>
<g opacity="0.5">
<path opacity="0.5" d="M1311.15 561.268C1313.24 561.268 1314.94 559.609 1314.94 557.563C1314.94 555.516 1313.24 553.857 1311.15 553.857C1309.05 553.857 1307.35 555.516 1307.35 557.563C1307.35 559.609 1309.05 561.268 1311.15 561.268Z" fill="white"/>
<path opacity="0.5" d="M1311.15 593.136C1313.24 593.136 1314.94 591.477 1314.94 589.431C1314.94 587.385 1313.24 585.726 1311.15 585.726C1309.05 585.726 1307.35 587.385 1307.35 589.431C1307.35 591.477 1309.05 593.136 1311.15 593.136Z" fill="white"/>
<path opacity="0.5" d="M1311.15 624.984C1313.24 624.984 1314.94 623.325 1314.94 621.279C1314.94 619.232 1313.24 617.573 1311.15 617.573C1309.05 617.573 1307.35 619.232 1307.35 621.279C1307.35 623.325 1309.05 624.984 1311.15 624.984Z" fill="white"/>
<path opacity="0.5" d="M1311.15 656.852C1313.24 656.852 1314.94 655.193 1314.94 653.147C1314.94 651.101 1313.24 649.442 1311.15 649.442C1309.05 649.442 1307.35 651.101 1307.35 653.147C1307.35 655.193 1309.05 656.852 1311.15 656.852Z" fill="white"/>
<path opacity="0.5" d="M1311.15 688.7C1313.24 688.7 1314.94 687.041 1314.94 684.995C1314.94 682.948 1313.24 681.29 1311.15 681.29C1309.05 681.29 1307.35 682.948 1307.35 684.995C1307.35 687.041 1309.05 688.7 1311.15 688.7Z" fill="white"/>
<path opacity="0.5" d="M1311.15 720.568C1313.24 720.568 1314.94 718.909 1314.94 716.863C1314.94 714.817 1313.24 713.158 1311.15 713.158C1309.05 713.158 1307.35 714.817 1307.35 716.863C1307.35 718.909 1309.05 720.568 1311.15 720.568Z" fill="white"/>
<path opacity="0.5" d="M1311.15 752.416C1313.24 752.416 1314.94 750.757 1314.94 748.711C1314.94 746.665 1313.24 745.006 1311.15 745.006C1309.05 745.006 1307.35 746.665 1307.35 748.711C1307.35 750.757 1309.05 752.416 1311.15 752.416Z" fill="white"/>
<path opacity="0.5" d="M1311.15 784.263C1309.06 784.263 1307.35 782.598 1307.35 780.558C1307.35 778.518 1309.06 776.853 1311.15 776.853C1313.23 776.853 1314.94 778.518 1314.94 780.558C1314.94 782.619 1313.23 784.263 1311.15 784.263Z" fill="white"/>
<path opacity="0.5" d="M1278.56 561.268C1276.47 561.268 1274.77 559.602 1274.77 557.563C1274.77 555.523 1276.47 553.857 1278.56 553.857C1280.65 553.857 1282.35 555.523 1282.35 557.563C1282.33 559.602 1280.65 561.268 1278.56 561.268Z" fill="white"/>
<path opacity="0.5" d="M1278.56 593.115C1276.47 593.115 1274.77 591.45 1274.77 589.41C1274.77 587.37 1276.47 585.705 1278.56 585.705C1280.65 585.705 1282.35 587.37 1282.35 589.41C1282.33 591.471 1280.65 593.115 1278.56 593.115Z" fill="white"/>
<path opacity="0.5" d="M1278.56 624.984C1276.47 624.984 1274.77 623.318 1274.77 621.279C1274.77 619.239 1276.47 617.573 1278.56 617.573C1280.65 617.573 1282.35 619.239 1282.35 621.279C1282.33 623.318 1280.65 624.984 1278.56 624.984Z" fill="white"/>
<path opacity="0.5" d="M1278.56 656.831C1276.47 656.831 1274.77 655.166 1274.77 653.126C1274.77 651.086 1276.47 649.421 1278.56 649.421C1280.65 649.421 1282.35 651.086 1282.35 653.126C1282.33 655.187 1280.65 656.831 1278.56 656.831Z" fill="white"/>
<path opacity="0.5" d="M1278.56 688.7C1276.47 688.7 1274.77 687.035 1274.77 684.995C1274.77 682.955 1276.47 681.29 1278.56 681.29C1280.65 681.29 1282.35 682.955 1282.35 684.995C1282.33 687.035 1280.65 688.7 1278.56 688.7Z" fill="white"/>
<path opacity="0.5" d="M1278.56 720.547C1276.47 720.547 1274.77 718.882 1274.77 716.842C1274.77 714.802 1276.47 713.137 1278.56 713.137C1280.65 713.137 1282.35 714.802 1282.35 716.842C1282.35 718.882 1280.65 720.547 1278.56 720.547Z" fill="white"/>
<path opacity="0.5" d="M1278.56 752.416C1276.47 752.416 1274.77 750.751 1274.77 748.711C1274.77 746.671 1276.47 745.006 1278.56 745.006C1280.65 745.006 1282.35 746.671 1282.35 748.711C1282.35 750.751 1280.65 752.416 1278.56 752.416Z" fill="white"/>
<path opacity="0.5" d="M1278.56 784.263C1276.47 784.263 1274.77 782.598 1274.77 780.558C1274.77 778.518 1276.47 776.853 1278.56 776.853C1280.65 776.853 1282.35 778.518 1282.35 780.558C1282.33 782.619 1280.65 784.263 1278.56 784.263Z" fill="white"/>
<path opacity="0.5" d="M1245.95 561.268C1248.04 561.268 1249.74 559.609 1249.74 557.563C1249.74 555.516 1248.04 553.857 1245.95 553.857C1243.86 553.857 1242.16 555.516 1242.16 557.563C1242.16 559.609 1243.86 561.268 1245.95 561.268Z" fill="white"/>
<path opacity="0.5" d="M1245.95 593.136C1248.04 593.136 1249.74 591.477 1249.74 589.431C1249.74 587.385 1248.04 585.726 1245.95 585.726C1243.86 585.726 1242.16 587.385 1242.16 589.431C1242.16 591.477 1243.86 593.136 1245.95 593.136Z" fill="white"/>
<path opacity="0.5" d="M1245.95 624.984C1248.04 624.984 1249.74 623.325 1249.74 621.279C1249.74 619.232 1248.04 617.573 1245.95 617.573C1243.86 617.573 1242.16 619.232 1242.16 621.279C1242.16 623.325 1243.86 624.984 1245.95 624.984Z" fill="white"/>
<path opacity="0.5" d="M1245.95 656.852C1248.04 656.852 1249.74 655.193 1249.74 653.147C1249.74 651.101 1248.04 649.442 1245.95 649.442C1243.86 649.442 1242.16 651.101 1242.16 653.147C1242.16 655.193 1243.86 656.852 1245.95 656.852Z" fill="white"/>
<path opacity="0.5" d="M1245.95 688.7C1248.04 688.7 1249.74 687.041 1249.74 684.995C1249.74 682.948 1248.04 681.29 1245.95 681.29C1243.86 681.29 1242.16 682.948 1242.16 684.995C1242.16 687.041 1243.86 688.7 1245.95 688.7Z" fill="white"/>
<path opacity="0.5" d="M1245.95 720.568C1248.04 720.568 1249.74 718.909 1249.74 716.863C1249.74 714.817 1248.04 713.158 1245.95 713.158C1243.86 713.158 1242.16 714.817 1242.16 716.863C1242.16 718.909 1243.86 720.568 1245.95 720.568Z" fill="white"/>
<path opacity="0.5" d="M1245.95 752.416C1248.04 752.416 1249.74 750.757 1249.74 748.711C1249.74 746.665 1248.04 745.006 1245.95 745.006C1243.86 745.006 1242.16 746.665 1242.16 748.711C1242.16 750.757 1243.86 752.416 1245.95 752.416Z" fill="white"/>
<path opacity="0.5" d="M1245.95 784.263C1243.86 784.263 1242.16 782.598 1242.16 780.558C1242.16 778.518 1243.86 776.853 1245.95 776.853C1248.04 776.853 1249.74 778.518 1249.74 780.558C1249.74 782.619 1248.04 784.263 1245.95 784.263Z" fill="white"/>
<path opacity="0.5" d="M1213.34 561.268C1215.44 561.268 1217.13 559.609 1217.13 557.563C1217.13 555.516 1215.44 553.857 1213.34 553.857C1211.25 553.857 1209.55 555.516 1209.55 557.563C1209.55 559.609 1211.25 561.268 1213.34 561.268Z" fill="white"/>
<path opacity="0.5" d="M1213.34 593.136C1215.44 593.136 1217.13 591.477 1217.13 589.431C1217.13 587.385 1215.44 585.726 1213.34 585.726C1211.25 585.726 1209.55 587.385 1209.55 589.431C1209.55 591.477 1211.25 593.136 1213.34 593.136Z" fill="white"/>
<path opacity="0.5" d="M1213.34 624.984C1215.44 624.984 1217.13 623.325 1217.13 621.279C1217.13 619.232 1215.44 617.573 1213.34 617.573C1211.25 617.573 1209.55 619.232 1209.55 621.279C1209.55 623.325 1211.25 624.984 1213.34 624.984Z" fill="white"/>
<path opacity="0.5" d="M1213.34 656.852C1215.44 656.852 1217.13 655.193 1217.13 653.147C1217.13 651.101 1215.44 649.442 1213.34 649.442C1211.25 649.442 1209.55 651.101 1209.55 653.147C1209.55 655.193 1211.25 656.852 1213.34 656.852Z" fill="white"/>
<path opacity="0.5" d="M1213.34 688.7C1215.44 688.7 1217.13 687.041 1217.13 684.995C1217.13 682.948 1215.44 681.29 1213.34 681.29C1211.25 681.29 1209.55 682.948 1209.55 684.995C1209.55 687.041 1211.25 688.7 1213.34 688.7Z" fill="white"/>
<path opacity="0.5" d="M1213.34 720.568C1215.44 720.568 1217.13 718.909 1217.13 716.863C1217.13 714.817 1215.44 713.158 1213.34 713.158C1211.25 713.158 1209.55 714.817 1209.55 716.863C1209.55 718.909 1211.25 720.568 1213.34 720.568Z" fill="white"/>
<path opacity="0.5" d="M1213.34 752.416C1215.44 752.416 1217.13 750.757 1217.13 748.711C1217.13 746.665 1215.44 745.006 1213.34 745.006C1211.25 745.006 1209.55 746.665 1209.55 748.711C1209.55 750.757 1211.25 752.416 1213.34 752.416Z" fill="white"/>
<path opacity="0.5" d="M1213.34 784.263C1211.25 784.263 1209.55 782.598 1209.55 780.558C1209.55 778.518 1211.25 776.853 1213.34 776.853C1215.43 776.853 1217.13 778.518 1217.13 780.558C1217.13 782.619 1215.45 784.263 1213.34 784.263Z" fill="white"/>
<path opacity="0.5" d="M1180.75 561.268C1182.85 561.268 1184.55 559.609 1184.55 557.563C1184.55 555.516 1182.85 553.857 1180.75 553.857C1178.66 553.857 1176.96 555.516 1176.96 557.563C1176.96 559.609 1178.66 561.268 1180.75 561.268Z" fill="white"/>
<path opacity="0.5" d="M1180.75 593.136C1182.85 593.136 1184.55 591.477 1184.55 589.431C1184.55 587.385 1182.85 585.726 1180.75 585.726C1178.66 585.726 1176.96 587.385 1176.96 589.431C1176.96 591.477 1178.66 593.136 1180.75 593.136Z" fill="white"/>
<path opacity="0.5" d="M1180.75 624.984C1182.85 624.984 1184.55 623.325 1184.55 621.279C1184.55 619.232 1182.85 617.573 1180.75 617.573C1178.66 617.573 1176.96 619.232 1176.96 621.279C1176.96 623.325 1178.66 624.984 1180.75 624.984Z" fill="white"/>
<path opacity="0.5" d="M1180.75 656.852C1182.85 656.852 1184.55 655.193 1184.55 653.147C1184.55 651.101 1182.85 649.442 1180.75 649.442C1178.66 649.442 1176.96 651.101 1176.96 653.147C1176.96 655.193 1178.66 656.852 1180.75 656.852Z" fill="white"/>
<path opacity="0.5" d="M1180.75 688.7C1182.85 688.7 1184.55 687.041 1184.55 684.995C1184.55 682.948 1182.85 681.29 1180.75 681.29C1178.66 681.29 1176.96 682.948 1176.96 684.995C1176.96 687.041 1178.66 688.7 1180.75 688.7Z" fill="white"/>
<path opacity="0.5" d="M1180.75 720.568C1182.85 720.568 1184.55 718.909 1184.55 716.863C1184.55 714.817 1182.85 713.158 1180.75 713.158C1178.66 713.158 1176.96 714.817 1176.96 716.863C1176.96 718.909 1178.66 720.568 1180.75 720.568Z" fill="white"/>
<path opacity="0.5" d="M1180.75 752.416C1182.85 752.416 1184.55 750.757 1184.55 748.711C1184.55 746.665 1182.85 745.006 1180.75 745.006C1178.66 745.006 1176.96 746.665 1176.96 748.711C1176.96 750.757 1178.66 752.416 1180.75 752.416Z" fill="white"/>
<path opacity="0.5" d="M1180.75 784.263C1178.67 784.263 1176.96 782.598 1176.96 780.558C1176.96 778.518 1178.67 776.853 1180.75 776.853C1182.84 776.853 1184.55 778.518 1184.55 780.558C1184.55 782.619 1182.84 784.263 1180.75 784.263Z" fill="white"/>
<path opacity="0.5" d="M1148.15 561.268C1150.24 561.268 1151.94 559.609 1151.94 557.563C1151.94 555.516 1150.24 553.857 1148.15 553.857C1146.05 553.857 1144.36 555.516 1144.36 557.563C1144.36 559.609 1146.05 561.268 1148.15 561.268Z" fill="white"/>
<path opacity="0.5" d="M1148.15 593.136C1150.24 593.136 1151.94 591.477 1151.94 589.431C1151.94 587.385 1150.24 585.726 1148.15 585.726C1146.05 585.726 1144.36 587.385 1144.36 589.431C1144.36 591.477 1146.05 593.136 1148.15 593.136Z" fill="white"/>
<path opacity="0.5" d="M1148.15 624.984C1150.24 624.984 1151.94 623.325 1151.94 621.279C1151.94 619.232 1150.24 617.573 1148.15 617.573C1146.05 617.573 1144.36 619.232 1144.36 621.279C1144.36 623.325 1146.05 624.984 1148.15 624.984Z" fill="white"/>
<path opacity="0.5" d="M1148.15 656.852C1150.24 656.852 1151.94 655.193 1151.94 653.147C1151.94 651.101 1150.24 649.442 1148.15 649.442C1146.05 649.442 1144.36 651.101 1144.36 653.147C1144.36 655.193 1146.05 656.852 1148.15 656.852Z" fill="white"/>
<path opacity="0.5" d="M1148.15 688.7C1150.24 688.7 1151.94 687.041 1151.94 684.995C1151.94 682.948 1150.24 681.29 1148.15 681.29C1146.05 681.29 1144.36 682.948 1144.36 684.995C1144.36 687.041 1146.05 688.7 1148.15 688.7Z" fill="white"/>
<path opacity="0.5" d="M1148.15 720.568C1150.24 720.568 1151.94 718.909 1151.94 716.863C1151.94 714.817 1150.24 713.158 1148.15 713.158C1146.05 713.158 1144.36 714.817 1144.36 716.863C1144.36 718.909 1146.05 720.568 1148.15 720.568Z" fill="white"/>
<path opacity="0.5" d="M1148.15 752.416C1150.24 752.416 1151.94 750.757 1151.94 748.711C1151.94 746.665 1150.24 745.006 1148.15 745.006C1146.05 745.006 1144.36 746.665 1144.36 748.711C1144.36 750.757 1146.05 752.416 1148.15 752.416Z" fill="white"/>
<path opacity="0.5" d="M1148.15 784.263C1146.06 784.263 1144.36 782.598 1144.36 780.558C1144.36 778.518 1146.06 776.853 1148.15 776.853C1150.23 776.853 1151.94 778.518 1151.94 780.558C1151.94 782.619 1150.23 784.263 1148.15 784.263Z" fill="white"/>
</g>
<g opacity="0.5">
<path opacity="0.5" d="M894.99 80.5557C894.99 82.5956 893.286 84.2609 891.199 84.2609C889.112 84.2609 887.408 82.5956 887.408 80.5557C887.408 78.5158 889.112 76.8506 891.199 76.8506C893.286 76.8506 894.99 78.5158 894.99 80.5557Z" fill="white"/>
<path opacity="0.5" d="M927.599 80.5557C927.599 82.5956 925.895 84.2609 923.807 84.2609C921.72 84.2609 920.016 82.5956 920.016 80.5557C920.016 78.5158 921.72 76.8506 923.807 76.8506C925.895 76.8714 927.599 78.5158 927.599 80.5557Z" fill="white"/>
<path opacity="0.5" d="M960.186 80.5557C960.186 82.5956 958.482 84.2609 956.394 84.2609C954.307 84.2609 952.603 82.5956 952.603 80.5557C952.603 78.5158 954.307 76.8506 956.394 76.8506C958.482 76.8506 960.186 78.5158 960.186 80.5557Z" fill="white"/>
<path opacity="0.5" d="M894.99 112.424C894.99 114.464 893.286 116.129 891.199 116.129C889.112 116.129 887.408 114.464 887.408 112.424C887.408 110.384 889.112 108.719 891.199 108.719C893.286 108.719 894.99 110.384 894.99 112.424Z" fill="white"/>
<path opacity="0.5" d="M927.599 112.424C927.599 114.464 925.895 116.129 923.807 116.129C921.72 116.129 920.016 114.464 920.016 112.424C920.016 110.384 921.72 108.719 923.807 108.719C925.895 108.719 927.599 110.384 927.599 112.424Z" fill="white"/>
<path opacity="0.5" d="M960.186 112.424C960.186 114.464 958.482 116.129 956.394 116.129C954.307 116.129 952.603 114.464 952.603 112.424C952.603 110.384 954.307 108.719 956.394 108.719C958.482 108.719 960.186 110.384 960.186 112.424Z" fill="white"/>
<path opacity="0.5" d="M894.99 144.272C894.99 146.312 893.286 147.977 891.199 147.977C889.112 147.977 887.408 146.312 887.408 144.272C887.408 142.232 889.112 140.567 891.199 140.567C893.286 140.567 894.99 142.232 894.99 144.272Z" fill="white"/>
<path opacity="0.5" d="M927.599 144.272C927.599 146.312 925.895 147.977 923.807 147.977C921.72 147.977 920.016 146.312 920.016 144.272C920.016 142.232 921.72 140.567 923.807 140.567C925.895 140.587 927.599 142.232 927.599 144.272Z" fill="white"/>
<path opacity="0.5" d="M960.186 144.272C960.186 146.312 958.482 147.977 956.394 147.977C954.307 147.977 952.603 146.312 952.603 144.272C952.603 142.232 954.307 140.567 956.394 140.567C958.482 140.567 960.186 142.232 960.186 144.272Z" fill="white"/>
</g>
<g opacity="0.5">
<path opacity="0.5" d="M590.632 363.625C590.632 365.665 588.928 367.33 586.841 367.33C584.754 367.33 583.05 365.665 583.05 363.625C583.05 361.585 584.754 359.92 586.841 359.92C588.95 359.92 590.632 361.564 590.632 363.625Z" fill="white"/>
<path opacity="0.5" d="M619.45 367.33C621.543 367.33 623.241 365.671 623.241 363.625C623.241 361.579 621.543 359.92 619.45 359.92C617.356 359.92 615.658 361.579 615.658 363.625C615.658 365.671 617.356 367.33 619.45 367.33Z" fill="white"/>
<path opacity="0.5" d="M652.037 367.33C654.13 367.33 655.828 365.671 655.828 363.625C655.828 361.579 654.13 359.92 652.037 359.92C649.943 359.92 648.245 361.579 648.245 363.625C648.245 365.671 649.943 367.33 652.037 367.33Z" fill="white"/>
<path opacity="0.5" d="M590.632 395.473C590.632 397.513 588.929 399.178 586.841 399.178C584.754 399.178 583.05 397.513 583.05 395.473C583.05 393.433 584.754 391.768 586.841 391.768C588.95 391.768 590.632 393.433 590.632 395.473Z" fill="white"/>
<path opacity="0.5" d="M619.45 399.178C621.543 399.178 623.241 397.519 623.241 395.473C623.241 393.426 621.543 391.768 619.45 391.768C617.356 391.768 615.658 393.426 615.658 395.473C615.658 397.519 617.356 399.178 619.45 399.178Z" fill="white"/>
<path opacity="0.5" d="M652.037 399.178C654.13 399.178 655.828 397.519 655.828 395.473C655.828 393.426 654.13 391.768 652.037 391.768C649.943 391.768 648.245 393.426 648.245 395.473C648.245 397.519 649.943 399.178 652.037 399.178Z" fill="white"/>
<path opacity="0.5" d="M590.632 427.341C590.632 429.381 588.929 431.046 586.841 431.046C584.754 431.046 583.05 429.381 583.05 427.341C583.05 425.301 584.754 423.636 586.841 423.636C588.95 423.636 590.632 425.301 590.632 427.341Z" fill="white"/>
<path opacity="0.5" d="M623.241 427.341C623.241 429.381 621.537 431.046 619.45 431.046C617.362 431.046 615.658 429.381 615.658 427.341C615.658 425.301 617.362 423.636 619.45 423.636C621.537 423.636 623.241 425.301 623.241 427.341Z" fill="white"/>
<path opacity="0.5" d="M655.828 427.341C655.828 429.381 654.124 431.046 652.037 431.046C649.949 431.046 648.245 429.381 648.245 427.341C648.245 425.301 649.949 423.636 652.037 423.636C654.145 423.636 655.828 425.301 655.828 427.341Z" fill="white"/>
</g>
<g opacity="0.49">
<path opacity="0.49" d="M306.338 143.876C311.137 143.876 315.028 140.074 315.028 135.384C315.028 130.693 311.137 126.891 306.338 126.891C301.539 126.891 297.648 130.693 297.648 135.384C297.648 140.074 301.539 143.876 306.338 143.876Z" stroke="#EF4782" stroke-opacity="0.75" stroke-width="2" stroke-miterlimit="10" stroke-linecap="round" stroke-linejoin="round"/>
<path opacity="0.49" d="M900.869 712.055C900.869 716.738 896.971 720.547 892.179 720.547C887.387 720.547 883.489 716.738 883.489 712.055C883.489 707.371 887.387 703.562 892.179 703.562C896.971 703.562 900.869 707.371 900.869 712.055Z" stroke="#EF4782" stroke-opacity="0.75" stroke-width="2" stroke-miterlimit="10" stroke-linecap="round" stroke-linejoin="round"/>
<path opacity="0.49" d="M629.141 292.478C629.141 297.161 625.243 300.97 620.451 300.97C615.658 300.97 611.761 297.161 611.761 292.478C611.761 287.794 615.658 283.985 620.451 283.985C625.264 283.985 629.141 287.773 629.141 292.478Z" stroke="#EF4782" stroke-opacity="0.75" stroke-width="2" stroke-miterlimit="10" stroke-linecap="round" stroke-linejoin="round"/>
<path opacity="0.49" d="M18.3797 569.178C18.3797 573.861 14.4821 577.67 9.68986 577.67C4.89766 577.67 1 573.861 1 569.178C1 564.494 4.89766 560.685 9.68986 560.685C14.5034 560.685 18.3797 564.494 18.3797 569.178Z" stroke="#EF4782" stroke-opacity="0.75" stroke-width="2" stroke-miterlimit="10" stroke-linecap="round" stroke-linejoin="round"/>
<path opacity="0.49" d="M106.343 320.308C106.343 324.992 102.446 328.801 97.6534 328.801C92.8612 328.801 88.9635 324.992 88.9635 320.308C88.9635 315.625 92.8612 311.815 97.6534 311.815C102.446 311.815 106.343 315.625 106.343 320.308Z" stroke="#EF4782" stroke-opacity="0.75" stroke-width="2" stroke-miterlimit="10" stroke-linecap="round" stroke-linejoin="round"/>
<g opacity="0.49">
<path opacity="0.49" d="M791.351 208.134V222.996" stroke="#EF4782" stroke-opacity="0.75" stroke-width="2" stroke-miterlimit="10" stroke-linecap="round" stroke-linejoin="round"/>
<path opacity="0.49" d="M798.955 215.565H783.769" stroke="#EF4782" stroke-opacity="0.75" stroke-width="2" stroke-miterlimit="10" stroke-linecap="round" stroke-linejoin="round"/>
</g>
<g opacity="0.49">
<path opacity="0.49" d="M1430.4 704.645V719.486" stroke="#EF4782" stroke-opacity="0.75" stroke-width="2" stroke-miterlimit="10" stroke-linecap="round" stroke-linejoin="round"/>
<path opacity="0.49" d="M1438 712.055H1422.81" stroke="#EF4782" stroke-opacity="0.75" stroke-width="2" stroke-miterlimit="10" stroke-linecap="round" stroke-linejoin="round"/>
</g>
<g opacity="0.49">
<path opacity="0.49" d="M358.456 570.177V585.018" stroke="#EF4782" stroke-opacity="0.75" stroke-width="2" stroke-miterlimit="10" stroke-linecap="round" stroke-linejoin="round"/>
<path opacity="0.49" d="M366.059 577.587H350.873" stroke="#EF4782" stroke-opacity="0.75" stroke-width="2" stroke-miterlimit="10" stroke-linecap="round" stroke-linejoin="round"/>
</g>
<g opacity="0.49">
<g opacity="0.49">
<path opacity="0.49" d="M1135.09 882.159V897" stroke="#EF4782" stroke-opacity="0.75" stroke-width="2" stroke-miterlimit="10" stroke-linecap="round" stroke-linejoin="round"/>
<path opacity="0.49" d="M1142.67 889.569H1127.49" stroke="#EF4782" stroke-opacity="0.75" stroke-width="2" stroke-miterlimit="10" stroke-linecap="round" stroke-linejoin="round"/>
</g>
<g opacity="0.49">
<path opacity="0.49" d="M1089.17 882.159V897" stroke="#EF4782" stroke-opacity="0.75" stroke-width="2" stroke-miterlimit="10" stroke-linecap="round" stroke-linejoin="round"/>
<path opacity="0.49" d="M1096.75 889.569H1081.57" stroke="#EF4782" stroke-opacity="0.75" stroke-width="2" stroke-miterlimit="10" stroke-linecap="round" stroke-linejoin="round"/>
</g>
<g opacity="0.49">
<path opacity="0.49" d="M1043.25 882.159V897" stroke="#EF4782" stroke-opacity="0.75" stroke-width="2" stroke-miterlimit="10" stroke-linecap="round" stroke-linejoin="round"/>
<path opacity="0.49" d="M1050.83 889.569H1035.65" stroke="#EF4782" stroke-opacity="0.75" stroke-width="2" stroke-miterlimit="10" stroke-linecap="round" stroke-linejoin="round"/>
</g>
</g>
<g opacity="0.49">
<g opacity="0.49">
<path opacity="0.49" d="M106.343 218.146V232.987" stroke="#EF4782" stroke-opacity="0.75" stroke-width="2" stroke-miterlimit="10" stroke-linecap="round" stroke-linejoin="round"/>
<path opacity="0.49" d="M113.926 225.577H98.7396" stroke="#EF4782" stroke-opacity="0.75" stroke-width="2" stroke-miterlimit="10" stroke-linecap="round" stroke-linejoin="round"/>
</g>
<g opacity="0.49">
<path opacity="0.49" d="M60.4232 218.146V232.987" stroke="#EF4782" stroke-opacity="0.75" stroke-width="2" stroke-miterlimit="10" stroke-linecap="round" stroke-linejoin="round"/>
<path opacity="0.49" d="M68.0269 225.577H52.8196" stroke="#EF4782" stroke-opacity="0.75" stroke-width="2" stroke-miterlimit="10" stroke-linecap="round" stroke-linejoin="round"/>
</g>
<g opacity="0.49">
<path opacity="0.49" d="M14.5034 218.146V232.987" stroke="#EF4782" stroke-opacity="0.75" stroke-width="2" stroke-miterlimit="10" stroke-linecap="round" stroke-linejoin="round"/>
<path opacity="0.49" d="M22.107 225.577H6.92102" stroke="#EF4782" stroke-opacity="0.75" stroke-width="2" stroke-miterlimit="10" stroke-linecap="round" stroke-linejoin="round"/>
</g>
</g>
<path opacity="0.49" d="M539.047 527.255L550.868 507.252H527.226L539.047 527.255Z" stroke="#EF4782" stroke-opacity="0.75" stroke-width="2" stroke-miterlimit="10" stroke-linecap="round" stroke-linejoin="round"/>
<path opacity="0.49" d="M1104.36 222.996L1092.54 242.999H1116.18L1104.36 222.996Z" stroke="#EF4782" stroke-opacity="0.75" stroke-width="2" stroke-miterlimit="10" stroke-linecap="round" stroke-linejoin="round"/>
<path opacity="0.49" d="M520.688 830.307C525.842 825.27 534.872 834.096 540.027 829.059C545.181 824.021 536.15 815.195 541.305 810.158C546.459 805.121 555.49 813.947 560.644 808.909C565.798 803.872 556.768 795.046 561.901 790.009C567.055 784.971 576.085 793.797 581.24 788.76C586.394 783.722 577.363 774.897 582.518 769.839C587.672 764.801 596.703 773.627 601.878 768.59" stroke="#EF4782" stroke-opacity="0.75" stroke-width="2" stroke-miterlimit="10" stroke-linecap="round" stroke-linejoin="round"/>
<path opacity="0.49" d="M969.642 789.155C974.797 784.118 983.827 792.944 988.982 787.906C994.136 782.869 985.105 774.043 990.259 769.006C995.414 763.969 1004.44 772.794 1009.6 767.757C1014.75 762.72 1005.72 753.894 1010.86 748.856C1016.01 743.819 1025.04 752.645 1030.19 747.608C1035.35 742.57 1026.32 733.744 1031.47 728.686C1036.63 723.649 1045.66 732.475 1050.83 727.437" stroke="#EF4782" stroke-opacity="0.75" stroke-width="2" stroke-miterlimit="10" stroke-linecap="round" stroke-linejoin="round"/>
<path opacity="0.49" d="M995.052 217.771C1000.21 212.734 1009.24 221.56 1014.39 216.522C1019.55 211.485 1010.51 202.659 1015.67 197.622C1020.82 192.585 1029.85 201.41 1035.01 196.373C1040.16 191.336 1031.13 182.51 1036.26 177.473C1041.42 172.435 1050.45 181.261 1055.6 176.224C1060.76 171.186 1051.73 162.361 1056.88 157.302C1062.04 152.265 1071.07 161.091 1076.24 156.053" stroke="#EF4782" stroke-opacity="0.75" stroke-width="2" stroke-miterlimit="10" stroke-linecap="round" stroke-linejoin="round"/>
</g>
</svg>
