<svg width="1440" height="900" viewBox="0 0 1440 900" fill="none" xmlns="http://www.w3.org/2000/svg">
<path d="M0 899.983H1440V6.10352e-05H0V899.983Z" fill="#0E1630"/>
<path d="M961.662 226.661C961.662 227.581 960.842 228.328 959.831 228.328C958.82 228.328 958 227.581 958 226.661C958 225.741 958.82 224.996 959.831 224.996C960.842 224.996 961.662 225.741 961.662 226.661Z" fill="#EF4782"/>
<path d="M981.052 226.661C981.052 227.581 980.232 228.328 979.22 228.328C978.21 228.328 977.39 227.581 977.39 226.661C977.39 225.741 978.21 224.996 979.22 224.996C980.232 224.996 981.052 225.741 981.052 226.661Z" fill="#EF4782"/>
<path d="M1000.44 226.661C1000.44 227.581 999.621 228.328 998.611 228.328C997.598 228.328 996.779 227.581 996.779 226.661C996.779 225.741 997.598 224.996 998.611 224.996C999.621 224.996 1000.44 225.741 1000.44 226.661Z" fill="#EF4782"/>
<path d="M1019.83 226.661C1019.83 227.581 1019.01 228.328 1018 228.328C1016.99 228.328 1016.17 227.581 1016.17 226.661C1016.17 225.741 1016.99 224.996 1018 224.996C1019.01 224.996 1019.83 225.741 1019.83 226.661Z" fill="#EF4782"/>
<path d="M1039.22 226.661C1039.22 227.581 1038.4 228.328 1037.39 228.328C1036.38 228.328 1035.56 227.581 1035.56 226.661C1035.56 225.741 1036.38 224.996 1037.39 224.996C1038.4 224.996 1039.22 225.741 1039.22 226.661Z" fill="white"/>
<path d="M1058.61 226.661C1058.61 227.581 1057.79 228.328 1056.78 228.328C1055.77 228.328 1054.95 227.581 1054.95 226.661C1054.95 225.741 1055.77 224.996 1056.78 224.996C1057.79 224.996 1058.61 225.741 1058.61 226.661Z" fill="#EF4782"/>
<path d="M1078 226.661C1078 227.581 1077.18 228.328 1076.17 228.328C1075.16 228.328 1074.34 227.581 1074.34 226.661C1074.34 225.741 1075.16 224.996 1076.17 224.996C1077.18 224.996 1078 225.741 1078 226.661Z" fill="#EF4782"/>
<path d="M961.662 246.184C961.662 247.106 960.842 247.851 959.831 247.851C958.82 247.851 958 247.106 958 246.184C958 245.265 958.82 244.519 959.831 244.519C960.842 244.519 961.662 245.265 961.662 246.184Z" fill="white"/>
<path d="M981.052 246.184C981.052 247.106 980.232 247.851 979.22 247.851C978.21 247.851 977.39 247.106 977.39 246.184C977.39 245.265 978.21 244.519 979.22 244.519C980.232 244.519 981.052 245.265 981.052 246.184Z" fill="#EF4782"/>
<path d="M1000.44 246.184C1000.44 247.106 999.621 247.851 998.611 247.851C997.598 247.851 996.779 247.106 996.779 246.184C996.779 245.265 997.598 244.519 998.611 244.519C999.621 244.519 1000.44 245.265 1000.44 246.184Z" fill="#EF4782"/>
<path d="M1019.83 246.184C1019.83 247.106 1019.01 247.851 1018 247.851C1016.99 247.851 1016.17 247.106 1016.17 246.184C1016.17 245.265 1016.99 244.519 1018 244.519C1019.01 244.519 1019.83 245.265 1019.83 246.184Z" fill="#EF4782"/>
<path d="M1039.22 246.184C1039.22 247.106 1038.4 247.851 1037.39 247.851C1036.38 247.851 1035.56 247.106 1035.56 246.184C1035.56 245.265 1036.38 244.519 1037.39 244.519C1038.4 244.519 1039.22 245.265 1039.22 246.184Z" fill="#EF4782"/>
<path d="M1058.61 246.184C1058.61 247.106 1057.79 247.851 1056.78 247.851C1055.77 247.851 1054.95 247.106 1054.95 246.184C1054.95 245.265 1055.77 244.519 1056.78 244.519C1057.79 244.519 1058.61 245.265 1058.61 246.184Z" fill="#EF4782"/>
<path d="M1078 246.184C1078 247.106 1077.18 247.851 1076.17 247.851C1075.16 247.851 1074.34 247.106 1074.34 246.184C1074.34 245.265 1075.16 244.519 1076.17 244.519C1077.18 244.519 1078 245.265 1078 246.184Z" fill="#EF4782"/>
<path d="M961.662 265.709C961.662 266.629 960.842 267.375 959.831 267.375C958.82 267.375 958 266.629 958 265.709C958 264.788 958.82 264.043 959.831 264.043C960.842 264.043 961.662 264.788 961.662 265.709Z" fill="#EF4782"/>
<path d="M981.052 265.709C981.052 266.629 980.232 267.375 979.22 267.375C978.21 267.375 977.39 266.629 977.39 265.709C977.39 264.788 978.21 264.043 979.22 264.043C980.232 264.043 981.052 264.788 981.052 265.709Z" fill="#EF4782"/>
<path d="M1000.44 265.709C1000.44 266.629 999.621 267.375 998.611 267.375C997.598 267.375 996.779 266.629 996.779 265.709C996.779 264.788 997.598 264.043 998.611 264.043C999.621 264.043 1000.44 264.788 1000.44 265.709Z" fill="white"/>
<path d="M1019.83 265.709C1019.83 266.629 1019.01 267.375 1018 267.375C1016.99 267.375 1016.17 266.629 1016.17 265.709C1016.17 264.788 1016.99 264.043 1018 264.043C1019.01 264.043 1019.83 264.788 1019.83 265.709Z" fill="#EF4782"/>
<path d="M1039.22 265.709C1039.22 266.629 1038.4 267.375 1037.39 267.375C1036.38 267.375 1035.56 266.629 1035.56 265.709C1035.56 264.788 1036.38 264.043 1037.39 264.043C1038.4 264.043 1039.22 264.788 1039.22 265.709Z" fill="#EF4782"/>
<path d="M1058.61 265.709C1058.61 266.629 1057.79 267.375 1056.78 267.375C1055.77 267.375 1054.95 266.629 1054.95 265.709C1054.95 264.788 1055.77 264.043 1056.78 264.043C1057.79 264.043 1058.61 264.788 1058.61 265.709Z" fill="#EF4782"/>
<path d="M1078 265.709C1078 266.629 1077.18 267.375 1076.17 267.375C1075.16 267.375 1074.34 266.629 1074.34 265.709C1074.34 264.788 1075.16 264.043 1076.17 264.043C1077.18 264.043 1078 264.788 1078 265.709Z" fill="#EF4782"/>
<path d="M961.662 285.233C961.662 286.153 960.842 286.9 959.831 286.9C958.82 286.9 958 286.153 958 285.233C958 284.312 958.82 283.566 959.831 283.566C960.842 283.566 961.662 284.312 961.662 285.233Z" fill="#EF4782"/>
<path d="M981.052 285.233C981.052 286.153 980.232 286.9 979.22 286.9C978.21 286.9 977.39 286.153 977.39 285.233C977.39 284.312 978.21 283.566 979.22 283.566C980.232 283.566 981.052 284.312 981.052 285.233Z" fill="#EF4782"/>
<path d="M1000.44 285.233C1000.44 286.153 999.621 286.9 998.611 286.9C997.598 286.9 996.779 286.153 996.779 285.233C996.779 284.312 997.598 283.566 998.611 283.566C999.621 283.566 1000.44 284.312 1000.44 285.233Z" fill="#EF4782"/>
<path d="M1019.83 285.233C1019.83 286.153 1019.01 286.9 1018 286.9C1016.99 286.9 1016.17 286.153 1016.17 285.233C1016.17 284.312 1016.99 283.566 1018 283.566C1019.01 283.566 1019.83 284.312 1019.83 285.233Z" fill="#EF4782"/>
<path d="M1039.22 285.233C1039.22 286.153 1038.4 286.9 1037.39 286.9C1036.38 286.9 1035.56 286.153 1035.56 285.233C1035.56 284.312 1036.38 283.566 1037.39 283.566C1038.4 283.566 1039.22 284.312 1039.22 285.233Z" fill="white"/>
<path d="M1058.61 285.233C1058.61 286.153 1057.79 286.9 1056.78 286.9C1055.77 286.9 1054.95 286.153 1054.95 285.233C1054.95 284.312 1055.77 283.566 1056.78 283.566C1057.79 283.566 1058.61 284.312 1058.61 285.233Z" fill="#EF4782"/>
<path d="M1078 285.233C1078 286.153 1077.18 286.9 1076.17 286.9C1075.16 286.9 1074.34 286.153 1074.34 285.233C1074.34 284.312 1075.16 283.566 1076.17 283.566C1077.18 283.566 1078 284.312 1078 285.233Z" fill="#EF4782"/>
<path d="M961.662 304.756C961.662 305.676 960.842 306.422 959.831 306.422C958.82 306.422 958 305.676 958 304.756C958 303.835 958.82 303.09 959.831 303.09C960.842 303.09 961.662 303.835 961.662 304.756Z" fill="#EF4782"/>
<path d="M981.052 304.756C981.052 305.676 980.232 306.422 979.22 306.422C978.21 306.422 977.39 305.676 977.39 304.756C977.39 303.835 978.21 303.09 979.22 303.09C980.232 303.09 981.052 303.835 981.052 304.756Z" fill="#EF4782"/>
<path d="M1000.44 304.756C1000.44 305.676 999.621 306.422 998.611 306.422C997.598 306.422 996.779 305.676 996.779 304.756C996.779 303.835 997.598 303.09 998.611 303.09C999.621 303.09 1000.44 303.835 1000.44 304.756Z" fill="#EF4782"/>
<path d="M1019.83 304.756C1019.83 305.676 1019.01 306.422 1018 306.422C1016.99 306.422 1016.17 305.676 1016.17 304.756C1016.17 303.835 1016.99 303.09 1018 303.09C1019.01 303.09 1019.83 303.835 1019.83 304.756Z" fill="#EF4782"/>
<path d="M1039.22 304.756C1039.22 305.676 1038.4 306.422 1037.39 306.422C1036.38 306.422 1035.56 305.676 1035.56 304.756C1035.56 303.835 1036.38 303.09 1037.39 303.09C1038.4 303.09 1039.22 303.835 1039.22 304.756Z" fill="#EF4782"/>
<path d="M1058.61 304.756C1058.61 305.676 1057.79 306.422 1056.78 306.422C1055.77 306.422 1054.95 305.676 1054.95 304.756C1054.95 303.835 1055.77 303.09 1056.78 303.09C1057.79 303.09 1058.61 303.835 1058.61 304.756Z" fill="#EF4782"/>
<path d="M1078 304.756C1078 305.676 1077.18 306.422 1076.17 306.422C1075.16 306.422 1074.34 305.676 1074.34 304.756C1074.34 303.835 1075.16 303.09 1076.17 303.09C1077.18 303.09 1078 303.835 1078 304.756Z" fill="#EF4782"/>
<path d="M961.662 324.28C961.662 325.2 960.842 325.945 959.831 325.945C958.82 325.945 958 325.2 958 324.28C958 323.36 958.82 322.613 959.831 322.613C960.842 322.613 961.662 323.36 961.662 324.28Z" fill="#EF4782"/>
<path d="M981.052 324.28C981.052 325.2 980.232 325.945 979.22 325.945C978.21 325.945 977.39 325.2 977.39 324.28C977.39 323.36 978.21 322.613 979.22 322.613C980.232 322.613 981.052 323.36 981.052 324.28Z" fill="#EF4782"/>
<path d="M1000.44 324.28C1000.44 325.2 999.621 325.945 998.611 325.945C997.598 325.945 996.779 325.2 996.779 324.28C996.779 323.36 997.598 322.613 998.611 322.613C999.621 322.613 1000.44 323.36 1000.44 324.28Z" fill="#EF4782"/>
<path d="M1019.83 324.28C1019.83 325.2 1019.01 325.945 1018 325.945C1016.99 325.945 1016.17 325.2 1016.17 324.28C1016.17 323.36 1016.99 322.613 1018 322.613C1019.01 322.613 1019.83 323.36 1019.83 324.28Z" fill="white"/>
<path d="M1039.22 324.28C1039.22 325.2 1038.4 325.945 1037.39 325.945C1036.38 325.945 1035.56 325.2 1035.56 324.28C1035.56 323.36 1036.38 322.613 1037.39 322.613C1038.4 322.613 1039.22 323.36 1039.22 324.28Z" fill="#EF4782"/>
<path d="M1058.61 324.28C1058.61 325.2 1057.79 325.945 1056.78 325.945C1055.77 325.945 1054.95 325.2 1054.95 324.28C1054.95 323.36 1055.77 322.613 1056.78 322.613C1057.79 322.613 1058.61 323.36 1058.61 324.28Z" fill="#EF4782"/>
<path d="M1078 324.28C1078 325.2 1077.18 325.945 1076.17 325.945C1075.16 325.945 1074.34 325.2 1074.34 324.28C1074.34 323.36 1075.16 322.613 1076.17 322.613C1077.18 322.613 1078 323.36 1078 324.28Z" fill="#EF4782"/>
<path d="M961.662 343.803C961.662 344.723 960.842 345.47 959.831 345.47C958.82 345.47 958 344.723 958 343.803C958 342.883 958.82 342.136 959.831 342.136C960.842 342.136 961.662 342.883 961.662 343.803Z" fill="#EF4782"/>
<path d="M981.052 343.803C981.052 344.723 980.232 345.47 979.22 345.47C978.21 345.47 977.39 344.723 977.39 343.803C977.39 342.883 978.21 342.136 979.22 342.136C980.232 342.136 981.052 342.883 981.052 343.803Z" fill="#EF4782"/>
<path d="M1000.44 343.803C1000.44 344.723 999.621 345.47 998.611 345.47C997.598 345.47 996.779 344.723 996.779 343.803C996.779 342.883 997.598 342.136 998.611 342.136C999.621 342.136 1000.44 342.883 1000.44 343.803Z" fill="#EF4782"/>
<path d="M1019.83 343.803C1019.83 344.723 1019.01 345.47 1018 345.47C1016.99 345.47 1016.17 344.723 1016.17 343.803C1016.17 342.883 1016.99 342.136 1018 342.136C1019.01 342.136 1019.83 342.883 1019.83 343.803Z" fill="#EF4782"/>
<path d="M1039.22 343.803C1039.22 344.723 1038.4 345.47 1037.39 345.47C1036.38 345.47 1035.56 344.723 1035.56 343.803C1035.56 342.883 1036.38 342.136 1037.39 342.136C1038.4 342.136 1039.22 342.883 1039.22 343.803Z" fill="#EF4782"/>
<path d="M1058.61 343.803C1058.61 344.723 1057.79 345.47 1056.78 345.47C1055.77 345.47 1054.95 344.723 1054.95 343.803C1054.95 342.883 1055.77 342.136 1056.78 342.136C1057.79 342.136 1058.61 342.883 1058.61 343.803Z" fill="white"/>
<path d="M1078 343.803C1078 344.723 1077.18 345.47 1076.17 345.47C1075.16 345.47 1074.34 344.723 1074.34 343.803C1074.34 342.883 1075.16 342.136 1076.17 342.136C1077.18 342.136 1078 342.883 1078 343.803Z" fill="#EF4782"/>
<path d="M961.662 363.327C961.662 364.246 960.842 364.993 959.831 364.993C958.82 364.993 958 364.246 958 363.327C958 362.407 958.82 361.661 959.831 361.661C960.842 361.661 961.662 362.407 961.662 363.327Z" fill="#EF4782"/>
<path d="M981.052 363.327C981.052 364.246 980.232 364.993 979.22 364.993C978.21 364.993 977.39 364.246 977.39 363.327C977.39 362.407 978.21 361.661 979.22 361.661C980.232 361.661 981.052 362.407 981.052 363.327Z" fill="white"/>
<path d="M1000.44 363.327C1000.44 364.246 999.621 364.993 998.611 364.993C997.598 364.993 996.779 364.246 996.779 363.327C996.779 362.407 997.598 361.661 998.611 361.661C999.621 361.661 1000.44 362.407 1000.44 363.327Z" fill="#EF4782"/>
<path d="M1019.83 363.327C1019.83 364.246 1019.01 364.993 1018 364.993C1016.99 364.993 1016.17 364.246 1016.17 363.327C1016.17 362.407 1016.99 361.661 1018 361.661C1019.01 361.661 1019.83 362.407 1019.83 363.327Z" fill="#EF4782"/>
<path d="M1039.22 363.327C1039.22 364.246 1038.4 364.993 1037.39 364.993C1036.38 364.993 1035.56 364.246 1035.56 363.327C1035.56 362.407 1036.38 361.661 1037.39 361.661C1038.4 361.661 1039.22 362.407 1039.22 363.327Z" fill="#EF4782"/>
<path d="M1058.61 363.327C1058.61 364.246 1057.79 364.993 1056.78 364.993C1055.77 364.993 1054.95 364.246 1054.95 363.327C1054.95 362.407 1055.77 361.661 1056.78 361.661C1057.79 361.661 1058.61 362.407 1058.61 363.327Z" fill="#EF4782"/>
<path d="M1329.34 635.323C1329.34 634.403 1330.16 633.656 1331.17 633.656C1332.18 633.656 1333 634.403 1333 635.323C1333 636.243 1332.18 636.988 1331.17 636.988C1330.16 636.988 1329.34 636.243 1329.34 635.323Z" fill="#EF4782"/>
<path d="M1309.95 635.323C1309.95 634.403 1310.77 633.656 1311.78 633.656C1312.79 633.656 1313.61 634.403 1313.61 635.323C1313.61 636.243 1312.79 636.988 1311.78 636.988C1310.77 636.988 1309.95 636.243 1309.95 635.323Z" fill="#EF4782"/>
<path d="M1290.56 635.323C1290.56 634.403 1291.38 633.656 1292.39 633.656C1293.4 633.656 1294.22 634.403 1294.22 635.323C1294.22 636.243 1293.4 636.988 1292.39 636.988C1291.38 636.988 1290.56 636.243 1290.56 635.323Z" fill="#EF4782"/>
<path d="M1271.17 635.323C1271.17 634.403 1271.99 633.656 1273 633.656C1274.01 633.656 1274.83 634.403 1274.83 635.323C1274.83 636.243 1274.01 636.988 1273 636.988C1271.99 636.988 1271.17 636.243 1271.17 635.323Z" fill="#EF4782"/>
<path d="M1251.78 635.323C1251.78 634.403 1252.6 633.656 1253.61 633.656C1254.62 633.656 1255.44 634.403 1255.44 635.323C1255.44 636.243 1254.62 636.988 1253.61 636.988C1252.6 636.988 1251.78 636.243 1251.78 635.323Z" fill="white"/>
<path d="M1232.39 635.323C1232.39 634.403 1233.21 633.656 1234.22 633.656C1235.23 633.656 1236.05 634.403 1236.05 635.323C1236.05 636.243 1235.23 636.988 1234.22 636.988C1233.21 636.988 1232.39 636.243 1232.39 635.323Z" fill="#EF4782"/>
<path d="M1213 635.323C1213 634.403 1213.82 633.656 1214.83 633.656C1215.84 633.656 1216.66 634.403 1216.66 635.323C1216.66 636.243 1215.84 636.988 1214.83 636.988C1213.82 636.988 1213 636.243 1213 635.323Z" fill="#EF4782"/>
<path d="M1329.34 615.799C1329.34 614.878 1330.16 614.133 1331.17 614.133C1332.18 614.133 1333 614.878 1333 615.799C1333 616.719 1332.18 617.465 1331.17 617.465C1330.16 617.465 1329.34 616.719 1329.34 615.799Z" fill="white"/>
<path d="M1309.95 615.799C1309.95 614.878 1310.77 614.133 1311.78 614.133C1312.79 614.133 1313.61 614.878 1313.61 615.799C1313.61 616.719 1312.79 617.465 1311.78 617.465C1310.77 617.465 1309.95 616.719 1309.95 615.799Z" fill="#EF4782"/>
<path d="M1290.56 615.799C1290.56 614.878 1291.38 614.133 1292.39 614.133C1293.4 614.133 1294.22 614.878 1294.22 615.799C1294.22 616.719 1293.4 617.465 1292.39 617.465C1291.38 617.465 1290.56 616.719 1290.56 615.799Z" fill="#EF4782"/>
<path d="M1271.17 615.799C1271.17 614.878 1271.99 614.133 1273 614.133C1274.01 614.133 1274.83 614.878 1274.83 615.799C1274.83 616.719 1274.01 617.465 1273 617.465C1271.99 617.465 1271.17 616.719 1271.17 615.799Z" fill="#EF4782"/>
<path d="M1251.78 615.799C1251.78 614.878 1252.6 614.133 1253.61 614.133C1254.62 614.133 1255.44 614.878 1255.44 615.799C1255.44 616.719 1254.62 617.465 1253.61 617.465C1252.6 617.465 1251.78 616.719 1251.78 615.799Z" fill="#EF4782"/>
<path d="M1232.39 615.799C1232.39 614.878 1233.21 614.133 1234.22 614.133C1235.23 614.133 1236.05 614.878 1236.05 615.799C1236.05 616.719 1235.23 617.465 1234.22 617.465C1233.21 617.465 1232.39 616.719 1232.39 615.799Z" fill="#EF4782"/>
<path d="M1213 615.799C1213 614.878 1213.82 614.133 1214.83 614.133C1215.84 614.133 1216.66 614.878 1216.66 615.799C1216.66 616.719 1215.84 617.465 1214.83 617.465C1213.82 617.465 1213 616.719 1213 615.799Z" fill="#EF4782"/>
<path d="M1329.34 596.275C1329.34 595.355 1330.16 594.609 1331.17 594.609C1332.18 594.609 1333 595.355 1333 596.275C1333 597.196 1332.18 597.941 1331.17 597.941C1330.16 597.941 1329.34 597.196 1329.34 596.275Z" fill="#EF4782"/>
<path d="M1309.95 596.275C1309.95 595.355 1310.77 594.609 1311.78 594.609C1312.79 594.609 1313.61 595.355 1313.61 596.275C1313.61 597.196 1312.79 597.941 1311.78 597.941C1310.77 597.941 1309.95 597.196 1309.95 596.275Z" fill="#EF4782"/>
<path d="M1290.56 596.275C1290.56 595.355 1291.38 594.609 1292.39 594.609C1293.4 594.609 1294.22 595.355 1294.22 596.275C1294.22 597.196 1293.4 597.941 1292.39 597.941C1291.38 597.941 1290.56 597.196 1290.56 596.275Z" fill="white"/>
<path d="M1271.17 596.275C1271.17 595.355 1271.99 594.609 1273 594.609C1274.01 594.609 1274.83 595.355 1274.83 596.275C1274.83 597.196 1274.01 597.941 1273 597.941C1271.99 597.941 1271.17 597.196 1271.17 596.275Z" fill="#EF4782"/>
<path d="M1251.78 596.275C1251.78 595.355 1252.6 594.609 1253.61 594.609C1254.62 594.609 1255.44 595.355 1255.44 596.275C1255.44 597.196 1254.62 597.941 1253.61 597.941C1252.6 597.941 1251.78 597.196 1251.78 596.275Z" fill="#EF4782"/>
<path d="M1232.39 596.275C1232.39 595.355 1233.21 594.609 1234.22 594.609C1235.23 594.609 1236.05 595.355 1236.05 596.275C1236.05 597.196 1235.23 597.941 1234.22 597.941C1233.21 597.941 1232.39 597.196 1232.39 596.275Z" fill="#EF4782"/>
<path d="M1213 596.275C1213 595.355 1213.82 594.609 1214.83 594.609C1215.84 594.609 1216.66 595.355 1216.66 596.275C1216.66 597.196 1215.84 597.941 1214.83 597.941C1213.82 597.941 1213 597.196 1213 596.275Z" fill="#EF4782"/>
<path d="M1329.34 576.751C1329.34 575.831 1330.16 575.084 1331.17 575.084C1332.18 575.084 1333 575.831 1333 576.751C1333 577.672 1332.18 578.418 1331.17 578.418C1330.16 578.418 1329.34 577.672 1329.34 576.751Z" fill="#EF4782"/>
<path d="M1309.95 576.751C1309.95 575.831 1310.77 575.084 1311.78 575.084C1312.79 575.084 1313.61 575.831 1313.61 576.751C1313.61 577.672 1312.79 578.418 1311.78 578.418C1310.77 578.418 1309.95 577.672 1309.95 576.751Z" fill="#EF4782"/>
<path d="M1290.56 576.751C1290.56 575.831 1291.38 575.084 1292.39 575.084C1293.4 575.084 1294.22 575.831 1294.22 576.751C1294.22 577.672 1293.4 578.418 1292.39 578.418C1291.38 578.418 1290.56 577.672 1290.56 576.751Z" fill="#EF4782"/>
<path d="M1271.17 576.751C1271.17 575.831 1271.99 575.084 1273 575.084C1274.01 575.084 1274.83 575.831 1274.83 576.751C1274.83 577.672 1274.01 578.418 1273 578.418C1271.99 578.418 1271.17 577.672 1271.17 576.751Z" fill="#EF4782"/>
<path d="M1251.78 576.751C1251.78 575.831 1252.6 575.084 1253.61 575.084C1254.62 575.084 1255.44 575.831 1255.44 576.751C1255.44 577.672 1254.62 578.418 1253.61 578.418C1252.6 578.418 1251.78 577.672 1251.78 576.751Z" fill="white"/>
<path d="M1232.39 576.751C1232.39 575.831 1233.21 575.084 1234.22 575.084C1235.23 575.084 1236.05 575.831 1236.05 576.751C1236.05 577.672 1235.23 578.418 1234.22 578.418C1233.21 578.418 1232.39 577.672 1232.39 576.751Z" fill="#EF4782"/>
<path d="M1213 576.751C1213 575.831 1213.82 575.084 1214.83 575.084C1215.84 575.084 1216.66 575.831 1216.66 576.751C1216.66 577.672 1215.84 578.418 1214.83 578.418C1213.82 578.418 1213 577.672 1213 576.751Z" fill="#EF4782"/>
<path d="M1329.34 557.228C1329.34 556.308 1330.16 555.562 1331.17 555.562C1332.18 555.562 1333 556.308 1333 557.228C1333 558.149 1332.18 558.894 1331.17 558.894C1330.16 558.894 1329.34 558.149 1329.34 557.228Z" fill="#EF4782"/>
<path d="M1309.95 557.228C1309.95 556.308 1310.77 555.562 1311.78 555.562C1312.79 555.562 1313.61 556.308 1313.61 557.228C1313.61 558.149 1312.79 558.894 1311.78 558.894C1310.77 558.894 1309.95 558.149 1309.95 557.228Z" fill="#EF4782"/>
<path d="M1290.56 557.228C1290.56 556.308 1291.38 555.562 1292.39 555.562C1293.4 555.562 1294.22 556.308 1294.22 557.228C1294.22 558.149 1293.4 558.894 1292.39 558.894C1291.38 558.894 1290.56 558.149 1290.56 557.228Z" fill="#EF4782"/>
<path d="M1271.17 557.228C1271.17 556.308 1271.99 555.562 1273 555.562C1274.01 555.562 1274.83 556.308 1274.83 557.228C1274.83 558.149 1274.01 558.894 1273 558.894C1271.99 558.894 1271.17 558.149 1271.17 557.228Z" fill="#EF4782"/>
<path d="M1251.78 557.228C1251.78 556.308 1252.6 555.562 1253.61 555.562C1254.62 555.562 1255.44 556.308 1255.44 557.228C1255.44 558.149 1254.62 558.894 1253.61 558.894C1252.6 558.894 1251.78 558.149 1251.78 557.228Z" fill="#EF4782"/>
<path d="M1232.39 557.228C1232.39 556.308 1233.21 555.562 1234.22 555.562C1235.23 555.562 1236.05 556.308 1236.05 557.228C1236.05 558.149 1235.23 558.894 1234.22 558.894C1233.21 558.894 1232.39 558.149 1232.39 557.228Z" fill="#EF4782"/>
<path d="M1213 557.228C1213 556.308 1213.82 555.562 1214.83 555.562C1215.84 555.562 1216.66 556.308 1216.66 557.228C1216.66 558.149 1215.84 558.894 1214.83 558.894C1213.82 558.894 1213 558.149 1213 557.228Z" fill="#EF4782"/>
<path d="M1329.34 537.704C1329.34 536.784 1330.16 536.039 1331.17 536.039C1332.18 536.039 1333 536.784 1333 537.704C1333 538.624 1332.18 539.371 1331.17 539.371C1330.16 539.371 1329.34 538.624 1329.34 537.704Z" fill="#EF4782"/>
<path d="M1309.95 537.704C1309.95 536.784 1310.77 536.039 1311.78 536.039C1312.79 536.039 1313.61 536.784 1313.61 537.704C1313.61 538.624 1312.79 539.371 1311.78 539.371C1310.77 539.371 1309.95 538.624 1309.95 537.704Z" fill="#EF4782"/>
<path d="M1290.56 537.704C1290.56 536.784 1291.38 536.039 1292.39 536.039C1293.4 536.039 1294.22 536.784 1294.22 537.704C1294.22 538.624 1293.4 539.371 1292.39 539.371C1291.38 539.371 1290.56 538.624 1290.56 537.704Z" fill="#EF4782"/>
<path d="M1271.17 537.704C1271.17 536.784 1271.99 536.039 1273 536.039C1274.01 536.039 1274.83 536.784 1274.83 537.704C1274.83 538.624 1274.01 539.371 1273 539.371C1271.99 539.371 1271.17 538.624 1271.17 537.704Z" fill="white"/>
<path d="M1251.78 537.704C1251.78 536.784 1252.6 536.039 1253.61 536.039C1254.62 536.039 1255.44 536.784 1255.44 537.704C1255.44 538.624 1254.62 539.371 1253.61 539.371C1252.6 539.371 1251.78 538.624 1251.78 537.704Z" fill="#EF4782"/>
<path d="M1232.39 537.704C1232.39 536.784 1233.21 536.039 1234.22 536.039C1235.23 536.039 1236.05 536.784 1236.05 537.704C1236.05 538.624 1235.23 539.371 1234.22 539.371C1233.21 539.371 1232.39 538.624 1232.39 537.704Z" fill="#EF4782"/>
<path d="M1213 537.704C1213 536.784 1213.82 536.039 1214.83 536.039C1215.84 536.039 1216.66 536.784 1216.66 537.704C1216.66 538.624 1215.84 539.371 1214.83 539.371C1213.82 539.371 1213 538.624 1213 537.704Z" fill="#EF4782"/>
<path d="M1329.34 518.181C1329.34 517.261 1330.16 516.514 1331.17 516.514C1332.18 516.514 1333 517.261 1333 518.181C1333 519.101 1332.18 519.848 1331.17 519.848C1330.16 519.848 1329.34 519.101 1329.34 518.181Z" fill="#EF4782"/>
<path d="M1309.95 518.181C1309.95 517.261 1310.77 516.514 1311.78 516.514C1312.79 516.514 1313.61 517.261 1313.61 518.181C1313.61 519.101 1312.79 519.848 1311.78 519.848C1310.77 519.848 1309.95 519.101 1309.95 518.181Z" fill="#EF4782"/>
<path d="M1290.56 518.181C1290.56 517.261 1291.38 516.514 1292.39 516.514C1293.4 516.514 1294.22 517.261 1294.22 518.181C1294.22 519.101 1293.4 519.848 1292.39 519.848C1291.38 519.848 1290.56 519.101 1290.56 518.181Z" fill="#EF4782"/>
<path d="M1271.17 518.181C1271.17 517.261 1271.99 516.514 1273 516.514C1274.01 516.514 1274.83 517.261 1274.83 518.181C1274.83 519.101 1274.01 519.848 1273 519.848C1271.99 519.848 1271.17 519.101 1271.17 518.181Z" fill="#EF4782"/>
<path d="M1251.78 518.181C1251.78 517.261 1252.6 516.514 1253.61 516.514C1254.62 516.514 1255.44 517.261 1255.44 518.181C1255.44 519.101 1254.62 519.848 1253.61 519.848C1252.6 519.848 1251.78 519.101 1251.78 518.181Z" fill="#EF4782"/>
<path d="M1232.39 518.181C1232.39 517.261 1233.21 516.514 1234.22 516.514C1235.23 516.514 1236.05 517.261 1236.05 518.181C1236.05 519.101 1235.23 519.848 1234.22 519.848C1233.21 519.848 1232.39 519.101 1232.39 518.181Z" fill="white"/>
<path d="M1213 518.181C1213 517.261 1213.82 516.514 1214.83 516.514C1215.84 516.514 1216.66 517.261 1216.66 518.181C1216.66 519.101 1215.84 519.848 1214.83 519.848C1213.82 519.848 1213 519.101 1213 518.181Z" fill="#EF4782"/>
<path d="M1329.34 498.657C1329.34 497.738 1330.16 496.991 1331.17 496.991C1332.18 496.991 1333 497.738 1333 498.657C1333 499.577 1332.18 500.323 1331.17 500.323C1330.16 500.323 1329.34 499.577 1329.34 498.657Z" fill="#EF4782"/>
<path d="M1309.95 498.657C1309.95 497.738 1310.77 496.991 1311.78 496.991C1312.79 496.991 1313.61 497.738 1313.61 498.657C1313.61 499.577 1312.79 500.323 1311.78 500.323C1310.77 500.323 1309.95 499.577 1309.95 498.657Z" fill="white"/>
<path d="M1290.56 498.657C1290.56 497.738 1291.38 496.991 1292.39 496.991C1293.4 496.991 1294.22 497.738 1294.22 498.657C1294.22 499.577 1293.4 500.323 1292.39 500.323C1291.38 500.323 1290.56 499.577 1290.56 498.657Z" fill="#EF4782"/>
<path d="M1271.17 498.657C1271.17 497.738 1271.99 496.991 1273 496.991C1274.01 496.991 1274.83 497.738 1274.83 498.657C1274.83 499.577 1274.01 500.323 1273 500.323C1271.99 500.323 1271.17 499.577 1271.17 498.657Z" fill="#EF4782"/>
<path d="M1251.78 498.657C1251.78 497.738 1252.6 496.991 1253.61 496.991C1254.62 496.991 1255.44 497.738 1255.44 498.657C1255.44 499.577 1254.62 500.323 1253.61 500.323C1252.6 500.323 1251.78 499.577 1251.78 498.657Z" fill="#EF4782"/>
<path d="M1232.39 498.657C1232.39 497.738 1233.21 496.991 1234.22 496.991C1235.23 496.991 1236.05 497.738 1236.05 498.657C1236.05 499.577 1235.23 500.323 1234.22 500.323C1233.21 500.323 1232.39 499.577 1232.39 498.657Z" fill="#EF4782"/>
<path d="M796.255 102.605H791V85.998H796.255V102.605Z" fill="white"/>
<path d="M785 96.9244V91.9982H802.716V96.9244H785Z" fill="white"/>
<path d="M1034.5 541.99L962 609.958L963.359 611.231L1035.86 543.262" fill="#EF4782"/>
<path d="M1299.5 224.996L1227 292.964L1228.36 294.237L1300.86 226.268" fill="white"/>
<g style="mix-blend-mode:soft-light">
<path d="M1.27324 770.546C1.97643 770.546 2.54648 769.973 2.54648 769.266C2.54648 768.559 1.97643 767.986 1.27324 767.986C0.570047 767.986 0 768.559 0 769.266C0 769.973 0.570047 770.546 1.27324 770.546Z" fill="white"/>
<path d="M15.8943 770.546C16.5975 770.546 17.1676 769.973 17.1676 769.266C17.1676 768.559 16.5975 767.986 15.8943 767.986C15.1911 767.986 14.6211 768.559 14.6211 769.266C14.6211 769.973 15.1911 770.546 15.8943 770.546Z" fill="white"/>
<path d="M30.526 770.546C31.2292 770.546 31.7993 769.973 31.7993 769.266C31.7993 768.559 31.2292 767.986 30.526 767.986C29.8228 767.986 29.2528 768.559 29.2528 769.266C29.2528 769.973 29.8228 770.546 30.526 770.546Z" fill="white"/>
<path d="M45.1471 770.546C45.8503 770.546 46.4204 769.973 46.4204 769.266C46.4204 768.559 45.8503 767.986 45.1471 767.986C44.4439 767.986 43.8739 768.559 43.8739 769.266C43.8739 769.973 44.4439 770.546 45.1471 770.546Z" fill="white"/>
<path d="M59.7682 770.546C60.4714 770.546 61.0414 769.973 61.0414 769.266C61.0414 768.559 60.4714 767.986 59.7682 767.986C59.065 767.986 58.4949 768.559 58.4949 769.266C58.4949 769.973 59.065 770.546 59.7682 770.546Z" fill="white"/>
<path d="M74.3893 770.546C75.0924 770.546 75.6625 769.973 75.6625 769.266C75.6625 768.559 75.0924 767.986 74.3893 767.986C73.6861 767.986 73.116 768.559 73.116 769.266C73.116 769.973 73.6861 770.546 74.3893 770.546Z" fill="white"/>
<path d="M89.0103 770.546C89.7135 770.546 90.2836 769.973 90.2836 769.266C90.2836 768.559 89.7135 767.986 89.0103 767.986C88.3072 767.986 87.7371 768.559 87.7371 769.266C87.7371 769.973 88.3072 770.546 89.0103 770.546Z" fill="white"/>
<path d="M103.631 770.546C104.335 770.546 104.905 769.973 104.905 769.266C104.905 768.559 104.335 767.986 103.631 767.986C102.928 767.986 102.358 768.559 102.358 769.266C102.358 769.973 102.928 770.546 103.631 770.546Z" fill="white"/>
<path d="M119.526 769.266C119.526 769.97 118.953 770.546 118.253 770.546C117.552 770.546 116.979 769.97 116.979 769.266C116.979 768.562 117.552 767.986 118.253 767.986C118.963 767.986 119.526 768.562 119.526 769.266Z" fill="white"/>
<path d="M132.884 770.546C133.587 770.546 134.157 769.973 134.157 769.266C134.157 768.559 133.587 767.986 132.884 767.986C132.181 767.986 131.611 768.559 131.611 769.266C131.611 769.973 132.181 770.546 132.884 770.546Z" fill="white"/>
<path d="M147.505 770.546C148.208 770.546 148.779 769.973 148.779 769.266C148.779 768.559 148.208 767.986 147.505 767.986C146.802 767.986 146.232 768.559 146.232 769.266C146.232 769.973 146.802 770.546 147.505 770.546Z" fill="white"/>
<path d="M1.27324 784.928C1.97643 784.928 2.54648 784.355 2.54648 783.647C2.54648 782.94 1.97643 782.367 1.27324 782.367C0.570047 782.367 0 782.94 0 783.647C0 784.355 0.570047 784.928 1.27324 784.928Z" fill="white"/>
<path d="M15.8943 784.928C16.5975 784.928 17.1676 784.355 17.1676 783.647C17.1676 782.94 16.5975 782.367 15.8943 782.367C15.1911 782.367 14.6211 782.94 14.6211 783.647C14.6211 784.355 15.1911 784.928 15.8943 784.928Z" fill="white"/>
<path d="M30.526 784.928C31.2292 784.928 31.7993 784.355 31.7993 783.647C31.7993 782.94 31.2292 782.367 30.526 782.367C29.8228 782.367 29.2528 782.94 29.2528 783.647C29.2528 784.355 29.8228 784.928 30.526 784.928Z" fill="white"/>
<path d="M45.1471 784.928C45.8503 784.928 46.4204 784.355 46.4204 783.647C46.4204 782.94 45.8503 782.367 45.1471 782.367C44.4439 782.367 43.8739 782.94 43.8739 783.647C43.8739 784.355 44.4439 784.928 45.1471 784.928Z" fill="white"/>
<path d="M59.7682 784.928C60.4714 784.928 61.0414 784.355 61.0414 783.647C61.0414 782.94 60.4714 782.367 59.7682 782.367C59.065 782.367 58.4949 782.94 58.4949 783.647C58.4949 784.355 59.065 784.928 59.7682 784.928Z" fill="white"/>
<path d="M74.3893 784.928C75.0924 784.928 75.6625 784.355 75.6625 783.647C75.6625 782.94 75.0924 782.367 74.3893 782.367C73.6861 782.367 73.116 782.94 73.116 783.647C73.116 784.355 73.6861 784.928 74.3893 784.928Z" fill="white"/>
<path d="M89.0103 784.928C89.7135 784.928 90.2836 784.355 90.2836 783.647C90.2836 782.94 89.7135 782.367 89.0103 782.367C88.3072 782.367 87.7371 782.94 87.7371 783.647C87.7371 784.355 88.3072 784.928 89.0103 784.928Z" fill="white"/>
<path d="M103.631 784.928C104.335 784.928 104.905 784.355 104.905 783.647C104.905 782.94 104.335 782.367 103.631 782.367C102.928 782.367 102.358 782.94 102.358 783.647C102.358 784.355 102.928 784.928 103.631 784.928Z" fill="white"/>
<path d="M119.526 783.647C119.526 784.352 118.953 784.928 118.253 784.928C117.552 784.928 116.979 784.352 116.979 783.647C116.979 782.943 117.552 782.367 118.253 782.367C118.963 782.378 119.526 782.943 119.526 783.647Z" fill="white"/>
<path d="M132.884 784.928C133.587 784.928 134.157 784.355 134.157 783.647C134.157 782.94 133.587 782.367 132.884 782.367C132.181 782.367 131.611 782.94 131.611 783.647C131.611 784.355 132.181 784.928 132.884 784.928Z" fill="white"/>
<path d="M147.505 784.928C148.208 784.928 148.779 784.355 148.779 783.647C148.779 782.94 148.208 782.367 147.505 782.367C146.802 782.367 146.232 782.94 146.232 783.647C146.232 784.355 146.802 784.928 147.505 784.928Z" fill="white"/>
<path d="M1.27324 799.32C1.97643 799.32 2.54648 798.747 2.54648 798.04C2.54648 797.332 1.97643 796.759 1.27324 796.759C0.570047 796.759 0 797.332 0 798.04C0 798.747 0.570047 799.32 1.27324 799.32Z" fill="white"/>
<path d="M15.8943 799.32C16.5975 799.32 17.1676 798.747 17.1676 798.04C17.1676 797.332 16.5975 796.759 15.8943 796.759C15.1911 796.759 14.6211 797.332 14.6211 798.04C14.6211 798.747 15.1911 799.32 15.8943 799.32Z" fill="white"/>
<path d="M30.526 799.32C31.2292 799.32 31.7993 798.747 31.7993 798.04C31.7993 797.332 31.2292 796.759 30.526 796.759C29.8228 796.759 29.2528 797.332 29.2528 798.04C29.2528 798.747 29.8228 799.32 30.526 799.32Z" fill="white"/>
<path d="M45.1471 799.32C45.8503 799.32 46.4204 798.747 46.4204 798.04C46.4204 797.332 45.8503 796.759 45.1471 796.759C44.4439 796.759 43.8739 797.332 43.8739 798.04C43.8739 798.747 44.4439 799.32 45.1471 799.32Z" fill="white"/>
<path d="M59.7682 799.32C60.4714 799.32 61.0414 798.747 61.0414 798.04C61.0414 797.332 60.4714 796.759 59.7682 796.759C59.065 796.759 58.4949 797.332 58.4949 798.04C58.4949 798.747 59.065 799.32 59.7682 799.32Z" fill="white"/>
<path d="M74.3893 799.32C75.0924 799.32 75.6625 798.747 75.6625 798.04C75.6625 797.332 75.0924 796.759 74.3893 796.759C73.6861 796.759 73.116 797.332 73.116 798.04C73.116 798.747 73.6861 799.32 74.3893 799.32Z" fill="white"/>
<path d="M89.0103 799.32C89.7135 799.32 90.2836 798.747 90.2836 798.04C90.2836 797.332 89.7135 796.759 89.0103 796.759C88.3072 796.759 87.7371 797.332 87.7371 798.04C87.7371 798.747 88.3072 799.32 89.0103 799.32Z" fill="white"/>
<path d="M103.631 799.32C104.335 799.32 104.905 798.747 104.905 798.04C104.905 797.332 104.335 796.759 103.631 796.759C102.928 796.759 102.358 797.332 102.358 798.04C102.358 798.747 102.928 799.32 103.631 799.32Z" fill="white"/>
<path d="M119.526 798.04C119.526 798.744 118.953 799.32 118.253 799.32C117.552 799.32 116.979 798.744 116.979 798.04C116.979 797.335 117.552 796.759 118.253 796.759C118.963 796.759 119.526 797.325 119.526 798.04Z" fill="white"/>
<path d="M132.884 799.32C133.587 799.32 134.157 798.747 134.157 798.04C134.157 797.332 133.587 796.759 132.884 796.759C132.181 796.759 131.611 797.332 131.611 798.04C131.611 798.747 132.181 799.32 132.884 799.32Z" fill="white"/>
<path d="M147.505 799.32C148.208 799.32 148.779 798.747 148.779 798.04C148.779 797.332 148.208 796.759 147.505 796.759C146.802 796.759 146.232 797.332 146.232 798.04C146.232 798.747 146.802 799.32 147.505 799.32Z" fill="white"/>
<path d="M1.27324 813.701C1.97643 813.701 2.54648 813.128 2.54648 812.421C2.54648 811.714 1.97643 811.141 1.27324 811.141C0.570047 811.141 0 811.714 0 812.421C0 813.128 0.570047 813.701 1.27324 813.701Z" fill="white"/>
<path d="M15.8943 813.701C16.5975 813.701 17.1676 813.128 17.1676 812.421C17.1676 811.714 16.5975 811.141 15.8943 811.141C15.1911 811.141 14.6211 811.714 14.6211 812.421C14.6211 813.128 15.1911 813.701 15.8943 813.701Z" fill="white"/>
<path d="M30.526 813.701C31.2292 813.701 31.7993 813.128 31.7993 812.421C31.7993 811.714 31.2292 811.141 30.526 811.141C29.8228 811.141 29.2528 811.714 29.2528 812.421C29.2528 813.128 29.8228 813.701 30.526 813.701Z" fill="white"/>
<path d="M45.1471 813.701C45.8503 813.701 46.4204 813.128 46.4204 812.421C46.4204 811.714 45.8503 811.141 45.1471 811.141C44.4439 811.141 43.8739 811.714 43.8739 812.421C43.8739 813.128 44.4439 813.701 45.1471 813.701Z" fill="white"/>
<path d="M59.7682 813.701C60.4714 813.701 61.0414 813.128 61.0414 812.421C61.0414 811.714 60.4714 811.141 59.7682 811.141C59.065 811.141 58.4949 811.714 58.4949 812.421C58.4949 813.128 59.065 813.701 59.7682 813.701Z" fill="white"/>
<path d="M74.3893 813.701C75.0924 813.701 75.6625 813.128 75.6625 812.421C75.6625 811.714 75.0924 811.141 74.3893 811.141C73.6861 811.141 73.116 811.714 73.116 812.421C73.116 813.128 73.6861 813.701 74.3893 813.701Z" fill="white"/>
<path d="M89.0103 813.701C89.7135 813.701 90.2836 813.128 90.2836 812.421C90.2836 811.714 89.7135 811.141 89.0103 811.141C88.3072 811.141 87.7371 811.714 87.7371 812.421C87.7371 813.128 88.3072 813.701 89.0103 813.701Z" fill="white"/>
<path d="M103.631 813.701C104.335 813.701 104.905 813.128 104.905 812.421C104.905 811.714 104.335 811.141 103.631 811.141C102.928 811.141 102.358 811.714 102.358 812.421C102.358 813.128 102.928 813.701 103.631 813.701Z" fill="white"/>
<path d="M119.526 812.421C119.526 813.125 118.953 813.701 118.253 813.701C117.552 813.701 116.979 813.125 116.979 812.421C116.979 811.717 117.552 811.141 118.253 811.141C118.963 811.141 119.526 811.717 119.526 812.421Z" fill="white"/>
<path d="M132.884 813.701C133.587 813.701 134.157 813.128 134.157 812.421C134.157 811.714 133.587 811.141 132.884 811.141C132.181 811.141 131.611 811.714 131.611 812.421C131.611 813.128 132.181 813.701 132.884 813.701Z" fill="white"/>
<path d="M147.505 813.701C148.208 813.701 148.779 813.128 148.779 812.421C148.779 811.714 148.208 811.141 147.505 811.141C146.802 811.141 146.232 811.714 146.232 812.421C146.232 813.128 146.802 813.701 147.505 813.701Z" fill="white"/>
<path d="M1.27324 828.082C1.97643 828.082 2.54648 827.509 2.54648 826.802C2.54648 826.095 1.97643 825.522 1.27324 825.522C0.570047 825.522 0 826.095 0 826.802C0 827.509 0.570047 828.082 1.27324 828.082Z" fill="white"/>
<path d="M15.8943 828.082C16.5975 828.082 17.1676 827.509 17.1676 826.802C17.1676 826.095 16.5975 825.522 15.8943 825.522C15.1911 825.522 14.6211 826.095 14.6211 826.802C14.6211 827.509 15.1911 828.082 15.8943 828.082Z" fill="white"/>
<path d="M30.526 828.082C31.2292 828.082 31.7993 827.509 31.7993 826.802C31.7993 826.095 31.2292 825.522 30.526 825.522C29.8228 825.522 29.2528 826.095 29.2528 826.802C29.2528 827.509 29.8228 828.082 30.526 828.082Z" fill="white"/>
<path d="M45.1471 828.082C45.8503 828.082 46.4204 827.509 46.4204 826.802C46.4204 826.095 45.8503 825.522 45.1471 825.522C44.4439 825.522 43.8739 826.095 43.8739 826.802C43.8739 827.509 44.4439 828.082 45.1471 828.082Z" fill="white"/>
<path d="M59.7682 828.082C60.4714 828.082 61.0414 827.509 61.0414 826.802C61.0414 826.095 60.4714 825.522 59.7682 825.522C59.065 825.522 58.4949 826.095 58.4949 826.802C58.4949 827.509 59.065 828.082 59.7682 828.082Z" fill="white"/>
<path d="M74.3893 828.082C75.0924 828.082 75.6625 827.509 75.6625 826.802C75.6625 826.095 75.0924 825.522 74.3893 825.522C73.6861 825.522 73.116 826.095 73.116 826.802C73.116 827.509 73.6861 828.082 74.3893 828.082Z" fill="white"/>
<path d="M89.0103 828.082C89.7135 828.082 90.2836 827.509 90.2836 826.802C90.2836 826.095 89.7135 825.522 89.0103 825.522C88.3072 825.522 87.7371 826.095 87.7371 826.802C87.7371 827.509 88.3072 828.082 89.0103 828.082Z" fill="white"/>
<path d="M103.631 828.082C104.335 828.082 104.905 827.509 104.905 826.802C104.905 826.095 104.335 825.522 103.631 825.522C102.928 825.522 102.358 826.095 102.358 826.802C102.358 827.509 102.928 828.082 103.631 828.082Z" fill="white"/>
<path d="M119.526 826.802C119.526 827.506 118.953 828.082 118.253 828.082C117.552 828.082 116.979 827.506 116.979 826.802C116.979 826.098 117.552 825.522 118.253 825.522C118.963 825.522 119.526 826.098 119.526 826.802Z" fill="white"/>
<path d="M132.884 828.082C133.587 828.082 134.157 827.509 134.157 826.802C134.157 826.095 133.587 825.522 132.884 825.522C132.181 825.522 131.611 826.095 131.611 826.802C131.611 827.509 132.181 828.082 132.884 828.082Z" fill="white"/>
<path d="M147.505 828.082C148.208 828.082 148.779 827.509 148.779 826.802C148.779 826.095 148.208 825.522 147.505 825.522C146.802 825.522 146.232 826.095 146.232 826.802C146.232 827.509 146.802 828.082 147.505 828.082Z" fill="white"/>
<path d="M1.27324 842.464C1.97643 842.464 2.54648 841.891 2.54648 841.184C2.54648 840.477 1.97643 839.903 1.27324 839.903C0.570047 839.903 0 840.477 0 841.184C0 841.891 0.570047 842.464 1.27324 842.464Z" fill="white"/>
<path d="M15.8943 842.464C16.5975 842.464 17.1676 841.891 17.1676 841.184C17.1676 840.477 16.5975 839.903 15.8943 839.903C15.1911 839.903 14.6211 840.477 14.6211 841.184C14.6211 841.891 15.1911 842.464 15.8943 842.464Z" fill="white"/>
<path d="M30.526 842.464C31.2292 842.464 31.7993 841.891 31.7993 841.184C31.7993 840.477 31.2292 839.903 30.526 839.903C29.8228 839.903 29.2528 840.477 29.2528 841.184C29.2528 841.891 29.8228 842.464 30.526 842.464Z" fill="white"/>
<path d="M45.1471 842.464C45.8503 842.464 46.4204 841.891 46.4204 841.184C46.4204 840.477 45.8503 839.903 45.1471 839.903C44.4439 839.903 43.8739 840.477 43.8739 841.184C43.8739 841.891 44.4439 842.464 45.1471 842.464Z" fill="white"/>
<path d="M59.7682 842.464C60.4714 842.464 61.0414 841.891 61.0414 841.184C61.0414 840.477 60.4714 839.903 59.7682 839.903C59.065 839.903 58.4949 840.477 58.4949 841.184C58.4949 841.891 59.065 842.464 59.7682 842.464Z" fill="white"/>
<path d="M74.3893 842.464C75.0924 842.464 75.6625 841.891 75.6625 841.184C75.6625 840.477 75.0924 839.903 74.3893 839.903C73.6861 839.903 73.116 840.477 73.116 841.184C73.116 841.891 73.6861 842.464 74.3893 842.464Z" fill="white"/>
<path d="M89.0103 842.464C89.7135 842.464 90.2836 841.891 90.2836 841.184C90.2836 840.477 89.7135 839.903 89.0103 839.903C88.3072 839.903 87.7371 840.477 87.7371 841.184C87.7371 841.891 88.3072 842.464 89.0103 842.464Z" fill="white"/>
<path d="M103.631 842.464C104.335 842.464 104.905 841.891 104.905 841.184C104.905 840.477 104.335 839.903 103.631 839.903C102.928 839.903 102.358 840.477 102.358 841.184C102.358 841.891 102.928 842.464 103.631 842.464Z" fill="white"/>
<path d="M119.526 841.184C119.526 841.888 118.953 842.464 118.253 842.464C117.552 842.464 116.979 841.888 116.979 841.184C116.979 840.48 117.552 839.903 118.253 839.903C118.963 839.903 119.526 840.48 119.526 841.184Z" fill="white"/>
<path d="M132.884 842.464C133.587 842.464 134.157 841.891 134.157 841.184C134.157 840.477 133.587 839.903 132.884 839.903C132.181 839.903 131.611 840.477 131.611 841.184C131.611 841.891 132.181 842.464 132.884 842.464Z" fill="white"/>
<path d="M147.505 842.464C148.208 842.464 148.779 841.891 148.779 841.184C148.779 840.477 148.208 839.903 147.505 839.903C146.802 839.903 146.232 840.477 146.232 841.184C146.232 841.891 146.802 842.464 147.505 842.464Z" fill="white"/>
<path d="M1.27324 856.845C1.97643 856.845 2.54648 856.272 2.54648 855.565C2.54648 854.858 1.97643 854.285 1.27324 854.285C0.570047 854.285 0 854.858 0 855.565C0 856.272 0.570047 856.845 1.27324 856.845Z" fill="white"/>
<path d="M15.8943 856.845C16.5975 856.845 17.1676 856.272 17.1676 855.565C17.1676 854.858 16.5975 854.285 15.8943 854.285C15.1911 854.285 14.6211 854.858 14.6211 855.565C14.6211 856.272 15.1911 856.845 15.8943 856.845Z" fill="white"/>
<path d="M30.526 856.845C31.2292 856.845 31.7993 856.272 31.7993 855.565C31.7993 854.858 31.2292 854.285 30.526 854.285C29.8228 854.285 29.2528 854.858 29.2528 855.565C29.2528 856.272 29.8228 856.845 30.526 856.845Z" fill="white"/>
<path d="M45.1471 856.845C45.8503 856.845 46.4204 856.272 46.4204 855.565C46.4204 854.858 45.8503 854.285 45.1471 854.285C44.4439 854.285 43.8739 854.858 43.8739 855.565C43.8739 856.272 44.4439 856.845 45.1471 856.845Z" fill="white"/>
<path d="M59.7682 856.845C60.4714 856.845 61.0414 856.272 61.0414 855.565C61.0414 854.858 60.4714 854.285 59.7682 854.285C59.065 854.285 58.4949 854.858 58.4949 855.565C58.4949 856.272 59.065 856.845 59.7682 856.845Z" fill="white"/>
<path d="M74.3893 856.845C75.0924 856.845 75.6625 856.272 75.6625 855.565C75.6625 854.858 75.0924 854.285 74.3893 854.285C73.6861 854.285 73.116 854.858 73.116 855.565C73.116 856.272 73.6861 856.845 74.3893 856.845Z" fill="white"/>
<path d="M89.0103 856.845C89.7135 856.845 90.2836 856.272 90.2836 855.565C90.2836 854.858 89.7135 854.285 89.0103 854.285C88.3072 854.285 87.7371 854.858 87.7371 855.565C87.7371 856.272 88.3072 856.845 89.0103 856.845Z" fill="white"/>
<path d="M103.631 856.845C104.335 856.845 104.905 856.272 104.905 855.565C104.905 854.858 104.335 854.285 103.631 854.285C102.928 854.285 102.358 854.858 102.358 855.565C102.358 856.272 102.928 856.845 103.631 856.845Z" fill="white"/>
<path d="M119.526 855.565C119.526 856.269 118.953 856.845 118.253 856.845C117.552 856.845 116.979 856.269 116.979 855.565C116.979 854.861 117.552 854.285 118.253 854.285C118.963 854.295 119.526 854.861 119.526 855.565Z" fill="white"/>
<path d="M132.884 856.845C133.587 856.845 134.157 856.272 134.157 855.565C134.157 854.858 133.587 854.285 132.884 854.285C132.181 854.285 131.611 854.858 131.611 855.565C131.611 856.272 132.181 856.845 132.884 856.845Z" fill="white"/>
<path d="M147.505 856.845C148.208 856.845 148.779 856.272 148.779 855.565C148.779 854.858 148.208 854.285 147.505 854.285C146.802 854.285 146.232 854.858 146.232 855.565C146.232 856.272 146.802 856.845 147.505 856.845Z" fill="white"/>
<path d="M2.54648 869.957C2.54648 870.661 1.97352 871.237 1.27324 871.237C0.572956 871.237 0 870.661 0 869.957C0 869.253 0.572956 868.677 1.27324 868.677C1.97352 868.677 2.54648 869.242 2.54648 869.957Z" fill="white"/>
<path d="M17.1676 869.957C17.1676 870.661 16.5946 871.237 15.8943 871.237C15.194 871.237 14.6211 870.661 14.6211 869.957C14.6211 869.253 15.194 868.677 15.8943 868.677C16.6052 868.677 17.1676 869.242 17.1676 869.957Z" fill="white"/>
<path d="M31.7886 869.957C31.7886 870.661 31.2157 871.237 30.5154 871.237C29.8151 871.237 29.2422 870.661 29.2422 869.957C29.2422 869.253 29.8151 868.677 30.5154 868.677C31.2263 868.677 31.7886 869.242 31.7886 869.957Z" fill="white"/>
<path d="M46.4204 869.957C46.4204 870.661 45.8474 871.237 45.1471 871.237C44.4468 871.237 43.8739 870.661 43.8739 869.957C43.8739 869.253 44.4468 868.677 45.1471 868.677C45.8474 868.677 46.4204 869.242 46.4204 869.957Z" fill="white"/>
<path d="M61.0414 869.957C61.0414 870.661 60.4684 871.237 59.7682 871.237C59.0679 871.237 58.4949 870.661 58.4949 869.957C58.4949 869.253 59.0679 868.677 59.7682 868.677C60.4684 868.677 61.0414 869.242 61.0414 869.957Z" fill="white"/>
<path d="M75.6625 869.957C75.6625 870.661 75.0895 871.237 74.3893 871.237C73.689 871.237 73.116 870.661 73.116 869.957C73.116 869.253 73.689 868.677 74.3893 868.677C75.0895 868.677 75.6625 869.242 75.6625 869.957Z" fill="white"/>
<path d="M90.2836 869.957C90.2836 870.661 89.7106 871.237 89.0103 871.237C88.3101 871.237 87.7371 870.661 87.7371 869.957C87.7371 869.253 88.3101 868.677 89.0103 868.677C89.7106 868.677 90.2836 869.242 90.2836 869.957Z" fill="white"/>
<path d="M104.905 869.957C104.905 870.661 104.332 871.237 103.631 871.237C102.931 871.237 102.358 870.661 102.358 869.957C102.358 869.253 102.931 868.677 103.631 868.677C104.342 868.677 104.905 869.242 104.905 869.957Z" fill="white"/>
<path d="M119.526 869.957C119.526 870.661 118.953 871.237 118.253 871.237C117.552 871.237 116.979 870.661 116.979 869.957C116.979 869.253 117.552 868.677 118.253 868.677C118.963 868.677 119.526 869.242 119.526 869.957Z" fill="white"/>
<path d="M134.157 869.957C134.157 870.661 133.585 871.237 132.884 871.237C132.184 871.237 131.611 870.661 131.611 869.957C131.611 869.253 132.184 868.677 132.884 868.677C133.585 868.677 134.157 869.242 134.157 869.957Z" fill="white"/>
<path d="M148.779 869.957C148.779 870.661 148.206 871.237 147.505 871.237C146.805 871.237 146.232 870.661 146.232 869.957C146.232 869.253 146.805 868.677 147.505 868.677C148.206 868.677 148.779 869.242 148.779 869.957Z" fill="white"/>
<path d="M1.27324 885.619C1.97643 885.619 2.54648 885.046 2.54648 884.339C2.54648 883.631 1.97643 883.058 1.27324 883.058C0.570047 883.058 0 883.631 0 884.339C0 885.046 0.570047 885.619 1.27324 885.619Z" fill="white"/>
<path d="M15.8943 885.619C16.5975 885.619 17.1676 885.046 17.1676 884.339C17.1676 883.631 16.5975 883.058 15.8943 883.058C15.1911 883.058 14.6211 883.631 14.6211 884.339C14.6211 885.046 15.1911 885.619 15.8943 885.619Z" fill="white"/>
<path d="M30.526 885.619C31.2292 885.619 31.7993 885.046 31.7993 884.339C31.7993 883.631 31.2292 883.058 30.526 883.058C29.8228 883.058 29.2528 883.631 29.2528 884.339C29.2528 885.046 29.8228 885.619 30.526 885.619Z" fill="white"/>
<path d="M45.1471 885.619C45.8503 885.619 46.4204 885.046 46.4204 884.339C46.4204 883.631 45.8503 883.058 45.1471 883.058C44.4439 883.058 43.8739 883.631 43.8739 884.339C43.8739 885.046 44.4439 885.619 45.1471 885.619Z" fill="white"/>
<path d="M59.7682 885.619C60.4714 885.619 61.0414 885.046 61.0414 884.339C61.0414 883.631 60.4714 883.058 59.7682 883.058C59.065 883.058 58.4949 883.631 58.4949 884.339C58.4949 885.046 59.065 885.619 59.7682 885.619Z" fill="white"/>
<path d="M74.3893 885.619C75.0924 885.619 75.6625 885.046 75.6625 884.339C75.6625 883.631 75.0924 883.058 74.3893 883.058C73.6861 883.058 73.116 883.631 73.116 884.339C73.116 885.046 73.6861 885.619 74.3893 885.619Z" fill="white"/>
<path d="M89.0103 885.619C89.7135 885.619 90.2836 885.046 90.2836 884.339C90.2836 883.631 89.7135 883.058 89.0103 883.058C88.3072 883.058 87.7371 883.631 87.7371 884.339C87.7371 885.046 88.3072 885.619 89.0103 885.619Z" fill="white"/>
<path d="M103.631 885.619C104.335 885.619 104.905 885.046 104.905 884.339C104.905 883.631 104.335 883.058 103.631 883.058C102.928 883.058 102.358 883.631 102.358 884.339C102.358 885.046 102.928 885.619 103.631 885.619Z" fill="white"/>
<path d="M119.526 884.339C119.526 885.043 118.953 885.619 118.253 885.619C117.552 885.619 116.979 885.043 116.979 884.339C116.979 883.634 117.552 883.058 118.253 883.058C118.963 883.058 119.526 883.634 119.526 884.339Z" fill="white"/>
<path d="M132.884 885.619C133.587 885.619 134.157 885.046 134.157 884.339C134.157 883.631 133.587 883.058 132.884 883.058C132.181 883.058 131.611 883.631 131.611 884.339C131.611 885.046 132.181 885.619 132.884 885.619Z" fill="white"/>
<path d="M147.505 885.619C148.208 885.619 148.779 885.046 148.779 884.339C148.779 883.631 148.208 883.058 147.505 883.058C146.802 883.058 146.232 883.631 146.232 884.339C146.232 885.046 146.802 885.619 147.505 885.619Z" fill="white"/>
<path d="M1.27324 900C1.97643 900 2.54648 899.427 2.54648 898.72C2.54648 898.013 1.97643 897.44 1.27324 897.44C0.570047 897.44 0 898.013 0 898.72C0 899.427 0.570047 900 1.27324 900Z" fill="white"/>
<path d="M15.8943 900C16.5975 900 17.1676 899.427 17.1676 898.72C17.1676 898.013 16.5975 897.44 15.8943 897.44C15.1911 897.44 14.6211 898.013 14.6211 898.72C14.6211 899.427 15.1911 900 15.8943 900Z" fill="white"/>
<path d="M30.526 900C31.2292 900 31.7993 899.427 31.7993 898.72C31.7993 898.013 31.2292 897.44 30.526 897.44C29.8228 897.44 29.2528 898.013 29.2528 898.72C29.2528 899.427 29.8228 900 30.526 900Z" fill="white"/>
<path d="M45.1471 900C45.8503 900 46.4204 899.427 46.4204 898.72C46.4204 898.013 45.8503 897.44 45.1471 897.44C44.4439 897.44 43.8739 898.013 43.8739 898.72C43.8739 899.427 44.4439 900 45.1471 900Z" fill="white"/>
<path d="M59.7682 900C60.4714 900 61.0414 899.427 61.0414 898.72C61.0414 898.013 60.4714 897.44 59.7682 897.44C59.065 897.44 58.4949 898.013 58.4949 898.72C58.4949 899.427 59.065 900 59.7682 900Z" fill="white"/>
<path d="M74.3893 900C75.0924 900 75.6625 899.427 75.6625 898.72C75.6625 898.013 75.0924 897.44 74.3893 897.44C73.6861 897.44 73.116 898.013 73.116 898.72C73.116 899.427 73.6861 900 74.3893 900Z" fill="white"/>
<path d="M89.0103 900C89.7135 900 90.2836 899.427 90.2836 898.72C90.2836 898.013 89.7135 897.44 89.0103 897.44C88.3072 897.44 87.7371 898.013 87.7371 898.72C87.7371 899.427 88.3072 900 89.0103 900Z" fill="white"/>
<path d="M103.631 900C104.335 900 104.905 899.427 104.905 898.72C104.905 898.013 104.335 897.44 103.631 897.44C102.928 897.44 102.358 898.013 102.358 898.72C102.358 899.427 102.928 900 103.631 900Z" fill="white"/>
<path d="M119.526 898.72C119.526 899.424 118.953 900 118.253 900C117.552 900 116.979 899.424 116.979 898.72C116.979 898.016 117.552 897.44 118.253 897.44C118.963 897.44 119.526 898.016 119.526 898.72Z" fill="white"/>
<path d="M132.884 900C133.587 900 134.157 899.427 134.157 898.72C134.157 898.013 133.587 897.44 132.884 897.44C132.181 897.44 131.611 898.013 131.611 898.72C131.611 899.427 132.181 900 132.884 900Z" fill="white"/>
<path d="M147.505 900C148.208 900 148.779 899.427 148.779 898.72C148.779 898.013 148.208 897.44 147.505 897.44C146.802 897.44 146.232 898.013 146.232 898.72C146.232 899.427 146.802 900 147.505 900Z" fill="white"/>
</g>
</svg>
