<svg xmlns="http://www.w3.org/2000/svg" width="375" viewBox="0 0 375 375" height="375" version="1.0"><path fill="#2B2B2B" d="M 267.207031 272.339844 L 107.503906 272.339844 C 104.773438 272.339844 102.535156 270.101562 102.535156 267.371094 L 102.535156 107.667969 C 102.535156 104.9375 104.773438 102.699219 107.503906 102.699219 L 267.207031 102.699219 C 269.9375 102.699219 272.175781 104.9375 272.175781 107.667969 L 272.175781 267.371094 C 272.175781 270.101562 269.9375 272.339844 267.207031 272.339844 Z M 107.996094 266.882812 L 266.773438 266.882812 L 266.773438 108.105469 L 107.996094 108.105469 Z M 107.996094 266.882812"/><path fill="#2B2B2B" d="M 138.371094 133.066406 L 240.175781 234.878906 L 236.316406 238.738281 L 134.507812 136.925781 Z M 138.371094 133.066406"/><path fill="#2B2B2B" d="M 185.382812 183.960938 L 189.246094 187.820312 L 138.363281 238.710938 L 134.503906 234.847656 Z M 185.382812 183.960938"/><path fill="#2B2B2B" d="M 236.308594 133.046875 L 240.167969 136.910156 L 198.632812 178.457031 L 194.769531 174.597656 Z M 236.308594 133.046875"/><g><g><g><path d="M 5.394531 -4.824219 L 10.753906 -9.234375 C 15.503906 -13.183594 19.261719 -15.996094 19.261719 -19.910156 C 19.261719 -23.898438 15.3125 -26.976562 9.917969 -26.976562 C 4.40625 -26.976562 0.835938 -23.785156 0.835938 -20.097656 C 0.835938 -17.859375 2.507812 -16.261719 4.824219 -16.261719 C 6.992188 -16.261719 8.550781 -17.859375 8.550781 -20.097656 C 8.550781 -22.339844 6.992188 -23.898438 4.824219 -23.898438 C 4.179688 -23.898438 3.609375 -23.785156 3.078125 -23.558594 C 3.875 -24.582031 5.089844 -25.230469 6.574219 -25.230469 C 9.308594 -25.230469 10.753906 -23.101562 10.753906 -19.757812 C 10.753906 -15.84375 8.777344 -12.726562 6.839844 -9.6875 L 1.214844 -1.027344 L 1.214844 0 L 19.339844 0 L 19.339844 -4.824219 Z M 5.394531 -4.824219" transform="translate(177.165 154.279)"/></g></g></g><g><g><g><path d="M 16.871094 -15.386719 C 18.960938 -16.566406 20.367188 -18.578125 20.367188 -20.785156 C 20.367188 -24.316406 16.71875 -26.976562 11.703125 -26.976562 C 6.382812 -26.976562 1.9375 -23.976562 1.9375 -18.730469 C 1.9375 -15.617188 3.496094 -13.679688 5.585938 -12.160156 C 3.152344 -10.941406 1.445312 -8.625 1.445312 -6.15625 C 1.445312 -2.28125 5.625 0.378906 11.09375 0.378906 C 17.058594 0.378906 21.808594 -2.8125 21.808594 -8.09375 C 21.808594 -11.777344 19.53125 -13.832031 16.871094 -15.386719 Z M 13.335938 -25.988281 C 16.335938 -25.988281 18.578125 -23.632812 18.578125 -20.515625 C 18.578125 -18.617188 17.589844 -16.871094 16.070312 -15.84375 L 14.324219 -16.753906 C 11.511719 -18.238281 8.890625 -19.53125 8.890625 -22.152344 C 8.890625 -24.355469 10.789062 -25.988281 13.335938 -25.988281 Z M 9.800781 -0.492188 C 6.042969 -0.492188 3.230469 -3 3.230469 -6.308594 C 3.230469 -8.625 4.445312 -10.601562 6.269531 -11.664062 C 7.296875 -11.019531 8.398438 -10.449219 9.460938 -9.878906 C 12.273438 -8.398438 14.816406 -7.066406 14.816406 -4.445312 C 14.816406 -2.203125 12.878906 -0.492188 9.800781 -0.492188 Z M 9.800781 -0.492188" transform="translate(219.035 196.238)"/></g></g></g><g><g><g><path d="M 13.375 0.378906 C 20.136719 0.378906 25.304688 -5.507812 25.304688 -13.296875 C 25.304688 -21.085938 20.136719 -26.976562 13.375 -26.976562 C 6.609375 -26.976562 1.445312 -21.085938 1.445312 -13.296875 C 1.445312 -5.507812 6.609375 0.378906 13.375 0.378906 Z M 13.375 -0.378906 C 11.171875 -0.378906 9.953125 -5.054688 9.953125 -13.296875 C 9.953125 -21.542969 11.171875 -26.214844 13.375 -26.214844 C 15.578125 -26.214844 16.792969 -21.542969 16.792969 -13.296875 C 16.792969 -5.054688 15.578125 -0.378906 13.375 -0.378906 Z M 13.375 -0.378906" transform="translate(174.125 246.221)"/></g></g></g><g><g><g><path d="M 14.4375 -16.222656 C 11.855469 -16.222656 10.488281 -14.96875 9.953125 -13.792969 C 10.070312 -21.769531 11.929688 -25.570312 15.84375 -25.570312 C 16.832031 -25.570312 17.707031 -25.230469 18.425781 -24.660156 C 18.085938 -24.773438 17.742188 -24.8125 17.402344 -24.8125 C 15.273438 -24.8125 13.679688 -23.253906 13.679688 -21.011719 C 13.679688 -18.769531 15.273438 -17.171875 17.402344 -17.171875 C 19.71875 -17.171875 21.390625 -18.769531 21.390625 -21.011719 C 21.390625 -24.164062 18.046875 -26.976562 13.601562 -26.976562 C 6.6875 -26.976562 1.445312 -20.328125 1.445312 -12.195312 C 1.445312 -4.597656 6.117188 0.378906 12.425781 0.378906 C 18.007812 0.378906 22.453125 -3.417969 22.453125 -8.359375 C 22.453125 -12.878906 18.65625 -16.222656 14.4375 -16.222656 Z M 12.007812 -0.378906 C 10.636719 -0.378906 10.03125 -2.925781 10.03125 -7.714844 C 10.03125 -12.5 10.636719 -14.628906 12.007812 -14.628906 C 13.375 -14.628906 13.945312 -12.5 13.945312 -7.75 C 13.945312 -2.925781 13.335938 -0.378906 12.007812 -0.378906 Z M 12.007812 -0.378906" transform="translate(131.301 196.238)"/></g></g></g></svg>