<svg width="56" height="24" viewBox="0 0 56 24" fill="none" xmlns="http://www.w3.org/2000/svg">
<path d="M5.43203 7.8C5.10066 7.8 4.83203 8.06863 4.83203 8.4C4.83203 8.73137 5.10066 9 5.43203 9H6.5875C6.91887 9 7.1875 8.73137 7.1875 8.4C7.1875 8.06863 6.91887 7.8 6.5875 7.8H5.43203Z" fill="#D3D3D4"/>
<path d="M4.83203 10.4C4.83203 10.0686 5.10066 9.8 5.43203 9.8H6.5875C6.91887 9.8 7.1875 10.0686 7.1875 10.4C7.1875 10.7314 6.91887 11 6.5875 11H5.43203C5.10066 11 4.83203 10.7314 4.83203 10.4Z" fill="#D3D3D4"/>
<path d="M5.43203 11.8C5.10066 11.8 4.83203 12.0686 4.83203 12.4C4.83203 12.7314 5.10066 13 5.43203 13H6.5875C6.91887 13 7.1875 12.7314 7.1875 12.4C7.1875 12.0686 6.91887 11.8 6.5875 11.8H5.43203Z" fill="#D3D3D4"/>
<path fill-rule="evenodd" clip-rule="evenodd" d="M3.21799 6.09202C3 6.51984 3 7.0799 3 8.2V15.8C3 16.9201 3 17.4802 3.21799 17.908C3.40973 18.2843 3.71569 18.5903 4.09202 18.782C4.51984 19 5.0799 19 6.2 19H17.8C18.9201 19 19.4802 19 19.908 18.782C20.2843 18.5903 20.5903 18.2843 20.782 17.908C21 17.4802 21 16.9201 21 15.8V8.2C21 7.0799 21 6.51984 20.782 6.09202C20.5903 5.71569 20.2843 5.40973 19.908 5.21799C19.4802 5 18.9201 5 17.8 5H6.2C5.0799 5 4.51984 5 4.09202 5.21799C3.71569 5.40973 3.40973 5.71569 3.21799 6.09202ZM17.8 6.2H9.2L9.2 17.8H17.8C18.3799 17.8 18.7426 17.7991 19.0159 17.7767C19.2752 17.7556 19.3466 17.7212 19.3632 17.7128C19.5137 17.6361 19.6361 17.5137 19.7128 17.3632C19.7212 17.3466 19.7556 17.2752 19.7767 17.0159C19.7991 16.7426 19.8 16.3799 19.8 15.8V8.2C19.8 7.62015 19.7991 7.25743 19.7767 6.98412C19.7556 6.72483 19.7212 6.65336 19.7128 6.63681C19.6361 6.48628 19.5137 6.36389 19.3632 6.28719C19.3466 6.27876 19.2752 6.24445 19.0159 6.22326C18.7426 6.20093 18.3799 6.2 17.8 6.2ZM6.2 6.2H8L8 17.8H6.2C5.62015 17.8 5.25743 17.7991 4.98412 17.7767C4.72483 17.7556 4.65336 17.7212 4.63681 17.7128C4.48628 17.6361 4.36389 17.5137 4.28719 17.3632C4.27876 17.3466 4.24445 17.2752 4.22326 17.0159C4.20093 16.7426 4.2 16.3799 4.2 15.8V8.2C4.2 7.62015 4.20093 7.25743 4.22326 6.98412C4.24445 6.72483 4.27876 6.65336 4.28719 6.63681C4.36389 6.48628 4.48628 6.36389 4.63681 6.28719C4.65336 6.27876 4.72483 6.24445 4.98412 6.22326C5.25743 6.20093 5.62015 6.2 6.2 6.2Z" fill="#D3D3D4"/>
<line opacity="0.2" x1="34.25" y1="4.25" x2="34.25" y2="19.75" stroke="#717171" stroke-width="0.5" stroke-linecap="round"/>
<path fill-rule="evenodd" clip-rule="evenodd" d="M46.205 10.205C46.4784 9.93166 46.9216 9.93166 47.195 10.205L49.7 12.7101L52.205 10.205C52.4784 9.93166 52.9216 9.93166 53.195 10.205C53.4683 10.4784 53.4683 10.9216 53.195 11.195L50.195 14.195C49.9216 14.4683 49.4784 14.4683 49.205 14.195L46.205 11.195C45.9317 10.9216 45.9317 10.4784 46.205 10.205Z" fill="#A4A4A4"/>
</svg>
