<svg width="50" height="48" viewBox="0 0 50 48" fill="none" xmlns="http://www.w3.org/2000/svg">
<path d="M35.781 3.50575L35.8682 12.8583C35.88 14.2077 37.1223 15.0774 38.1886 14.5186L39.255 13.9635L49.049 8.87187C49.6335 8.56787 50.0053 7.90453 49.9999 7.17836C49.9944 6.45219 49.6117 5.79745 49.023 5.50458L38.4787 0.276245L35.781 3.50575Z" fill="#C8598E"/>
<path d="M38.2454 0.140933C37.669 -0.136064 36.9469 -0.00577694 36.4626 0.540942L26.6489 11.6176C26.0099 12.3388 26.0099 13.5081 26.6489 14.2281L36.4626 25.3049C36.7755 25.6582 37.1942 25.8464 37.6195 25.8464C37.8299 25.8464 38.0425 25.8009 38.2454 25.7049C38.856 25.4206 39.2551 24.7474 39.2551 24.0003V1.84668C39.255 1.09957 38.8551 0.425426 38.2454 0.140933Z" fill="#E362A0"/>
<path d="M19.715 44.9607V35.1398C19.7096 34.5134 19.4239 33.9324 18.955 33.5964C18.4872 33.2629 17.9006 33.2162 17.3946 33.4795L16.3565 34.0198L6.53526 39.1275C5.95079 39.4315 5.57784 40.0936 5.58331 40.8197C5.58985 41.5471 5.97257 42.2019 6.56143 42.4935L17.2158 47.7772L19.715 44.9607Z" fill="#C8598E"/>
<path d="M28.9617 33.7712L19.1481 22.6944C18.6814 22.1665 17.9781 22.0077 17.3653 22.2944C16.7546 22.5799 16.3567 23.2532 16.3567 24.0003V46.1539C16.3567 46.8382 16.6904 47.4597 17.216 47.7773C17.3862 47.8864 17.6725 48 17.9913 48C18.796 48 19.1484 47.4583 19.7173 46.8161L28.9617 36.3818C29.6007 35.6617 29.6007 34.4924 28.9617 33.7712Z" fill="#E362A0"/>
<path d="M27.8054 36.9229C27.3869 36.9229 26.9683 36.7426 26.649 36.382L0.47933 6.84386C0.0113623 6.31632 -0.128774 5.52192 0.124741 4.83191C0.377573 4.14212 0.973958 3.6925 1.63568 3.6925H21.263C21.6969 3.6925 22.1127 3.88716 22.4193 4.23338L38.7755 22.6948C39.4143 23.4152 39.4143 24.5847 38.7755 25.3053L28.9618 36.382C28.6424 36.7426 28.2239 36.9229 27.8054 36.9229Z" fill="#FE9ACA"/>
<path d="M27.8053 36.9229C28.2238 36.9229 28.6423 36.7426 28.9617 36.382L33.8685 30.8436L9.81364 3.6925H1.63563C0.973817 3.6925 0.377529 4.14201 0.124698 4.83191C-0.12872 5.5217 0.0113189 6.31632 0.479287 6.84397L26.6491 36.3821C26.9684 36.7426 27.3868 36.9229 27.8053 36.9229Z" fill="#F487BB"/>
</svg>
